<?xml version="1.0" standalone="no"?>
<!DOCTYPE svg PUBLIC "-//W3C//DTD SVG 1.1//EN" "http://www.w3.org/Graphics/SVG/1.1/DTD/svg11.dtd" >
<svg xmlns="http://www.w3.org/2000/svg" xmlns:xlink="http://www.w3.org/1999/xlink" version="1.1">
<metadata>
Created by FontForge 20170731 at Mon Jun 18 14:01:09 2012
 By Aleksey,,,
Copyright (c) 2012 Linotype GmbH, www.linotype.com. All rights reserved. This font software may not be reproduced, modified, disclosed or transferred without the express written approval of Linotype GmbH. Futura is either a registered trademark or a trademark of Bauer Types SA. This typeface is original artwork of Paul Renner. The design may be protected in certain jurisdictions.
</metadata>
<defs>
<font id="FuturaCom-Bold" horiz-adv-x="686" >
  <font-face 
    font-family="Futura Com Book"
    font-weight="700"
    font-stretch="normal"
    units-per-em="1000"
    panose-1="2 0 8 3 4 0 0 2 0 3"
    ascent="825"
    descent="-175"
    x-height="513"
    cap-height="754"
    bbox="-171 -294 1441 1075"
    underline-thickness="50"
    underline-position="-150"
    unicode-range="U+000D-FB02"
  />
<missing-glyph horiz-adv-x="512" 
d="M512 718v-718h-512v718h512zM462 50v617h-412v-617h412zM383 478q0 -36 -14.5 -62t-50.5 -58t-41.5 -49.5t-5.5 -74.5h-46l-2 19q0 64 18.5 91.5t54.5 60t36 69.5q0 35 -22.5 60t-53.5 25q-69 0 -82 -95l-50 8q6 67 41 102t94 35q55 0 89.5 -36.5t34.5 -94.5zM222 184h56
v-67h-56v67z" />
    <glyph glyph-name="IJ" unicode="IJ" horiz-adv-x="792" 
d="M260 754v-754h-196v754h196zM732 754v-514q0 -121 -66.5 -190.5t-182.5 -69.5q-123 0 -195 111l113 119q47 -64 78 -64q32 0 44 25.5t12 78.5v504h197z" />
    <glyph glyph-name="ij" unicode="ij" horiz-adv-x="585" 
d="M151 608q-42 0 -72 29.5t-30 72.5q0 41 29.5 71.5t72.5 30.5q42 0 72 -30t30 -72q0 -43 -30.5 -72.5t-71.5 -29.5zM242 513v-513h-182v513h182zM434 608q-42 0 -72 29.5t-30 72.5q0 41 29.5 71.5t72.5 30.5q42 0 72 -30t30 -72q0 -43 -30.5 -72.5t-71.5 -29.5zM525 513
v-768h-182v768h182z" />
    <glyph glyph-name="napostrophe" unicode="&#x22;n" horiz-adv-x="661" 
d="M137 719l-96 -195l-86 22l64 208zM601 0h-183v282q0 49 -18.5 76t-63.5 27q-46 0 -70 -30t-24 -86v-269h-182v513h182v-66h2q30 45 70 64t94 19q94 0 143.5 -54.5t49.5 -154.5v-321z" />
    <glyph glyph-name="fi" unicode="fi" horiz-adv-x="679" 
d="M304 840q43 0 78 -18v-157q-39 17 -64 17q-33 0 -48 -20t-15 -62v-87h127v-150h-127v-363h-182v363h-64v150h64v73q0 73 14 110.5t48.5 73t81.5 53t87 17.5zM527 608q-42 0 -72 29.5t-30 72.5q0 41 29.5 71.5t72.5 30.5q42 0 72 -30t30 -72q0 -43 -30.5 -72.5
t-71.5 -29.5zM618 513v-513h-182v513h182z" />
    <glyph glyph-name="fl" unicode="fl" horiz-adv-x="690" 
d="M304 840q43 0 78 -18v-157q-39 17 -64 17q-33 0 -48 -20t-15 -62v-87h127v-150h-127v-363h-182v363h-64v150h64v73q0 73 14 110.5t48.5 73t81.5 53t87 17.5zM629 830v-830h-182v830h182z" />
    <glyph glyph-name=".notdef" horiz-adv-x="512" 
d="M512 718v-718h-512v718h512zM462 50v617h-412v-617h412zM383 478q0 -36 -14.5 -62t-50.5 -58t-41.5 -49.5t-5.5 -74.5h-46l-2 19q0 64 18.5 91.5t54.5 60t36 69.5q0 35 -22.5 60t-53.5 25q-69 0 -82 -95l-50 8q6 67 41 102t94 35q55 0 89.5 -36.5t34.5 -94.5zM222 184h56
v-67h-56v67z" />
    <glyph glyph-name=".null" horiz-adv-x="500" 
 />
    <glyph glyph-name="nonmarkingreturn" unicode="&#xd;" horiz-adv-x="0" 
 />
    <glyph glyph-name="space" unicode=" " horiz-adv-x="343" 
 />
    <glyph glyph-name="exclam" unicode="!" horiz-adv-x="384" 
d="M287 754v-498h-189v498h189zM192 -20q-48 0 -82.5 34t-34.5 83q0 48 34 82.5t83 34.5q48 0 82.5 -33.5t34.5 -83.5q0 -48 -35 -82.5t-82 -34.5z" />
    <glyph glyph-name="quotedbl" unicode="&#x22;" horiz-adv-x="500" 
d="M217 754l-27 -331h-116l-27 331h170zM453 754l-27 -331h-116l-27 331h170z" />
    <glyph glyph-name="numbersign" unicode="#" 
d="M371 726l-39 -203h101l39 203h105l-39 -203h80v-113h-98l-24 -124h94v-113h-118l-33 -173h-106l33 173h-101l-33 -173h-106l33 173h-91v113h113l24 124h-96v113h117l39 203h106zM287 286h102l26 124h-104z" />
    <glyph glyph-name="dollar" unicode="$" 
d="M408 874v-121q111 -12 182 -58l-74 -145q-28 23 -62 36t-66 13q-38 0 -61.5 -15t-23.5 -41q0 -49 106 -81t157.5 -81.5t51.5 -134.5q0 -95 -50.5 -156t-159.5 -88v-125h-93v120h-8q-57 0 -133.5 29.5t-105.5 60.5l82 151q40 -37 89.5 -60.5t91.5 -23.5q39 0 66.5 21
t27.5 52q0 28 -26 45.5t-87 35t-108 45t-70 68.5t-23 97q0 92 59.5 161.5t144.5 73.5v121h93z" />
    <glyph glyph-name="percent" unicode="%" horiz-adv-x="975" 
d="M225 395q-93 0 -149.5 50.5t-56.5 135.5q0 82 57 132.5t149 50.5q91 0 148.5 -49.5t57.5 -133.5q0 -85 -56.5 -135.5t-149.5 -50.5zM755 754l-438 -754h-98l438 754h98zM310 579q0 35 -25 60t-60 25t-60 -25t-25 -60q0 -36 25 -60t60 -24t60 25t25 59zM750 -9
q-93 0 -149.5 50t-56.5 135q0 82 57.5 132.5t148.5 50.5t148.5 -50t57.5 -133q0 -85 -56.5 -135t-149.5 -50zM835 174q0 36 -25 60.5t-60 24.5t-60 -25t-25 -60q0 -36 25 -60t60 -24t60 25t25 59z" />
    <glyph glyph-name="ampersand" unicode="&#x26;" horiz-adv-x="848" 
d="M478 388l95 -100q61 55 99 107l111 -106l-104 -111l169 -178h-245l-65 70q-131 -90 -258 -90q-106 0 -174 60t-68 156q0 72 38 122.5t142 95.5l-41 58q-29 42 -29 95q0 88 67.5 147.5t166.5 59.5t167.5 -59t68.5 -146q0 -60 -34.5 -103.5t-105.5 -77.5zM393 479
q70 42 70 92q0 30 -19 50t-48 20q-26 0 -44 -17.5t-18 -44.5q0 -21 16 -46.5t43 -53.5zM431 187l-119 128q-35 -22 -53 -43.5t-18 -46.5q0 -30 24.5 -49.5t61.5 -19.5q50 0 104 31z" />
    <glyph glyph-name="quotesingle" unicode="'" horiz-adv-x="250" 
d="M210 754l-27 -331h-116l-27 331h170z" />
    <glyph glyph-name="parenleft" unicode="(" horiz-adv-x="352" 
d="M303 728q-57 -94 -86 -209.5t-29 -244.5q0 -125 31.5 -249t83.5 -203l-109 -62q-67 88 -106 229.5t-39 296.5q0 136 39.5 274.5t105.5 229.5z" />
    <glyph glyph-name="parenright" unicode=")" horiz-adv-x="352" 
d="M158 790q67 -93 106 -231t39 -273q0 -155 -39 -296t-106 -230l-109 62q53 82 84 206t31 246q0 134 -30 249t-85 205z" />
    <glyph glyph-name="asterisk" unicode="*" horiz-adv-x="483" 
d="M286 754l-5 -107l89 56l45 -76l-95 -50l94 -52l-45 -75l-88 57l4 -101h-90l6 100l-85 -54l-45 76l90 50l-93 51l46 76l87 -55l-5 104h90z" />
    <glyph glyph-name="plus" unicode="+" 
d="M418 513v-181h181v-150h-181v-182h-150v182h-181v150h181v181h150z" />
    <glyph glyph-name="comma" unicode="," horiz-adv-x="343" 
d="M323 191l-184 -332h-117l130 332h171z" />
    <glyph glyph-name="hyphen" unicode="-" horiz-adv-x="392" 
d="M339 396v-150h-286v150h286z" />
    <glyph glyph-name="period" unicode="." horiz-adv-x="343" 
d="M172 -20q-48 0 -82.5 34t-34.5 83q0 48 34 82.5t83 34.5q48 0 82.5 -33.5t34.5 -83.5t-35 -83.5t-82 -33.5z" />
    <glyph glyph-name="slash" unicode="/" horiz-adv-x="579" 
d="M552 830l-382 -922h-143l382 922h143z" />
    <glyph glyph-name="zero" unicode="0" 
d="M343 -29q-142 0 -231 112.5t-89 293.5q0 119 40.5 213t113 144t166.5 50q95 0 167 -50t112.5 -145.5t40.5 -211.5q0 -182 -89 -294t-231 -112zM468 378q0 100 -35 166.5t-91 66.5q-60 0 -92 -72t-32 -161q0 -100 35 -167.5t90 -67.5q57 0 91 67t34 168z" />
    <glyph glyph-name="one" unicode="1" 
d="M465 754v-754h-196v588h-108v166h304z" />
    <glyph glyph-name="two" unicode="2" 
d="M495 262l-103 -96h247v-166h-606l308 335q40 43 63 92.5t23 92.5q0 40 -26 69t-60 29q-37 0 -59.5 -25.5t-22.5 -66.5q0 -20 3 -32h-216q4 131 84 210.5t210 79.5q126 0 208.5 -76t82.5 -192q0 -47 -12.5 -87t-36 -74t-87.5 -93z" />
    <glyph glyph-name="three" unicode="3" 
d="M514 410q52 -13 87.5 -68t35.5 -122q0 -111 -82.5 -180t-211.5 -69q-88 0 -154 33t-111 105t-45 130v6h200q1 -49 30.5 -78t73.5 -29q46 0 76 28t30 73q0 42 -31 71.5t-73 29.5q-14 0 -34 -6v131h17q44 0 66.5 23t22.5 60q0 34 -22 55t-56 21q-37 0 -58 -24.5t-21 -62.5
h-182q10 107 83 177t196 70q110 0 176 -59.5t66 -159.5q0 -52 -21.5 -93.5t-57.5 -61.5z" />
    <glyph glyph-name="four" unicode="4" 
d="M564 754v-448h91v-150h-91v-156h-182v156h-366v125l291 473h257zM204 306h178v290h-2z" />
    <glyph glyph-name="five" unicode="5" horiz-adv-x="689" 
d="M565 754v-166h-261l-13 -86q64 6 83 6q103 0 174.5 -78.5t71.5 -192.5q0 -76 -40 -140t-111.5 -95t-165.5 -31q-140 0 -246 67l29 185q97 -87 209 -87q51 0 86 32.5t35 78.5q0 58 -46 93.5t-119 35.5q-41 0 -79.5 -9t-64.5 -22l66 409h392z" />
    <glyph glyph-name="six" unicode="6" 
d="M528 754l-214 -255l2 -2q50 23 105 23q102 0 172 -76.5t70 -188.5q0 -127 -91 -205.5t-233 -78.5q-84 0 -155 29.5t-115.5 97t-45.5 145.5q0 70 30.5 145.5t87.5 149.5l165 216h222zM459 249q0 52 -35 87.5t-86 35.5t-87.5 -36.5t-36.5 -86.5t36.5 -87.5t87.5 -37.5
t86 36.5t35 88.5z" />
    <glyph glyph-name="seven" unicode="7" 
d="M690 754l-433 -754h-215l344 588h-315v166h619z" />
    <glyph glyph-name="eight" unicode="8" 
d="M481 398v-2q72 -24 111 -76t39 -122q0 -102 -86 -164.5t-202 -62.5q-117 0 -202.5 62.5t-85.5 164.5q0 70 39 122t111 76v2q-54 18 -86.5 65t-32.5 106q0 96 73 155.5t184 59.5q112 0 184.5 -59.5t72.5 -155.5q0 -59 -32.5 -106t-86.5 -65zM426 563q0 36 -24.5 60.5
t-59.5 24.5q-34 0 -58 -26t-24 -59q0 -35 24 -60t59 -25t59 25.5t24 59.5zM433 223q0 40 -26.5 67t-64.5 27q-36 0 -62.5 -27t-26.5 -67q0 -39 27 -65.5t63 -26.5t63 27t27 65z" />
    <glyph glyph-name="nine" unicode="9" 
d="M542 211l-161 -211h-223l215 254l-2 2q-27 -12 -51.5 -17.5t-54.5 -5.5q-103 0 -172.5 77t-69.5 189q0 126 91.5 205.5t232.5 79.5q97 0 168 -35.5t109.5 -101.5t38.5 -136q0 -141 -121 -300zM473 505q0 52 -37 88t-88 36q-53 0 -87 -36.5t-34 -87.5t35 -87.5t86 -36.5
q52 0 88.5 36.5t36.5 87.5z" />
    <glyph glyph-name="colon" unicode=":" horiz-adv-x="343" 
d="M172 317q-48 0 -82.5 34t-34.5 83t34.5 83t82.5 34t82.5 -33.5t34.5 -83.5q0 -48 -35 -82.5t-82 -34.5zM172 -20q-48 0 -82.5 34t-34.5 83q0 48 34 82.5t83 34.5q48 0 82.5 -33.5t34.5 -83.5q0 -48 -35 -82.5t-82 -34.5z" />
    <glyph glyph-name="semicolon" unicode=";" horiz-adv-x="343" 
d="M218 317q-49 0 -83 34t-34 83t34 83t83 34t83 -34.5t34 -82.5t-34 -82.5t-83 -34.5zM309 191l-184 -332h-117l130 332h171z" />
    <glyph glyph-name="less" unicode="&#x3c;" 
d="M588 349l-274 -93l274 -91v-150l-489 182v120l489 182v-150z" />
    <glyph glyph-name="equal" unicode="=" 
d="M599 452v-150h-512v150h512zM599 212v-150h-512v150h512z" />
    <glyph glyph-name="greater" unicode="&#x3e;" 
d="M99 499l489 -182v-120l-489 -182v150l274 91v2l-274 91v150z" />
    <glyph glyph-name="question" unicode="?" horiz-adv-x="595" 
d="M369 323v-71h-183v194q19 -5 42 -5q52 0 90.5 28t38.5 71q0 31 -21 53t-52 22q-32 0 -51 -20.5t-19 -55.5h-199q0 103 78 169t196 66q111 0 186 -72.5t75 -162.5q0 -76 -46 -131.5t-135 -84.5zM281 -20q-49 0 -83 34t-34 83t34 83t83 34t83 -34t34 -83q0 -47 -33.5 -82
t-83.5 -35z" />
    <glyph glyph-name="at" unicode="@" horiz-adv-x="740" 
d="M522 152q-22 0 -40 15t-26 43q-52 -58 -127 -58q-67 0 -118 55.5t-51 130.5q0 98 59 169.5t145 71.5q38 0 68 -14t55 -48l10 53h95l-54 -278l-3 -20v-5q0 -23 16 -23q32 0 67 62t35 130q0 108 -75 176t-194 68q-123 0 -204 -85.5t-81 -217.5t85 -217.5t217 -85.5
q54 0 100.5 10.5t78.5 29.5l82 -66q-137 -68 -268 -68q-107 0 -195.5 51t-141 142t-52.5 194q0 114 47.5 206t137 146.5t190.5 54.5q156 0 255 -98t99 -223q0 -83 -29 -152.5t-78.5 -109t-104.5 -39.5zM451 388q0 36 -20 58.5t-54 22.5q-38 0 -67.5 -35t-29.5 -80
q0 -40 21.5 -66t54.5 -26q41 0 68 38t27 88z" />
    <glyph glyph-name="A" unicode="A" horiz-adv-x="781" 
d="M500 754l284 -754h-209l-50 131h-270l-51 -131h-208l290 754h214zM310 281h163l-82 240z" />
    <glyph glyph-name="B" unicode="B" horiz-adv-x="677" 
d="M349 754q219 0 219 -196q0 -111 -83 -154v-2q77 -10 115.5 -59.5t38.5 -132.5q0 -99 -71.5 -154.5t-198.5 -55.5h-305v754h285zM260 458h21q58 0 82.5 18t24.5 55q0 38 -24.5 55.5t-84.5 17.5h-19v-146zM260 150h25q68 0 96 8t44 25t16 47q0 41 -27.5 61.5t-96.5 20.5
h-57v-162z" />
    <glyph glyph-name="C" unicode="C" horiz-adv-x="660" 
d="M603 501q-28 38 -73 60.5t-99 22.5q-86 0 -143.5 -59.5t-57.5 -149.5t56.5 -147.5t147.5 -57.5q47 0 92.5 22t76.5 58v-235q-75 -22 -105 -28.5t-68 -6.5q-159 0 -281.5 109.5t-122.5 286.5q0 109 54 201t146 144.5t198 52.5q85 0 179 -38v-235z" />
    <glyph glyph-name="D" unicode="D" horiz-adv-x="752" 
d="M346 754q104 0 192.5 -53t137.5 -139.5t49 -184.5q0 -101 -50.5 -188t-138 -138t-190.5 -51h-282v754h282zM260 166h21q89 0 136.5 24t75.5 70t28 117q0 96 -58 153.5t-151 57.5h-52v-422z" />
    <glyph glyph-name="E" unicode="E" horiz-adv-x="550" 
d="M493 754v-166h-233v-126h221v-166h-221v-130h233v-166h-429v754h429z" />
    <glyph glyph-name="F" unicode="F" horiz-adv-x="542" 
d="M497 754v-166h-237v-126h215v-166h-215v-296h-196v754h433z" />
    <glyph glyph-name="G" unicode="G" horiz-adv-x="842" 
d="M775 568l-186 -78q-22 57 -64.5 88.5t-98.5 31.5q-89 0 -142.5 -71t-53.5 -167q0 -95 54 -165.5t145 -70.5q69 0 110.5 35t47.5 96h-160v154h389q-2 -140 -31.5 -214t-80.5 -126t-120.5 -78.5t-155.5 -26.5q-178 0 -290 110t-112 287q0 120 51 212.5t145 143t213 50.5
q116 0 203.5 -52.5t136.5 -158.5z" />
    <glyph glyph-name="H" unicode="H" horiz-adv-x="803" 
d="M260 754v-291h283v291h196v-754h-196v309h-283v-309h-196v754h196z" />
    <glyph glyph-name="I" unicode="I" horiz-adv-x="324" 
d="M260 754v-754h-196v754h196z" />
    <glyph glyph-name="J" unicode="J" horiz-adv-x="489" 
d="M429 754v-514q0 -121 -66.5 -190.5t-182.5 -69.5q-123 0 -195 111l113 119q47 -64 78 -64q32 0 44 25.5t12 78.5v504h197z" />
    <glyph glyph-name="K" unicode="K" horiz-adv-x="758" 
d="M260 754v-311l239 311h243l-300 -357l327 -397h-254l-255 327v-327h-196v754h196z" />
    <glyph glyph-name="L" unicode="L" horiz-adv-x="495" 
d="M260 754v-588h235v-166h-431v754h196z" />
    <glyph glyph-name="M" unicode="M" horiz-adv-x="983" 
d="M340 754l153 -403l162 403h195l114 -754h-196l-57 434l-181 -434h-78l-175 434l-63 -434h-195l128 754h193z" />
    <glyph glyph-name="N" unicode="N" horiz-adv-x="881" 
d="M260 754l361 -461v461h196v-754h-196l-361 462v-462h-196v754h196z" />
    <glyph glyph-name="O" unicode="O" horiz-adv-x="887" 
d="M449 -24q-122 0 -218 51.5t-150.5 146.5t-54.5 206q0 112 53 202t153 143.5t211 53.5q110 0 208 -52.5t153.5 -140.5t55.5 -195q0 -120 -53 -214t-148.5 -147.5t-209.5 -53.5zM656 390q0 79 -64.5 139t-149.5 60q-83 0 -147.5 -59.5t-64.5 -139.5q0 -96 62.5 -160.5
t150.5 -64.5q90 0 151.5 66t61.5 159z" />
    <glyph glyph-name="P" unicode="P" horiz-adv-x="661" 
d="M368 754q130 0 200 -65t70 -183q0 -129 -67 -192.5t-195 -63.5h-116v-250h-196v754h304zM260 408h17l57 1q44 0 72 20.5t28 70.5q0 38 -13 58.5t-38.5 29t-95.5 8.5h-27v-188z" />
    <glyph glyph-name="Q" unicode="Q" horiz-adv-x="887" 
d="M763 110l127 -129l-180 -27l-60 70q-83 -48 -207 -48q-120 0 -214.5 52t-148.5 147.5t-54 206.5q0 112 53.5 201.5t153 142.5t210.5 53q179 0 298 -113t119 -291q0 -146 -97 -265zM504 175l-121 120l185 23l53 -55q35 49 35 111q0 87 -64 151t-149 64q-84 0 -148.5 -59.5
t-64.5 -139.5q0 -94 62.5 -159.5t151.5 -65.5q31 0 60 10z" />
    <glyph glyph-name="R" unicode="R" horiz-adv-x="680" 
d="M362 754q120 0 188.5 -62.5t68.5 -169.5q0 -83 -44.5 -141t-120.5 -72l237 -309h-244l-185 290h-2v-290h-196v754h298zM260 416h17q72 0 105 23t33 71t-32.5 71t-105.5 23h-17v-188z" />
    <glyph glyph-name="S" unicode="S" horiz-adv-x="616" 
d="M556 712l-78 -152q-59 50 -130 50q-33 0 -58.5 -18t-25.5 -45q0 -51 107.5 -78t161.5 -78t54 -137q0 -144 -85.5 -209t-207.5 -65q-70 0 -138 22.5t-126 63.5l84 158q89 -78 173 -78q44 0 70 21t26 55q0 26 -24 46.5t-104 42.5t-119 46.5t-57.5 64.5t-18.5 99
q0 113 72.5 183t186.5 70q59 0 122.5 -17t114.5 -45z" />
    <glyph glyph-name="T" unicode="T" horiz-adv-x="533" 
d="M526 754v-166h-162v-588h-196v588h-162v166h520z" />
    <glyph glyph-name="U" unicode="U" horiz-adv-x="778" 
d="M256 754v-404q0 -115 33 -156.5t100 -41.5q66 0 99.5 42t33.5 155v405h196v-433q0 -129 -32 -194.5t-109 -106t-188 -40.5t-187.5 40t-109 106.5t-32.5 194.5v433h196z" />
    <glyph glyph-name="V" unicode="V" horiz-adv-x="761" 
d="M198 754l181 -458l183 458h213l-321 -754h-153l-316 754h213z" />
    <glyph glyph-name="W" unicode="W" horiz-adv-x="1117" 
d="M188 754l131 -487h2l158 487h157l148 -487h2l142 487h203l-240 -754h-201l-131 437h-2l-148 -437h-200l-224 754h203z" />
    <glyph glyph-name="X" unicode="X" horiz-adv-x="789" 
d="M287 754l114 -195l116 195h240l-240 -351l278 -403h-235l-159 246l-172 -246h-237l295 403l-242 351h242z" />
    <glyph glyph-name="Y" unicode="Y" horiz-adv-x="714" 
d="M215 754l141 -205l142 205h234l-277 -392v-362h-197v362l-277 392h234z" />
    <glyph glyph-name="Z" unicode="Z" horiz-adv-x="707" 
d="M696 754l-355 -588h316v-166h-646l357 588h-296v166h624z" />
    <glyph glyph-name="bracketleft" unicode="[" horiz-adv-x="350" 
d="M298 790v-106h-107v-817h107v-107h-246v1030h246z" />
    <glyph glyph-name="backslash" unicode="\" horiz-adv-x="579" 
d="M171 830l381 -830h-142l-383 830h144z" />
    <glyph glyph-name="bracketright" unicode="]" horiz-adv-x="350" 
d="M298 790v-1030h-246v107h107v817h-107v106h246z" />
    <glyph glyph-name="asciicircum" unicode="^" 
d="M403 784l180 -377l-114 -67l-126 269l-126 -269l-114 67l180 377h120z" />
    <glyph glyph-name="underscore" unicode="_" horiz-adv-x="500" 
d="M500 -75v-50h-500v50h500z" />
    <glyph glyph-name="grave" unicode="`" horiz-adv-x="402" 
d="M186 820l141 -172l-81 -59l-171 151z" />
    <glyph glyph-name="a" unicode="a" horiz-adv-x="682" 
d="M439 513h182v-513h-182v57h-2q-23 -36 -63.5 -55t-91.5 -19q-107 0 -183 78.5t-76 195.5q0 115 74.5 194t182.5 79q46 0 88 -17t71 -50v50zM445 256q0 51 -33 83.5t-85 32.5q-51 0 -83.5 -32.5t-32.5 -83.5q0 -52 32.5 -83.5t84.5 -31.5t84.5 31.5t32.5 83.5z" />
    <glyph glyph-name="b" unicode="b" horiz-adv-x="682" 
d="M236 830v-367q28 32 70.5 49.5t88.5 17.5q108 0 182.5 -78.5t74.5 -194.5q0 -115 -74.5 -194.5t-183.5 -79.5q-52 0 -93.5 20t-62.5 54h-2v-57h-182v830h182zM464 256q0 51 -33 83.5t-85 32.5q-51 0 -83.5 -32.5t-32.5 -83.5q0 -52 32.5 -83.5t84.5 -31.5t84.5 31.5
t32.5 83.5z" />
    <glyph glyph-name="c" unicode="c" horiz-adv-x="483" 
d="M430 346q-51 36 -94 36q-52 0 -88.5 -36.5t-36.5 -88.5q0 -55 35.5 -90.5t92.5 -35.5q25 0 49.5 9.5t41.5 25.5v-154q-59 -29 -128 -29q-75 0 -140 35.5t-102 97.5t-37 135q0 122 82 200.5t205 78.5q30 0 58.5 -6.5t61.5 -23.5v-154z" />
    <glyph glyph-name="d" unicode="d" horiz-adv-x="682" 
d="M628 830v-830h-182v57h-2q-21 -35 -63 -54.5t-92 -19.5q-70 0 -130.5 36.5t-94.5 100t-34 137.5q0 115 74.5 194t182.5 79q47 0 89 -17t70 -50v367h182zM452 256q0 52 -33 84t-85 32q-50 0 -83 -33t-33 -83q0 -51 32 -83t85 -32q51 0 84 31.5t33 83.5z" />
    <glyph glyph-name="e" unicode="e" horiz-adv-x="610" 
d="M204 226q0 -114 114 -114q29 0 50.5 10.5t36.5 36.5h175q-18 -79 -88.5 -127.5t-173.5 -48.5q-135 0 -215.5 74.5t-80.5 198.5q0 123 77.5 198.5t206.5 75.5q133 0 207 -76t74 -213v-15h-383zM418 331q-7 37 -36.5 59t-67.5 22q-40 0 -69.5 -21.5t-37.5 -59.5h211z" />
    <glyph glyph-name="f" unicode="f" horiz-adv-x="388" 
d="M309 840q43 0 78 -18v-157q-39 17 -64 17q-33 0 -48 -20t-15 -62v-87h127v-150h-127v-363h-182v363h-64v150h64v73q0 73 14 110.5t48.5 73t81.5 53t87 17.5z" />
    <glyph glyph-name="g" unicode="g" horiz-adv-x="677" 
d="M441 459v54h182v-468q0 -300 -296 -300q-113 0 -199 55.5t-94 139.5h204q7 -23 31 -36.5t56 -13.5q58 0 87 33t29 113v24q-35 -35 -73.5 -52t-89.5 -17q-110 0 -181.5 74t-71.5 187q0 118 75.5 198t187.5 80q100 0 151 -71h2zM447 260q0 51 -33 83.5t-85 32.5
q-51 0 -83.5 -32.5t-32.5 -83.5q0 -52 33 -83.5t84 -31.5t84 31.5t33 83.5z" />
    <glyph glyph-name="h" unicode="h" horiz-adv-x="661" 
d="M242 830v-382h2q32 42 71 62t93 20q91 0 142 -55.5t51 -157.5v-317h-182v268q0 63 -20.5 90t-61.5 27q-45 0 -70 -31.5t-25 -86.5v-267h-182v830h182z" />
    <glyph glyph-name="i" unicode="i" horiz-adv-x="302" 
d="M151 608q-42 0 -72 29.5t-30 72.5q0 41 29.5 71.5t72.5 30.5q42 0 72 -30t30 -72q0 -43 -30.5 -72.5t-71.5 -29.5zM242 513v-513h-182v513h182z" />
    <glyph glyph-name="j" unicode="j" horiz-adv-x="302" 
d="M151 608q-42 0 -72 29.5t-30 72.5q0 41 29.5 71.5t72.5 30.5q42 0 72 -30t30 -72q0 -43 -30.5 -72.5t-71.5 -29.5zM242 513v-768h-182v768h182z" />
    <glyph glyph-name="k" unicode="k" horiz-adv-x="688" 
d="M242 830v-502l189 185h249l-257 -237l273 -276h-255l-199 209v-209h-182v830h182z" />
    <glyph glyph-name="l" unicode="l" horiz-adv-x="302" 
d="M242 830v-830h-182v830h182z" />
    <glyph glyph-name="m" unicode="m" horiz-adv-x="989" 
d="M581 432q25 46 71 72t103 26q87 0 131 -51.5t44 -146.5v-332h-182v276q0 53 -19 81t-56 28q-42 0 -64.5 -28.5t-22.5 -105.5v-251h-182v251q0 81 -21 109.5t-60 28.5q-40 0 -60.5 -29t-20.5 -109v-251h-182v513h182v-64h2q33 43 72 62t90 19q120 0 175 -98z" />
    <glyph glyph-name="n" unicode="n" horiz-adv-x="661" 
d="M601 0h-182v282q0 49 -18.5 76t-63.5 27q-46 0 -70.5 -30t-24.5 -86v-269h-182v513h182v-66h2q31 45 70.5 64t93.5 19q94 0 143.5 -54.5t49.5 -154.5v-321z" />
    <glyph glyph-name="o" unicode="o" horiz-adv-x="662" 
d="M331 -17q-134 0 -221.5 76.5t-87.5 196.5t87 197t222 77t222 -76.5t87 -197.5q0 -120 -87 -196.5t-222 -76.5zM448 256q0 51 -33 83.5t-85 32.5q-51 0 -83.5 -32.5t-32.5 -83.5q0 -52 33 -83.5t84 -31.5q53 0 85 31.5t32 83.5z" />
    <glyph glyph-name="p" unicode="p" horiz-adv-x="682" 
d="M395 -17q-49 0 -91 18t-68 48v-304h-182v768h182v-58h2q22 35 63.5 55t92.5 20q107 0 182.5 -80t75.5 -195q0 -114 -74 -193t-183 -79zM464 256q0 51 -33 83.5t-85 32.5q-51 0 -83.5 -32.5t-32.5 -83.5q0 -52 32.5 -83.5t84.5 -31.5q53 0 85 31.5t32 83.5z" />
    <glyph glyph-name="q" unicode="q" horiz-adv-x="682" 
d="M446 455v58h182v-768h-182v304q-25 -31 -68 -48.5t-91 -17.5q-110 0 -183.5 78.5t-73.5 193.5q0 113 75 194t184 81q49 0 90.5 -19.5t64.5 -55.5h2zM452 256q0 52 -33 84t-85 32q-50 0 -83 -33t-33 -83q0 -51 32 -83t85 -32q51 0 84 31.5t33 83.5z" />
    <glyph glyph-name="r" unicode="r" horiz-adv-x="453" 
d="M445 345q-17 9 -33.5 13t-43.5 4q-66 0 -96 -37.5t-30 -113.5v-211h-182v513h182v-84h2q49 91 167 91h34v-175z" />
    <glyph glyph-name="s" unicode="s" horiz-adv-x="513" 
d="M292 530q96 0 168 -33l-61 -116q-21 11 -48 18t-50 7q-26 0 -41.5 -10.5t-15.5 -24.5q0 -13 8.5 -20.5t22.5 -12.5t51 -12q149 -27 149 -152q0 -56 -28.5 -99t-86.5 -67.5t-127 -24.5q-111 0 -207 59l66 127q34 -23 74 -37.5t69 -14.5q24 0 41 10.5t17 28.5t-18.5 29.5
t-55.5 18.5q-86 15 -120 49.5t-34 94.5q0 83 63 132.5t164 49.5z" />
    <glyph glyph-name="t" unicode="t" horiz-adv-x="360" 
d="M259 667v-154h103v-150h-103v-363h-182v363h-59v150h59v154h182z" />
    <glyph glyph-name="u" unicode="u" horiz-adv-x="659" 
d="M239 513v-278q0 -57 22 -82t69 -25t69 26t22 81v278h182v-313q0 -105 -67 -161t-206 -56q-273 0 -273 219v311h182z" />
    <glyph glyph-name="v" unicode="v" horiz-adv-x="623" 
d="M188 513l124 -263l122 263h204l-268 -513h-117l-268 513h203z" />
    <glyph glyph-name="w" unicode="w" horiz-adv-x="996" 
d="M187 513l127 -278l129 278h108l130 -278l129 278h201l-268 -513h-118l-127 281l-127 -281h-119l-267 513h202z" />
    <glyph glyph-name="x" unicode="x" horiz-adv-x="712" 
d="M264 513l91 -106l93 106h235l-212 -235l256 -278h-240l-132 152l-131 -152h-239l256 278l-208 235h231z" />
    <glyph glyph-name="y" unicode="y" horiz-adv-x="654" 
d="M194 513l138 -263l133 263h207l-410 -768h-204l174 325l-247 443h209z" />
    <glyph glyph-name="z" unicode="z" horiz-adv-x="559" 
d="M552 513l-240 -362h216v-151h-520l241 362h-209v151h512z" />
    <glyph glyph-name="braceleft" unicode="{" horiz-adv-x="352" 
d="M316 790v-120h-17q-32 0 -43 -11t-11 -44v-232q0 -42 -23.5 -68.5t-72.5 -34.5v-2q50 -5 73 -33.5t23 -81.5v-227q0 -32 10.5 -44t35.5 -12h25v-120h-98q-39 0 -75.5 44t-36.5 105v256q0 30 -14 46t-44 16h-12v104q43 0 56.5 14t13.5 39v256q0 63 37.5 106.5t79.5 43.5
h93z" />
    <glyph glyph-name="bar" unicode="|" horiz-adv-x="579" 
d="M365 786v-999h-150v999h150z" />
    <glyph glyph-name="braceright" unicode="}" horiz-adv-x="352" 
d="M132 790q39 0 76.5 -42.5t37.5 -107.5v-256q0 -53 60 -53h10v-104h-9q-32 0 -46.5 -14.5t-14.5 -49.5v-254q0 -63 -37 -106t-80 -43h-93v120h10q32 0 42 5t14.5 17t4.5 34v229q0 54 24 80.5t72 32.5v2q-96 16 -96 103v232q0 31 -10.5 43t-40.5 12h-20v120h96z" />
    <glyph glyph-name="asciitilde" unicode="~" 
d="M460 289q31 0 63 84l114 -97q-50 -85 -90 -120.5t-85 -35.5q-53 0 -131 53t-104 53q-27 0 -65 -84l-113 96q115 157 176 157q52 0 123 -53t112 -53z" />
    <glyph glyph-name="uni00A0" unicode="&#xa0;" horiz-adv-x="343" 
 />
    <glyph glyph-name="exclamdown" unicode="&#xa1;" horiz-adv-x="384" 
d="M192 298q-48 0 -82.5 34t-34.5 83q0 48 34.5 82.5t82.5 34.5t82.5 -34t34.5 -83q0 -48 -35 -82.5t-82 -34.5zM287 255v-498h-189v498h189z" />
    <glyph glyph-name="cent" unicode="&#xa2;" 
d="M487 743v-99l58 -17v-163q-40 38 -88 38q-54 0 -90 -34.5t-36 -87.5q0 -52 35 -87.5t85 -35.5q26 0 51.5 9t42.5 29v-163q-34 -13 -58 -16v-106h-93v99q-102 3 -177.5 83.5t-75.5 184.5q0 110 70 186t183 87v93h93z" />
    <glyph glyph-name="sterling" unicode="&#xa3;" 
d="M661 484h-194v39q0 35 -27 63t-64 28q-43 0 -69 -29.5t-26 -77.5q0 -71 41 -131h156v-76h-142q10 -29 10 -70q0 -34 -10 -64q39 -15 85.5 -26.5t73.5 -11.5q24 0 37.5 13t13.5 36h122q-7 -91 -55 -142t-129 -51q-46 0 -134.5 26.5t-129.5 26.5q-25 0 -42 -9.5t-22 -27.5
h-130q16 77 63 126.5t109 50.5q10 19 10 43q0 36 -28 80h-161v76h108q-36 59 -36 128q0 65 32.5 128.5t99.5 99.5t160 36q145 0 211 -67t67 -217z" />
    <glyph glyph-name="currency" unicode="&#xa4;" 
d="M178 606q32 24 76.5 38t91.5 14q46 0 88.5 -14t71.5 -38l67 67l62 -62l-62 -63q27 -37 40.5 -81t13.5 -87q0 -46 -16.5 -92t-39.5 -69l66 -66l-60 -65l-67 66q-27 -25 -71 -39.5t-93 -14.5q-103 0 -169 55l-66 -66l-62 63l66 66q-50 66 -50 160q0 47 12.5 91t37.5 74
l-66 67l62 63zM477 375q0 57 -38.5 95t-93.5 38q-54 0 -92 -38.5t-38 -94.5q0 -54 37 -89.5t94 -35.5q58 0 94.5 35t36.5 90z" />
    <glyph glyph-name="yen" unicode="&#xa5;" 
d="M210 754l132 -205l133 205h221l-154 -232h90v-76h-141l-56 -84h197v-76h-197v-286h-185v286h-200v76h200l-58 84h-142v76h93l-154 232h221z" />
    <glyph glyph-name="brokenbar" unicode="&#xa6;" horiz-adv-x="579" 
d="M365 661v-250h-150v250h150zM365 161v-249h-150v249h150z" />
    <glyph glyph-name="section" unicode="&#xa7;" 
d="M562 589h-157q-6 26 -24.5 43t-46.5 17q-25 0 -40.5 -14.5t-15.5 -36.5q0 -42 54 -69l136 -68l60 -31q29 -16 51.5 -37t36 -50t13.5 -71q0 -89 -84 -157q26 -23 38.5 -58t12.5 -73q0 -94 -74 -153.5t-187 -59.5q-119 0 -198 61.5t-79 156.5v14h183v-3q0 -35 30 -61
t68 -26q33 0 54.5 18.5t21.5 47.5q0 24 -15 39.5t-41 28.5l-186 91q-117 57 -117 165q0 90 86 163q-19 19 -32 52t-13 65q0 86 64.5 138.5t164.5 52.5q106 0 169.5 -49.5t66.5 -135.5zM258 283l193 -96q11 9 18.5 24.5t7.5 29.5q0 20 -14 36t-53 36l-170 86q-31 -20 -31 -54
q0 -38 49 -62z" />
    <glyph glyph-name="dieresis" unicode="&#xa8;" horiz-adv-x="604" 
d="M174 604q-41 0 -70 28.5t-29 69.5q0 40 28.5 69t70.5 29q41 0 69.5 -29t28.5 -69q0 -41 -28.5 -69.5t-69.5 -28.5zM430 604q-41 0 -70 28.5t-29 69.5q0 40 28.5 69t70.5 29q40 0 69 -28.5t29 -69.5t-29 -69.5t-69 -28.5z" />
    <glyph glyph-name="copyright" unicode="&#xa9;" horiz-adv-x="800" 
d="M796 376q0 -107 -53 -198.5t-145.5 -144.5t-197.5 -53q-106 0 -197.5 52t-145 143t-53.5 201q0 107 52.5 199.5t144 145.5t199.5 53q106 0 197.5 -53t145 -145t53.5 -200zM400 74q84 0 154 39.5t109 109t39 153.5q0 85 -40 155.5t-110 109.5t-154 39q-128 0 -214 -86
t-86 -218q0 -129 86 -215.5t216 -86.5zM602 459h-90q-6 35 -32.5 54t-65.5 19q-54 0 -88.5 -42.5t-34.5 -107.5q0 -63 36.5 -108t89.5 -45q37 0 64.5 21.5t30.5 55.5h90q-9 -69 -60.5 -111.5t-124.5 -42.5q-95 0 -157.5 65t-62.5 163q0 103 60.5 166t157.5 63q74 0 125 -41
t62 -109z" />
    <glyph glyph-name="ordfeminine" unicode="&#xaa;" horiz-adv-x="409" 
d="M281 764h118v-308h-118v34h-2q-14 -21 -41 -32.5t-59 -11.5q-70 0 -119 47t-49 117t48.5 117t118.5 47q30 0 57 -10t46 -30v30zM285 610q0 29 -22 49.5t-55 20.5q-31 0 -53 -21t-22 -49q0 -29 22.5 -49.5t53.5 -20.5q32 0 54 20t22 50z" />
    <glyph glyph-name="guillemotleft" unicode="&#xab;" horiz-adv-x="603" 
d="M298 497l-126 -177l129 -174l-103 -72l-172 246l172 246zM547 497l-126 -177l129 -174l-103 -72l-172 246l172 246z" />
    <glyph glyph-name="logicalnot" unicode="&#xac;" 
d="M599 452v-311h-150v161h-362v150h512z" />
    <glyph glyph-name="uni00AD" unicode="&#xad;" horiz-adv-x="392" 
d="M339 396v-150h-286v150h286z" />
    <glyph glyph-name="registered" unicode="&#xae;" horiz-adv-x="800" 
d="M796 376q0 -107 -54 -199t-146.5 -144.5t-195.5 -52.5q-106 0 -197.5 53.5t-145 145t-53.5 197.5q0 109 55 201.5t146 144.5t195 52q106 0 197 -54t145 -146t54 -198zM400 74q83 0 153 40t109.5 109.5t39.5 152.5q0 128 -87 216t-217 88q-84 0 -153 -39.5t-108 -110
t-39 -154.5t39.5 -153.5t109 -109t153.5 -39.5zM447 587q84 0 119.5 -28.5t35.5 -97.5q0 -53 -26.5 -80.5t-84.5 -31.5h-1l100 -174h-100l-92 174h-64v-174h-92v412h205zM447 411q38 0 53.5 14t15.5 48q0 23 -20 32.5t-68 9.5h-94v-104h113z" />
    <glyph glyph-name="macron" unicode="&#xaf;" horiz-adv-x="603" 
d="M527 752v-107h-452v107h452z" />
    <glyph glyph-name="degree" unicode="&#xb0;" horiz-adv-x="400" 
d="M196 474q-59 0 -103 42t-44 112q0 60 44 103t105 43q62 0 106.5 -45t44.5 -106t-44.5 -105t-108.5 -44zM264 624q0 26 -19 45.5t-47 19.5q-26 0 -45 -18.5t-19 -45.5q0 -28 19 -47t47 -19q27 0 45.5 19.5t18.5 45.5z" />
    <glyph glyph-name="plusminus" unicode="&#xb1;" 
d="M418 654v-142h181v-150h-181v-142h-150v142h-181v150h181v142h150zM599 150v-150h-512v150h512z" />
    <glyph glyph-name="twosuperior" unicode="&#xb2;" horiz-adv-x="412" 
d="M392 623q0 -43 -17 -74t-60 -68l-78 -68h160v-99h-394l201 201q54 54 56 110q0 23 -16.5 41t-39.5 18q-26 0 -40 -16t-14 -39l2 -19h-140q4 80 55.5 127t135.5 47q82 0 135.5 -45.5t53.5 -115.5z" />
    <glyph glyph-name="threesuperior" unicode="&#xb3;" horiz-adv-x="412" 
d="M315 560q35 -8 57.5 -40.5t22.5 -74.5q0 -66 -54 -107t-136 -41q-60 0 -106 23.5t-71 64t-25 70.5v6h130q0 -26 18.5 -44.5t49.5 -18.5q29 0 48.5 16t19.5 44q0 25 -20.5 42.5t-46.5 17.5q-7 0 -23 -3v78h12q26 0 41.5 13.5t15.5 36.5q0 21 -14 33t-36 12
q-24 0 -38 -15.5t-14 -36.5h-118q9 72 57.5 110t124.5 38q70 0 113.5 -36t43.5 -95q0 -32 -14.5 -57t-37.5 -36z" />
    <glyph glyph-name="acute" unicode="&#xb4;" horiz-adv-x="402" 
d="M327 740l-171 -151l-81 59l141 172z" />
    <glyph glyph-name="mu" unicode="&#xb5;" horiz-adv-x="659" 
d="M239 513v-274q0 -24 3.5 -44.5t13.5 -35.5t28 -23t46 -8t46 8t28 23t13.5 35.5t3.5 44.5v274h182v-309q0 -65 -23 -108t-58 -68t-76 -35t-76 -10q-48 0 -81 16t-50 33v-288h-182v769h182z" />
    <glyph glyph-name="paragraph" unicode="&#xb6;" 
d="M636 754v-91h-66v-832h-101v831h-93v-831h-101v459q-128 14 -180 81t-52 154q0 56 30.5 109.5t81.5 86.5t101 33h380z" />
    <glyph glyph-name="periodcentered" unicode="&#xb7;" horiz-adv-x="343" 
d="M172 139q-49 0 -83 34t-34 83q0 48 34 82.5t83 34.5t83 -33.5t34 -83.5q0 -48 -34.5 -82.5t-82.5 -34.5z" />
    <glyph glyph-name="cedilla" unicode="&#xb8;" horiz-adv-x="380" 
d="M304 -94l-151 -142l-78 48l130 159z" />
    <glyph glyph-name="onesuperior" unicode="&#xb9;" horiz-adv-x="412" 
d="M290 766v-452h-127v353h-70v99h197z" />
    <glyph glyph-name="ordmasculine" unicode="&#xba;" horiz-adv-x="410" 
d="M205 446q-88 0 -144 45t-56 119q0 73 56 118.5t144 45.5t144.5 -45.5t56.5 -118.5q0 -72 -56 -118t-145 -46zM281 610q0 28 -22 48.5t-54 20.5t-53.5 -20t-21.5 -49q0 -30 22.5 -49.5t52.5 -19.5q32 0 54 20t22 49z" />
    <glyph glyph-name="guillemotright" unicode="&#xbb;" horiz-adv-x="603" 
d="M156 566l172 -246l-172 -246l-103 72l129 174l-126 177zM405 566l172 -246l-172 -246l-103 72l129 174l-126 177z" />
    <glyph glyph-name="onequarter" unicode="&#xbc;" horiz-adv-x="1029" 
d="M297 754v-452h-127v353h-70v99h197zM743 754l-438 -754h-98l438 754h98zM870 452v-268h59v-90h-59v-94h-118v94h-238v75l189 283h167zM750 357l-114 -174h116v174h-2z" />
    <glyph glyph-name="onehalf" unicode="&#xbd;" horiz-adv-x="1029" 
d="M297 755v-452h-127v353h-70v99h197zM715 754l-438 -754h-98l438 754h98zM924 311q0 -43 -17 -74t-60 -68l-78 -68h160v-99h-394l201 201q54 54 56 110q0 23 -16.5 41t-39.5 18q-26 0 -40 -16t-14 -39l2 -19h-140q4 80 55.5 127t135.5 47q82 0 135.5 -45.5t53.5 -115.5z
" />
    <glyph glyph-name="threequarters" unicode="&#xbe;" horiz-adv-x="1029" 
d="M828 754l-438 -754h-98l438 754h98zM919 452v-268h59v-90h-59v-94h-118v94h-238v75l189 283h167zM799 357l-114 -174h116v174h-2zM361 530q34 -8 57 -40.5t23 -74.5q0 -67 -54.5 -107.5t-135.5 -40.5q-60 0 -106 23.5t-71 64.5t-25 70v6h130q0 -27 19 -45t49 -18
q29 0 48.5 16t19.5 44q0 25 -20.5 42.5t-46.5 17.5q-7 0 -23 -3v78h12q26 0 41.5 13t15.5 37q0 21 -14 33t-36 12q-24 0 -38 -15.5t-14 -36.5h-118q8 69 55.5 108.5t126.5 39.5q70 0 113.5 -36t43.5 -95q0 -32 -14.5 -57t-37.5 -36z" />
    <glyph glyph-name="questiondown" unicode="&#xbf;" horiz-adv-x="595" 
d="M314 298q-47 0 -82 35t-35 82q0 49 34.5 83t82.5 34t82.5 -34t34.5 -83q0 -48 -35 -82.5t-82 -34.5zM409 258v-194q-24 5 -42 5q-55 0 -92 -29t-37 -69q0 -32 21.5 -53.5t51.5 -21.5q31 0 50.5 19.5t19.5 56.5h199q0 -103 -78.5 -169.5t-195.5 -66.5q-113 0 -187 74
t-74 162q0 74 45.5 130t135.5 85v71h183z" />
    <glyph glyph-name="Agrave" unicode="&#xc0;" horiz-adv-x="781" 
d="M500 754l284 -754h-209l-50 131h-270l-51 -131h-208l290 754h214zM310 281h163l-82 240zM356 1031l141 -172l-81 -59l-171 151z" />
    <glyph glyph-name="Aacute" unicode="&#xc1;" horiz-adv-x="781" 
d="M500 754l284 -754h-209l-50 131h-270l-51 -131h-208l290 754h214zM310 281h163l-82 240zM537 951l-171 -151l-81 59l141 172z" />
    <glyph glyph-name="Acircumflex" unicode="&#xc2;" horiz-adv-x="781" 
d="M500 754l284 -754h-209l-50 131h-270l-51 -131h-208l290 754h214zM310 281h163l-82 240zM389 1040l221 -164l-77 -84l-144 111l-144 -111l-74 84z" />
    <glyph glyph-name="Atilde" unicode="&#xc3;" horiz-adv-x="781" 
d="M500 754l284 -754h-209l-50 131h-270l-51 -131h-208l290 754h214zM310 281h163l-82 240zM590 985q-7 -73 -42.5 -115.5t-87.5 -42.5q-27 0 -77 18.5t-75 18.5q-22 0 -29 -23l-5 -14h-82l-1 12q0 63 33.5 103.5t78.5 40.5q27 0 85 -17t77 -17q15 0 23.5 7.5t16.5 28.5h85z
" />
    <glyph glyph-name="Adieresis" unicode="&#xc4;" horiz-adv-x="781" 
d="M500 754l284 -754h-209l-50 131h-270l-51 -131h-208l290 754h214zM310 281h163l-82 240zM263 815q-43 0 -71 28t-28 70q0 41 28.5 69.5t70.5 28.5t70 -28.5t28 -69.5t-28.5 -69.5t-69.5 -28.5zM519 815q-42 0 -70.5 28t-28.5 70t28.5 70t70.5 28t70 -29t28 -69
q0 -42 -28 -70t-70 -28z" />
    <glyph glyph-name="Aring" unicode="&#xc5;" horiz-adv-x="781" 
d="M500 754l284 -754h-209l-50 131h-270l-51 -131h-208l290 754h214zM310 281h163l-82 240zM392 782q-73 0 -114 30t-41 84q0 55 40.5 85.5t111.5 30.5q74 0 114.5 -30t40.5 -85q0 -54 -40.5 -84.5t-111.5 -30.5zM449 897q0 21 -16 32t-42 11q-27 0 -43 -11.5t-16 -31.5
t16 -31.5t43 -11.5q26 0 42 11.5t16 31.5z" />
    <glyph glyph-name="AE" unicode="&#xc6;" horiz-adv-x="1026" 
d="M749 754l61 -166h-248l45 -126h247l63 -166h-249l49 -130h248l60 -166h-454l-49 131h-272l-47 -131h-207l291 754h462zM304 281h166l-81 224z" />
    <glyph glyph-name="Ccedilla" unicode="&#xc7;" horiz-adv-x="660" 
d="M603 501q-28 38 -73 60.5t-99 22.5q-86 0 -143.5 -59.5t-57.5 -149.5t56.5 -147.5t147.5 -57.5q47 0 92.5 22t76.5 58v-235q-75 -22 -105 -28.5t-68 -6.5q-159 0 -281.5 109.5t-122.5 286.5q0 109 54 201t146 144.5t198 52.5q85 0 179 -38v-235zM469 -94l-151 -142
l-78 48l130 159z" />
    <glyph glyph-name="Egrave" unicode="&#xc8;" horiz-adv-x="550" 
d="M493 754v-166h-233v-126h221v-166h-221v-130h233v-166h-429v754h429zM260 1031l141 -172l-81 -59l-171 151z" />
    <glyph glyph-name="Eacute" unicode="&#xc9;" horiz-adv-x="550" 
d="M493 754v-166h-233v-126h221v-166h-221v-130h233v-166h-429v754h429zM401 951l-171 -151l-81 59l141 172z" />
    <glyph glyph-name="Ecircumflex" unicode="&#xca;" horiz-adv-x="550" 
d="M493 754v-166h-233v-126h221v-166h-221v-130h233v-166h-429v754h429zM275 1040l221 -164l-77 -84l-144 111l-144 -111l-74 84z" />
    <glyph glyph-name="Edieresis" unicode="&#xcb;" horiz-adv-x="550" 
d="M493 754v-166h-233v-126h221v-166h-221v-130h233v-166h-429v754h429zM149 815q-43 0 -71 28t-28 70q0 41 28.5 69.5t70.5 28.5t70 -28.5t28 -69.5t-28.5 -69.5t-69.5 -28.5zM405 815q-42 0 -70.5 28t-28.5 70t28.5 70t70.5 28t70 -29t28 -69q0 -42 -28 -70t-70 -28z" />
    <glyph glyph-name="Igrave" unicode="&#xcc;" horiz-adv-x="324" 
d="M260 754v-754h-196v754h196zM134 1031l141 -172l-81 -59l-171 151z" />
    <glyph glyph-name="Iacute" unicode="&#xcd;" horiz-adv-x="324" 
d="M260 754v-754h-196v754h196zM305 951l-171 -151l-81 59l141 172z" />
    <glyph glyph-name="Icircumflex" unicode="&#xce;" horiz-adv-x="324" 
d="M260 754v-754h-196v754h196zM177 1040l221 -164l-77 -84l-144 111l-144 -111l-74 84z" />
    <glyph glyph-name="Idieresis" unicode="&#xcf;" horiz-adv-x="324" 
d="M260 754v-754h-196v754h196zM36 815q-43 0 -71 28t-28 70q0 41 28.5 69.5t70.5 28.5t70 -28.5t28 -69.5t-28.5 -69.5t-69.5 -28.5zM292 815q-42 0 -70.5 28t-28.5 70t28.5 70t70.5 28t70 -29t28 -69q0 -42 -28 -70t-70 -28z" />
    <glyph glyph-name="Eth" unicode="&#xd0;" horiz-adv-x="752" 
d="M346 754q104 0 192 -53t137.5 -139.5t49.5 -184.5q0 -101 -50.5 -188t-138.5 -138t-190 -51h-283v309h-83v154h83v291h283zM259 463h111v-154h-111v-143h21q90 0 137.5 24t75.5 70t28 117q0 96 -58 153.5t-151 57.5h-53v-125z" />
    <glyph glyph-name="Ntilde" unicode="&#xd1;" horiz-adv-x="881" 
d="M260 754l361 -461v461h196v-754h-196l-361 462v-462h-196v754h196zM640 985q-7 -73 -42.5 -115.5t-87.5 -42.5q-27 0 -77 18.5t-75 18.5q-22 0 -29 -23l-5 -14h-82l-1 12q0 63 33.5 103.5t78.5 40.5q27 0 85 -17t77 -17q15 0 23.5 7.5t16.5 28.5h85z" />
    <glyph glyph-name="Ograve" unicode="&#xd2;" horiz-adv-x="887" 
d="M449 -24q-122 0 -218 51.5t-150.5 146.5t-54.5 206q0 112 53 202t153 143.5t211 53.5q110 0 208 -52.5t153.5 -140.5t55.5 -195q0 -120 -53 -214t-148.5 -147.5t-209.5 -53.5zM656 390q0 79 -64.5 139t-149.5 60q-83 0 -147.5 -59.5t-64.5 -139.5q0 -96 62.5 -160.5
t150.5 -64.5q90 0 151.5 66t61.5 159zM409 1031l141 -172l-81 -59l-171 151z" />
    <glyph glyph-name="Oacute" unicode="&#xd3;" horiz-adv-x="887" 
d="M449 -24q-122 0 -218 51.5t-150.5 146.5t-54.5 206q0 112 53 202t153 143.5t211 53.5q110 0 208 -52.5t153.5 -140.5t55.5 -195q0 -120 -53 -214t-148.5 -147.5t-209.5 -53.5zM656 390q0 79 -64.5 139t-149.5 60q-83 0 -147.5 -59.5t-64.5 -139.5q0 -96 62.5 -160.5
t150.5 -64.5q90 0 151.5 66t61.5 159zM590 951l-171 -151l-81 59l141 172z" />
    <glyph glyph-name="Ocircumflex" unicode="&#xd4;" horiz-adv-x="887" 
d="M449 -24q-122 0 -218 51.5t-150.5 146.5t-54.5 206q0 112 53 202t153 143.5t211 53.5q110 0 208 -52.5t153.5 -140.5t55.5 -195q0 -120 -53 -214t-148.5 -147.5t-209.5 -53.5zM656 390q0 79 -64.5 139t-149.5 60q-83 0 -147.5 -59.5t-64.5 -139.5q0 -96 62.5 -160.5
t150.5 -64.5q90 0 151.5 66t61.5 159zM442 1040l221 -164l-77 -84l-144 111l-144 -111l-74 84z" />
    <glyph glyph-name="Otilde" unicode="&#xd5;" horiz-adv-x="887" 
d="M449 -24q-122 0 -218 51.5t-150.5 146.5t-54.5 206q0 112 53 202t153 143.5t211 53.5q110 0 208 -52.5t153.5 -140.5t55.5 -195q0 -120 -53 -214t-148.5 -147.5t-209.5 -53.5zM656 390q0 79 -64.5 139t-149.5 60q-83 0 -147.5 -59.5t-64.5 -139.5q0 -96 62.5 -160.5
t150.5 -64.5q90 0 151.5 66t61.5 159zM643 985q-7 -73 -42.5 -115.5t-87.5 -42.5q-27 0 -77 18.5t-75 18.5q-22 0 -29 -23l-5 -14h-82l-1 12q0 63 33.5 103.5t78.5 40.5q27 0 85 -17t77 -17q15 0 23.5 7.5t16.5 28.5h85z" />
    <glyph glyph-name="Odieresis" unicode="&#xd6;" horiz-adv-x="887" 
d="M449 -24q-122 0 -218 51.5t-150.5 146.5t-54.5 206q0 112 53 202t153 143.5t211 53.5q110 0 208 -52.5t153.5 -140.5t55.5 -195q0 -120 -53 -214t-148.5 -147.5t-209.5 -53.5zM656 390q0 79 -64.5 139t-149.5 60q-83 0 -147.5 -59.5t-64.5 -139.5q0 -96 62.5 -160.5
t150.5 -64.5q90 0 151.5 66t61.5 159zM316 815q-43 0 -71 28t-28 70q0 41 28.5 69.5t70.5 28.5t70 -28.5t28 -69.5t-28.5 -69.5t-69.5 -28.5zM572 815q-42 0 -70.5 28t-28.5 70t28.5 70t70.5 28t70 -29t28 -69q0 -42 -28 -70t-70 -28z" />
    <glyph glyph-name="multiply" unicode="&#xd7;" 
d="M598 407l-149 -151l150 -150l-106 -106l-150 150l-150 -150l-106 106l151 150l-151 151l106 106l150 -152l149 152z" />
    <glyph glyph-name="Oslash" unicode="&#xd8;" horiz-adv-x="887" 
d="M788 794l78 -80l-90 -89q84 -101 84 -234q0 -180 -117.5 -297.5t-293.5 -117.5q-150 0 -257 76l-93 -92l-78 80l90 89q-85 113 -85 262q0 105 54.5 193.5t153 141.5t209.5 53q69 0 134 -21t116 -57zM550 560q-53 29 -108 29q-84 0 -148 -60.5t-64 -138.5q0 -61 30 -115z
M337 194q47 -29 106 -29q89 0 151 65.5t62 159.5q0 49 -26 91z" />
    <glyph glyph-name="Ugrave" unicode="&#xd9;" horiz-adv-x="778" 
d="M256 754v-404q0 -115 33 -156.5t100 -41.5q66 0 99.5 42t33.5 155v405h196v-433q0 -129 -32 -194.5t-109 -106t-188 -40.5t-187.5 40t-109 106.5t-32.5 194.5v433h196zM354 1031l141 -172l-81 -59l-171 151z" />
    <glyph glyph-name="Uacute" unicode="&#xda;" horiz-adv-x="778" 
d="M256 754v-404q0 -115 33 -156.5t100 -41.5q66 0 99.5 42t33.5 155v405h196v-433q0 -129 -32 -194.5t-109 -106t-188 -40.5t-187.5 40t-109 106.5t-32.5 194.5v433h196zM535 951l-171 -151l-81 59l141 172z" />
    <glyph glyph-name="Ucircumflex" unicode="&#xdb;" horiz-adv-x="778" 
d="M256 754v-404q0 -115 33 -156.5t100 -41.5q66 0 99.5 42t33.5 155v405h196v-433q0 -129 -32 -194.5t-109 -106t-188 -40.5t-187.5 40t-109 106.5t-32.5 194.5v433h196zM387 1040l221 -164l-77 -84l-144 111l-144 -111l-74 84z" />
    <glyph glyph-name="Udieresis" unicode="&#xdc;" horiz-adv-x="778" 
d="M256 754v-404q0 -115 33 -156.5t100 -41.5q66 0 99.5 42t33.5 155v405h196v-433q0 -129 -32 -194.5t-109 -106t-188 -40.5t-187.5 40t-109 106.5t-32.5 194.5v433h196zM261 815q-43 0 -71 28t-28 70q0 41 28.5 69.5t70.5 28.5t70 -28.5t28 -69.5t-28.5 -69.5t-69.5 -28.5
zM517 815q-42 0 -70.5 28t-28.5 70t28.5 70t70.5 28t70 -29t28 -69q0 -42 -28 -70t-70 -28z" />
    <glyph glyph-name="Yacute" unicode="&#xdd;" horiz-adv-x="714" 
d="M215 754l141 -205l142 205h234l-277 -392v-362h-197v362l-277 392h234zM523 951l-171 -151l-81 59l141 172z" />
    <glyph glyph-name="Thorn" unicode="&#xde;" horiz-adv-x="661" 
d="M260 754v-120h108q129 0 199.5 -64.5t70.5 -183.5q0 -128 -67 -192t-196 -64h-115v-130h-196v754h196zM260 288h18l57 1q28 1 50 9t35.5 27t13.5 55q0 37 -13 57.5t-38.5 29.5t-94.5 9h-28v-188z" />
    <glyph glyph-name="germandbls" unicode="&#xdf;" horiz-adv-x="651" 
d="M569 619q0 -50 -21 -86t-68 -71q80 -32 114.5 -81t34.5 -131q0 -119 -72.5 -193t-228.5 -74h-33v155h9q56 0 91 33.5t35 87.5q0 52 -35.5 87t-88.5 35h-11v145h8q43 0 67 20.5t24 60.5q0 34 -20 55t-56 21q-38 0 -57 -22.5t-19 -86.5v-574h-182v297h-52v145h52v153
q0 134 74 189.5t186 55.5q110 0 179.5 -59.5t69.5 -161.5z" />
    <glyph glyph-name="agrave" unicode="&#xe0;" horiz-adv-x="682" 
d="M439 513h182v-513h-182v57h-2q-23 -36 -63.5 -55t-91.5 -19q-107 0 -183 78.5t-76 195.5q0 115 74.5 194t182.5 79q46 0 88 -17t71 -50v50zM445 256q0 51 -33 83.5t-85 32.5q-51 0 -83.5 -32.5t-32.5 -83.5q0 -52 32.5 -83.5t84.5 -31.5t84.5 31.5t32.5 83.5zM326 820
l141 -172l-81 -59l-171 151z" />
    <glyph glyph-name="aacute" unicode="&#xe1;" horiz-adv-x="682" 
d="M439 513h182v-513h-182v57h-2q-23 -36 -63.5 -55t-91.5 -19q-107 0 -183 78.5t-76 195.5q0 115 74.5 194t182.5 79q46 0 88 -17t71 -50v50zM445 256q0 51 -33 83.5t-85 32.5q-51 0 -83.5 -32.5t-32.5 -83.5q0 -52 32.5 -83.5t84.5 -31.5t84.5 31.5t32.5 83.5zM487 740
l-171 -151l-81 59l141 172z" />
    <glyph glyph-name="acircumflex" unicode="&#xe2;" horiz-adv-x="682" 
d="M439 513h182v-513h-182v57h-2q-23 -36 -63.5 -55t-91.5 -19q-107 0 -183 78.5t-76 195.5q0 115 74.5 194t182.5 79q46 0 88 -17t71 -50v50zM445 256q0 51 -33 83.5t-85 32.5q-51 0 -83.5 -32.5t-32.5 -83.5q0 -52 32.5 -83.5t84.5 -31.5t84.5 31.5t32.5 83.5zM339 829
l221 -164l-77 -84l-144 111l-144 -111l-74 84z" />
    <glyph glyph-name="atilde" unicode="&#xe3;" horiz-adv-x="682" 
d="M439 513h182v-513h-182v57h-2q-23 -36 -63.5 -55t-91.5 -19q-107 0 -183 78.5t-76 195.5q0 115 74.5 194t182.5 79q46 0 88 -17t71 -50v50zM445 256q0 51 -33 83.5t-85 32.5q-51 0 -83.5 -32.5t-32.5 -83.5q0 -52 32.5 -83.5t84.5 -31.5t84.5 31.5t32.5 83.5zM541 774
q-7 -73 -42.5 -115.5t-87.5 -42.5q-27 0 -77 18.5t-75 18.5q-22 0 -29 -23l-5 -14h-82l-1 12q0 63 33.5 103.5t78.5 40.5q25 0 85 -17t77 -17q15 0 23.5 7.5t16.5 28.5h85z" />
    <glyph glyph-name="adieresis" unicode="&#xe4;" horiz-adv-x="682" 
d="M439 513h182v-513h-182v57h-2q-23 -36 -63.5 -55t-91.5 -19q-107 0 -183 78.5t-76 195.5q0 115 74.5 194t182.5 79q46 0 88 -17t71 -50v50zM445 256q0 51 -33 83.5t-85 32.5q-51 0 -83.5 -32.5t-32.5 -83.5q0 -52 32.5 -83.5t84.5 -31.5t84.5 31.5t32.5 83.5zM213 604
q-41 0 -70 28.5t-29 69.5q0 40 28.5 69t70.5 29q41 0 69.5 -29t28.5 -69q0 -41 -28.5 -69.5t-69.5 -28.5zM469 604q-41 0 -70 28.5t-29 69.5q0 40 28.5 69t70.5 29q40 0 69 -28.5t29 -69.5t-29 -69.5t-69 -28.5z" />
    <glyph glyph-name="aring" unicode="&#xe5;" horiz-adv-x="682" 
d="M439 513h182v-513h-182v57h-2q-23 -36 -63.5 -55t-91.5 -19q-107 0 -183 78.5t-76 195.5q0 115 74.5 194t182.5 79q46 0 88 -17t71 -50v50zM445 256q0 51 -33 83.5t-85 32.5q-51 0 -83.5 -32.5t-32.5 -83.5q0 -52 32.5 -83.5t84.5 -31.5t84.5 31.5t32.5 83.5zM343 585
q-74 0 -114.5 30.5t-40.5 83.5q0 55 40.5 85.5t111.5 30.5q73 0 114 -30.5t41 -84.5t-41 -84.5t-111 -30.5zM400 700q0 21 -16 32t-42 11t-42.5 -11t-16.5 -32q0 -20 16 -31.5t43 -11.5q26 0 42 11.5t16 31.5z" />
    <glyph glyph-name="ae" unicode="&#xe6;" horiz-adv-x="940" 
d="M444 439q28 42 80 66.5t114 24.5q130 0 205 -75.5t75 -210.5v-18h-383q0 -114 114 -114q29 0 50.5 10.5t36.5 36.5h175q-17 -80 -88.5 -128t-172.5 -48q-76 0 -131 27t-75 74q-39 -49 -94 -75t-114 -26q-89 0 -152 46.5t-63 118.5q0 80 57 125.5t154 45.5q73 0 135 -26
v13q0 45 -30.5 68.5t-91.5 23.5q-59 0 -143 -28v136q88 24 149 24q71 0 122 -24.5t71 -66.5zM752 331q-7 38 -36 59.5t-68 21.5q-40 0 -69.5 -21.5t-37.5 -59.5h211zM371 162q0 26 -27 41t-70 15q-32 0 -54 -15.5t-22 -39.5q0 -25 22 -40t60 -15q37 0 64 15.5t27 38.5z" />
    <glyph glyph-name="ccedilla" unicode="&#xe7;" horiz-adv-x="483" 
d="M430 346q-51 36 -94 36q-52 0 -88.5 -36.5t-36.5 -88.5q0 -55 35.5 -90.5t92.5 -35.5q25 0 49.5 9.5t41.5 25.5v-154q-59 -29 -128 -29q-75 0 -140 35.5t-102 97.5t-37 135q0 122 82 200.5t205 78.5q30 0 58.5 -6.5t61.5 -23.5v-154zM356 -94l-151 -142l-78 48l130 159z
" />
    <glyph glyph-name="egrave" unicode="&#xe8;" horiz-adv-x="610" 
d="M204 226q0 -114 114 -114q29 0 50.5 10.5t36.5 36.5h175q-18 -79 -88.5 -127.5t-173.5 -48.5q-135 0 -215.5 74.5t-80.5 198.5q0 123 77.5 198.5t206.5 75.5q133 0 207 -76t74 -213v-15h-383zM418 331q-7 37 -36.5 59t-67.5 22q-40 0 -69.5 -21.5t-37.5 -59.5h211z
M265 820l141 -172l-81 -59l-171 151z" />
    <glyph glyph-name="eacute" unicode="&#xe9;" horiz-adv-x="610" 
d="M204 226q0 -114 114 -114q29 0 50.5 10.5t36.5 36.5h175q-18 -79 -88.5 -127.5t-173.5 -48.5q-135 0 -215.5 74.5t-80.5 198.5q0 123 77.5 198.5t206.5 75.5q133 0 207 -76t74 -213v-15h-383zM418 331q-7 37 -36.5 59t-67.5 22q-40 0 -69.5 -21.5t-37.5 -59.5h211z
M456 740l-171 -151l-81 59l141 172z" />
    <glyph glyph-name="ecircumflex" unicode="&#xea;" horiz-adv-x="610" 
d="M204 226q0 -114 114 -114q29 0 50.5 10.5t36.5 36.5h175q-18 -79 -88.5 -127.5t-173.5 -48.5q-135 0 -215.5 74.5t-80.5 198.5q0 123 77.5 198.5t206.5 75.5q133 0 207 -76t74 -213v-15h-383zM418 331q-7 37 -36.5 59t-67.5 22q-40 0 -69.5 -21.5t-37.5 -59.5h211z
M302 829l221 -164l-77 -84l-144 111l-144 -111l-74 84z" />
    <glyph glyph-name="edieresis" unicode="&#xeb;" horiz-adv-x="610" 
d="M204 226q0 -114 114 -114q29 0 50.5 10.5t36.5 36.5h175q-18 -79 -88.5 -127.5t-173.5 -48.5q-135 0 -215.5 74.5t-80.5 198.5q0 123 77.5 198.5t206.5 75.5q133 0 207 -76t74 -213v-15h-383zM418 331q-7 37 -36.5 59t-67.5 22q-40 0 -69.5 -21.5t-37.5 -59.5h211z
M177 604q-41 0 -70 28.5t-29 69.5q0 40 28.5 69t70.5 29q41 0 69.5 -29t28.5 -69q0 -41 -28.5 -69.5t-69.5 -28.5zM433 604q-41 0 -70 28.5t-29 69.5q0 40 28.5 69t70.5 29q40 0 69 -28.5t29 -69.5t-29 -69.5t-69 -28.5z" />
    <glyph glyph-name="igrave" unicode="&#xec;" horiz-adv-x="302" 
d="M242 513v-513h-182v513h182zM123 820l141 -172l-81 -59l-171 151z" />
    <glyph glyph-name="iacute" unicode="&#xed;" horiz-adv-x="302" 
d="M242 513v-513h-182v513h182zM294 740l-171 -151l-81 59l141 172z" />
    <glyph glyph-name="icircumflex" unicode="&#xee;" horiz-adv-x="302" 
d="M242 513v-513h-182v513h182zM151 829l221 -164l-77 -84l-144 111l-144 -111l-74 84z" />
    <glyph glyph-name="idieresis" unicode="&#xef;" horiz-adv-x="302" 
d="M242 513v-513h-182v513h182zM25 604q-41 0 -70 28.5t-29 69.5q0 40 28.5 69t70.5 29q41 0 69.5 -29t28.5 -69q0 -41 -28.5 -69.5t-69.5 -28.5zM281 604q-41 0 -70 28.5t-29 69.5q0 40 28.5 69t70.5 29q40 0 69 -28.5t29 -69.5t-29 -69.5t-69 -28.5z" />
    <glyph glyph-name="eth" unicode="&#xf0;" horiz-adv-x="662" 
d="M147 848q118 -55 158 -83l127 67l65 -73l-104 -55q115 -96 161 -158t66 -121.5t20 -127.5q0 -143 -86 -228.5t-228 -85.5q-123 0 -213.5 74.5t-90.5 197.5q0 117 84 190t183 73q37 0 65 -6q-50 61 -113 112l-130 -69l-66 71l109 58q-56 36 -113 60zM448 256
q0 51 -33 83.5t-85 32.5q-51 0 -83.5 -32.5t-32.5 -83.5q0 -52 33 -83.5t84 -31.5q53 0 85 31.5t32 83.5z" />
    <glyph glyph-name="ntilde" unicode="&#xf1;" horiz-adv-x="661" 
d="M601 0h-182v282q0 49 -18.5 76t-63.5 27q-46 0 -70.5 -30t-24.5 -86v-269h-182v513h182v-66h2q31 45 70.5 64t93.5 19q94 0 143.5 -54.5t49.5 -154.5v-321zM530 774q-7 -73 -42.5 -115.5t-87.5 -42.5q-27 0 -77 18.5t-75 18.5q-22 0 -29 -23l-5 -14h-82l-1 12
q0 63 33.5 103.5t78.5 40.5q25 0 85 -17t77 -17q15 0 23.5 7.5t16.5 28.5h85z" />
    <glyph glyph-name="ograve" unicode="&#xf2;" horiz-adv-x="662" 
d="M331 -17q-134 0 -221.5 76.5t-87.5 196.5t87 197t222 77t222 -76.5t87 -197.5q0 -120 -87 -196.5t-222 -76.5zM448 256q0 51 -33 83.5t-85 32.5q-51 0 -83.5 -32.5t-32.5 -83.5q0 -52 33 -83.5t84 -31.5q53 0 85 31.5t32 83.5zM291 820l141 -172l-81 -59l-171 151z" />
    <glyph glyph-name="oacute" unicode="&#xf3;" horiz-adv-x="662" 
d="M331 -17q-134 0 -221.5 76.5t-87.5 196.5t87 197t222 77t222 -76.5t87 -197.5q0 -120 -87 -196.5t-222 -76.5zM448 256q0 51 -33 83.5t-85 32.5q-51 0 -83.5 -32.5t-32.5 -83.5q0 -52 33 -83.5t84 -31.5q53 0 85 31.5t32 83.5zM482 740l-171 -151l-81 59l141 172z" />
    <glyph glyph-name="ocircumflex" unicode="&#xf4;" horiz-adv-x="662" 
d="M331 -17q-134 0 -221.5 76.5t-87.5 196.5t87 197t222 77t222 -76.5t87 -197.5q0 -120 -87 -196.5t-222 -76.5zM448 256q0 51 -33 83.5t-85 32.5q-51 0 -83.5 -32.5t-32.5 -83.5q0 -52 33 -83.5t84 -31.5q53 0 85 31.5t32 83.5zM329 829l221 -164l-77 -84l-144 111
l-144 -111l-74 84z" />
    <glyph glyph-name="otilde" unicode="&#xf5;" horiz-adv-x="662" 
d="M331 -17q-134 0 -221.5 76.5t-87.5 196.5t87 197t222 77t222 -76.5t87 -197.5q0 -120 -87 -196.5t-222 -76.5zM448 256q0 51 -33 83.5t-85 32.5q-51 0 -83.5 -32.5t-32.5 -83.5q0 -52 33 -83.5t84 -31.5q53 0 85 31.5t32 83.5zM531 774q-7 -73 -42.5 -115.5t-87.5 -42.5
q-27 0 -77 18.5t-75 18.5q-22 0 -29 -23l-5 -14h-82l-1 12q0 63 33.5 103.5t78.5 40.5q25 0 85 -17t77 -17q15 0 23.5 7.5t16.5 28.5h85z" />
    <glyph glyph-name="odieresis" unicode="&#xf6;" horiz-adv-x="662" 
d="M331 -17q-134 0 -221.5 76.5t-87.5 196.5t87 197t222 77t222 -76.5t87 -197.5q0 -120 -87 -196.5t-222 -76.5zM448 256q0 51 -33 83.5t-85 32.5q-51 0 -83.5 -32.5t-32.5 -83.5q0 -52 33 -83.5t84 -31.5q53 0 85 31.5t32 83.5zM203 604q-41 0 -70 28.5t-29 69.5
q0 40 28.5 69t70.5 29q41 0 69.5 -29t28.5 -69q0 -41 -28.5 -69.5t-69.5 -28.5zM459 604q-41 0 -70 28.5t-29 69.5q0 40 28.5 69t70.5 29q40 0 69 -28.5t29 -69.5t-29 -69.5t-69 -28.5z" />
    <glyph glyph-name="divide" unicode="&#xf7;" 
d="M343 387q-30 0 -51 20.5t-21 51.5q0 30 20.5 51t51.5 21q30 0 51 -21t21 -51t-21 -51t-51 -21zM599 332v-150h-512v150h512zM343 -17q-30 0 -51 21t-21 51q0 29 20.5 50.5t51.5 21.5q30 0 51 -21t21 -51t-21 -51t-51 -21z" />
    <glyph glyph-name="oslash" unicode="&#xf8;" horiz-adv-x="662" 
d="M641 498l-66 -66q65 -72 65 -176q0 -120 -87 -196.5t-222 -76.5q-96 0 -169 40l-71 -69l-70 62l66 65q-65 71 -65 175q0 119 87 196.5t222 77.5q97 0 169 -40l71 70zM374 365q-23 7 -44 7q-51 0 -83.5 -32.5t-32.5 -83.5q0 -25 7 -42zM288 148q17 -7 43 -7q53 0 85 31.5
t32 83.5q0 22 -7 43z" />
    <glyph glyph-name="ugrave" unicode="&#xf9;" horiz-adv-x="659" 
d="M239 513v-278q0 -57 22 -82t69 -25t69 26t22 81v278h182v-313q0 -105 -67 -161t-206 -56q-273 0 -273 219v311h182zM285 820l141 -172l-81 -59l-171 151z" />
    <glyph glyph-name="uacute" unicode="&#xfa;" horiz-adv-x="659" 
d="M239 513v-278q0 -57 22 -82t69 -25t69 26t22 81v278h182v-313q0 -105 -67 -161t-206 -56q-273 0 -273 219v311h182zM486 740l-171 -151l-81 59l141 172z" />
    <glyph glyph-name="ucircumflex" unicode="&#xfb;" horiz-adv-x="659" 
d="M239 513v-278q0 -57 22 -82t69 -25t69 26t22 81v278h182v-313q0 -105 -67 -161t-206 -56q-273 0 -273 219v311h182zM327 829l221 -164l-77 -84l-144 111l-144 -111l-74 84z" />
    <glyph glyph-name="udieresis" unicode="&#xfc;" horiz-adv-x="659" 
d="M239 513v-278q0 -57 22 -82t69 -25t69 26t22 81v278h182v-313q0 -105 -67 -161t-206 -56q-273 0 -273 219v311h182zM202 604q-41 0 -70 28.5t-29 69.5q0 40 28.5 69t70.5 29q41 0 69.5 -29t28.5 -69q0 -41 -28.5 -69.5t-69.5 -28.5zM458 604q-41 0 -70 28.5t-29 69.5
q0 40 28.5 69t70.5 29q40 0 69 -28.5t29 -69.5t-29 -69.5t-69 -28.5z" />
    <glyph glyph-name="yacute" unicode="&#xfd;" horiz-adv-x="654" 
d="M194 513l138 -263l133 263h207l-410 -768h-204l174 325l-247 443h209zM493 740l-171 -151l-81 59l141 172z" />
    <glyph glyph-name="thorn" unicode="&#xfe;" horiz-adv-x="682" 
d="M236 830v-375h2q22 35 63.5 55t92.5 20q107 0 182.5 -80t75.5 -195t-74.5 -193.5t-182.5 -78.5q-49 0 -91 18t-68 48v-304h-182v1085h182zM464 256q0 51 -33 83.5t-85 32.5q-51 0 -83.5 -32.5t-32.5 -83.5q0 -52 32.5 -83.5t84.5 -31.5t84.5 31.5t32.5 83.5z" />
    <glyph glyph-name="ydieresis" unicode="&#xff;" horiz-adv-x="654" 
d="M194 513l138 -263l133 263h207l-410 -768h-204l174 325l-247 443h209zM214 604q-41 0 -70 28.5t-29 69.5q0 40 28.5 69t70.5 29q41 0 69.5 -29t28.5 -69q0 -41 -28.5 -69.5t-69.5 -28.5zM470 604q-41 0 -70 28.5t-29 69.5q0 40 28.5 69t70.5 29q40 0 69 -28.5t29 -69.5
t-29 -69.5t-69 -28.5z" />
    <glyph glyph-name="Amacron" unicode="&#x100;" horiz-adv-x="781" 
d="M500 754l284 -754h-209l-50 131h-270l-51 -131h-208l290 754h214zM310 281h163l-82 240zM619 963v-107h-452v107h452z" />
    <glyph glyph-name="amacron" unicode="&#x101;" horiz-adv-x="682" 
d="M439 513h182v-513h-182v57h-2q-23 -36 -63.5 -55t-91.5 -19q-107 0 -183 78.5t-76 195.5q0 115 74.5 194t182.5 79q46 0 88 -17t71 -50v50zM445 256q0 51 -33 83.5t-85 32.5q-51 0 -83.5 -32.5t-32.5 -83.5q0 -52 32.5 -83.5t84.5 -31.5t84.5 31.5t32.5 83.5zM575 752
v-107h-452v107h452z" />
    <glyph glyph-name="Abreve" unicode="&#x102;" horiz-adv-x="781" 
d="M500 754l284 -754h-209l-50 131h-270l-51 -131h-208l290 754h214zM310 281h163l-82 240zM314 995q5 -32 27.5 -49.5t54.5 -17.5q33 0 55.5 17.5t27.5 49.5h111q-5 -79 -57 -124t-137 -45t-137 44.5t-57 124.5h112z" />
    <glyph glyph-name="abreve" unicode="&#x103;" horiz-adv-x="682" 
d="M439 513h182v-513h-182v57h-2q-23 -36 -63.5 -55t-91.5 -19q-107 0 -183 78.5t-76 195.5q0 115 74.5 194t182.5 79q46 0 88 -17t71 -50v50zM445 256q0 51 -33 83.5t-85 32.5q-51 0 -83.5 -32.5t-32.5 -83.5q0 -52 32.5 -83.5t84.5 -31.5t84.5 31.5t32.5 83.5zM287 784
q5 -32 27.5 -49.5t54.5 -17.5q33 0 55.5 17.5t27.5 49.5h111q-5 -78 -56.5 -123.5t-137.5 -45.5t-137.5 45t-56.5 124h112z" />
    <glyph glyph-name="Aogonek" unicode="&#x104;" horiz-adv-x="781" 
d="M500 754l284 -754h-113q-60 -40 -60 -77q0 -45 47 -45q24 0 53 19l-22 -91q-15 -10 -39 -14.5t-41 -4.5q-43 0 -69.5 23t-26.5 63q0 36 21 69.5t63 57.5h-22l-50 131h-270l-51 -131h-208l290 754h214zM310 281h163l-80 240h-2z" />
    <glyph glyph-name="aogonek" unicode="&#x105;" horiz-adv-x="682" 
d="M439 513h182v-513h-55q-60 -40 -60 -77q0 -45 46 -45q26 0 54 19l-22 -92q-29 -19 -80 -19q-45 0 -71 23.5t-26 62.5q0 78 84 128h-52v57h-2q-47 -74 -155 -74t-183.5 79.5t-75.5 194.5q0 117 75.5 195t181.5 78q98 0 159 -67v50zM328 141q54 0 85.5 32t31.5 83t-32 83.5
t-86 32.5q-51 0 -83.5 -32.5t-32.5 -83.5t31.5 -83t85.5 -32z" />
    <glyph glyph-name="Cacute" unicode="&#x106;" horiz-adv-x="660" 
d="M603 501q-28 38 -73 60.5t-99 22.5q-86 0 -143.5 -59.5t-57.5 -149.5t56.5 -147.5t147.5 -57.5q47 0 92.5 22t76.5 58v-235q-75 -22 -105 -28.5t-68 -6.5q-159 0 -281.5 109.5t-122.5 286.5q0 109 54 201t146 144.5t198 52.5q85 0 179 -38v-235zM576 951l-171 -151
l-81 59l141 172z" />
    <glyph glyph-name="cacute" unicode="&#x107;" horiz-adv-x="483" 
d="M430 346q-51 36 -94 36q-52 0 -88.5 -36.5t-36.5 -88.5q0 -55 35.5 -90.5t92.5 -35.5q25 0 49.5 9.5t41.5 25.5v-154q-59 -29 -128 -29q-75 0 -140 35.5t-102 97.5t-37 135q0 122 82 200.5t205 78.5q30 0 58.5 -6.5t61.5 -23.5v-154zM470 740l-171 -151l-81 59l141 172z
" />
    <glyph glyph-name="Ccircumflex" unicode="&#x108;" horiz-adv-x="660" 
d="M603 501q-28 38 -73 60.5t-99 22.5q-86 0 -143.5 -59.5t-57.5 -149.5t56.5 -147.5t147.5 -57.5q47 0 92.5 22t76.5 58v-235q-75 -22 -105 -28.5t-68 -6.5q-159 0 -281.5 109.5t-122.5 286.5q0 109 54 201t146 144.5t198 52.5q85 0 179 -38v-235zM412 1040l221 -164
l-77 -84l-144 111l-144 -111l-74 84z" />
    <glyph glyph-name="ccircumflex" unicode="&#x109;" horiz-adv-x="483" 
d="M430 346q-51 36 -94 36q-52 0 -88.5 -36.5t-36.5 -88.5q0 -55 35.5 -90.5t92.5 -35.5q25 0 49.5 9.5t41.5 25.5v-154q-59 -29 -128 -29q-75 0 -140 35.5t-102 97.5t-37 135q0 122 82 200.5t205 78.5q30 0 58.5 -6.5t61.5 -23.5v-154zM291 829l221 -164l-77 -84l-144 111
l-144 -111l-74 84z" />
    <glyph glyph-name="Cdotaccent" unicode="&#x10a;" horiz-adv-x="660" 
d="M603 501q-28 38 -73 60.5t-99 22.5q-86 0 -143.5 -59.5t-57.5 -149.5t56.5 -147.5t147.5 -57.5q47 0 92.5 22t76.5 58v-235q-75 -22 -105 -28.5t-68 -6.5q-159 0 -281.5 109.5t-122.5 286.5q0 109 54 201t146 144.5t198 52.5q85 0 179 -38v-235zM416 815q-42 0 -70.5 28
t-28.5 70t28.5 70t70.5 28t70 -29t28 -69q0 -42 -28 -70t-70 -28z" />
    <glyph glyph-name="cdotaccent" unicode="&#x10b;" horiz-adv-x="483" 
d="M430 346q-51 36 -94 36q-52 0 -88.5 -36.5t-36.5 -88.5q0 -55 35.5 -90.5t92.5 -35.5q25 0 49.5 9.5t41.5 25.5v-154q-59 -29 -128 -29q-75 0 -140 35.5t-102 97.5t-37 135q0 122 82 200.5t205 78.5q30 0 58.5 -6.5t61.5 -23.5v-154zM289 604q-42 0 -70.5 28t-28.5 70
q0 41 29 69.5t70 28.5t69.5 -28.5t28.5 -69.5q0 -42 -28 -70t-70 -28z" />
    <glyph glyph-name="Ccaron" unicode="&#x10c;" horiz-adv-x="660" 
d="M603 501q-28 38 -73 60.5t-99 22.5q-86 0 -143.5 -59.5t-57.5 -149.5t56.5 -147.5t147.5 -57.5q47 0 92.5 22t76.5 58v-235q-75 -22 -105 -28.5t-68 -6.5q-159 0 -281.5 109.5t-122.5 286.5q0 109 54 201t146 144.5t198 52.5q85 0 179 -38v-235zM413 928l144 112l77 -85
l-221 -163l-218 163l74 85z" />
    <glyph glyph-name="ccaron" unicode="&#x10d;" horiz-adv-x="483" 
d="M430 346q-51 36 -94 36q-52 0 -88.5 -36.5t-36.5 -88.5q0 -55 35.5 -90.5t92.5 -35.5q25 0 49.5 9.5t41.5 25.5v-154q-59 -29 -128 -29q-75 0 -140 35.5t-102 97.5t-37 135q0 122 82 200.5t205 78.5q30 0 58.5 -6.5t61.5 -23.5v-154zM267 717l144 112l77 -85l-221 -163
l-218 163l74 85z" />
    <glyph glyph-name="Dcaron" unicode="&#x10e;" horiz-adv-x="752" 
d="M346 754q104 0 192.5 -53t137.5 -139.5t49 -184.5q0 -101 -50.5 -188t-138 -138t-190.5 -51h-282v754h282zM260 166h21q89 0 136.5 24t75.5 70t28 117q0 96 -58 153.5t-151 57.5h-52v-422zM326 928l144 112l77 -85l-221 -163l-218 163l74 85z" />
    <glyph glyph-name="dcaron" unicode="&#x10f;" horiz-adv-x="682" 
d="M628 830v-830h-182v57h-2q-21 -35 -63 -54.5t-92 -19.5q-70 0 -130.5 36.5t-94.5 100t-34 137.5q0 115 74.5 194t182.5 79q47 0 89 -17t70 -50v367h182zM452 256q0 52 -33 84t-85 32q-50 0 -83 -33t-33 -83q0 -51 32 -83t85 -32q51 0 84 31.5t33 83.5zM830 719l-96 -195
l-86 22l64 208z" />
    <glyph glyph-name="Dcroat" unicode="&#x110;" horiz-adv-x="752" 
d="M346 754q104 0 192 -53t137.5 -139.5t49.5 -184.5q0 -101 -50.5 -188t-138.5 -138t-190 -51h-283v309h-83v154h83v291h283zM259 463h111v-154h-111v-143h21q90 0 137.5 24t75.5 70t28 117q0 96 -58 153.5t-151 57.5h-53v-125z" />
    <glyph glyph-name="dcroat" unicode="&#x111;" horiz-adv-x="682" 
d="M628 830v-126h42v-83h-42v-621h-182v57h-2q-21 -35 -63 -54.5t-92 -19.5q-108 0 -183.5 79.5t-75.5 194.5t74.5 194t182.5 79q46 0 88 -16.5t71 -50.5v158h-173v83h173v126h182zM452 256q0 52 -33 84t-85 32q-50 0 -83 -33t-33 -83q0 -51 31.5 -83t85.5 -32q53 0 85 31
t32 84z" />
    <glyph glyph-name="Emacron" unicode="&#x112;" horiz-adv-x="550" 
d="M493 754v-166h-233v-126h221v-166h-221v-130h233v-166h-429v754h429zM504 963v-107h-452v107h452z" />
    <glyph glyph-name="emacron" unicode="&#x113;" horiz-adv-x="610" 
d="M204 226q0 -114 114 -114q29 0 50.5 10.5t36.5 36.5h175q-18 -79 -88.5 -127.5t-173.5 -48.5q-135 0 -215.5 74.5t-80.5 198.5q0 123 77.5 198.5t206.5 75.5q133 0 207 -76t74 -213v-15h-383zM418 331q-7 37 -36.5 59t-67.5 22q-40 0 -69.5 -21.5t-37.5 -59.5h211z
M541 752v-107h-452v107h452z" />
    <glyph glyph-name="Ebreve" unicode="&#x114;" horiz-adv-x="550" 
d="M493 754v-166h-233v-126h221v-166h-221v-130h233v-166h-429v754h429zM197 995q5 -32 27.5 -49.5t54.5 -17.5q33 0 55.5 17.5t27.5 49.5h111q-5 -79 -57 -124t-137 -45t-137 44.5t-57 124.5h112z" />
    <glyph glyph-name="ebreve" unicode="&#x115;" horiz-adv-x="610" 
d="M204 226q0 -114 114 -114q29 0 50.5 10.5t36.5 36.5h175q-18 -79 -88.5 -127.5t-173.5 -48.5q-135 0 -215.5 74.5t-80.5 198.5q0 123 77.5 198.5t206.5 75.5q133 0 207 -76t74 -213v-15h-383zM418 331q-7 37 -36.5 59t-67.5 22q-40 0 -69.5 -21.5t-37.5 -59.5h211z
M234 784q5 -32 27.5 -49.5t54.5 -17.5q33 0 55.5 17.5t27.5 49.5h111q-5 -78 -56.5 -123.5t-137.5 -45.5t-137.5 45t-56.5 124h112z" />
    <glyph glyph-name="Edotaccent" unicode="&#x116;" horiz-adv-x="550" 
d="M493 754v-166h-233v-126h221v-166h-221v-130h233v-166h-429v754h429zM296 815q-42 0 -70.5 28t-28.5 70t28.5 70t70.5 28t70 -29t28 -69q0 -42 -28 -70t-70 -28z" />
    <glyph glyph-name="edotaccent" unicode="&#x117;" horiz-adv-x="610" 
d="M204 226q0 -114 114 -114q29 0 50.5 10.5t36.5 36.5h175q-18 -79 -88.5 -127.5t-173.5 -48.5q-135 0 -215.5 74.5t-80.5 198.5q0 123 77.5 198.5t206.5 75.5q133 0 207 -76t74 -213v-15h-383zM418 331q-7 37 -36.5 59t-67.5 22q-40 0 -69.5 -21.5t-37.5 -59.5h211z
M320 604q-42 0 -70.5 28t-28.5 70q0 41 29 69.5t70 28.5t69.5 -28.5t28.5 -69.5q0 -42 -28 -70t-70 -28z" />
    <glyph glyph-name="Eogonek" unicode="&#x118;" horiz-adv-x="550" 
d="M493 754v-166h-233v-126h221v-166h-221v-130h233v-166h-50q-27 -18 -43.5 -36.5t-16.5 -40.5q0 -45 46 -45q25 0 54 19l-22 -91q-15 -10 -39 -14.5t-41 -4.5q-44 0 -70.5 23.5t-26.5 62.5q0 36 21.5 69.5t62.5 57.5h-304v754h429z" />
    <glyph glyph-name="eogonek" unicode="&#x119;" horiz-adv-x="610" 
d="M204 226q0 -114 113 -114q61 0 88 47h175q-28 -117 -165 -163q-87 -28 -87 -73t46 -45q28 0 54 19l-22 -92q-32 -19 -80 -19q-45 0 -71 23.5t-26 62.5q0 65 61 112h-1q-125 10 -196 82.5t-71 189.5q0 125 77.5 199.5t206.5 74.5q133 0 207 -76.5t74 -211.5v-16h-383z
M418 331q-7 38 -37 59.5t-67 21.5q-40 0 -69.5 -21.5t-37.5 -59.5h211z" />
    <glyph glyph-name="Ecaron" unicode="&#x11a;" horiz-adv-x="550" 
d="M493 754v-166h-233v-126h221v-166h-221v-130h233v-166h-429v754h429zM282 928l144 112l77 -85l-221 -163l-218 163l74 85z" />
    <glyph glyph-name="ecaron" unicode="&#x11b;" horiz-adv-x="610" 
d="M204 226q0 -114 114 -114q29 0 50.5 10.5t36.5 36.5h175q-18 -79 -88.5 -127.5t-173.5 -48.5q-135 0 -215.5 74.5t-80.5 198.5q0 123 77.5 198.5t206.5 75.5q133 0 207 -76t74 -213v-15h-383zM418 331q-7 37 -36.5 59t-67.5 22q-40 0 -69.5 -21.5t-37.5 -59.5h211z
M314 717l144 112l77 -85l-221 -163l-218 163l74 85z" />
    <glyph glyph-name="Gcircumflex" unicode="&#x11c;" horiz-adv-x="842" 
d="M775 568l-186 -78q-22 57 -64.5 88.5t-98.5 31.5q-89 0 -142.5 -71t-53.5 -167q0 -95 54 -165.5t145 -70.5q69 0 110.5 35t47.5 96h-160v154h389q-2 -140 -31.5 -214t-80.5 -126t-120.5 -78.5t-155.5 -26.5q-178 0 -290 110t-112 287q0 120 51 212.5t145 143t213 50.5
q116 0 203.5 -52.5t136.5 -158.5zM428 1040l221 -164l-77 -84l-144 111l-144 -111l-74 84z" />
    <glyph glyph-name="gcircumflex" unicode="&#x11d;" horiz-adv-x="677" 
d="M441 459v54h182v-468q0 -300 -296 -300q-113 0 -199 55.5t-94 139.5h204q7 -23 31 -36.5t56 -13.5q58 0 87 33t29 113v24q-35 -35 -73.5 -52t-89.5 -17q-110 0 -181.5 74t-71.5 187q0 118 75.5 198t187.5 80q100 0 151 -71h2zM447 260q0 51 -33 83.5t-85 32.5
q-51 0 -83.5 -32.5t-32.5 -83.5q0 -52 33 -83.5t84 -31.5t84 31.5t33 83.5zM335 829l221 -164l-77 -84l-144 111l-144 -111l-74 84z" />
    <glyph glyph-name="Gbreve" unicode="&#x11e;" horiz-adv-x="842" 
d="M775 568l-186 -78q-22 57 -64.5 88.5t-98.5 31.5q-89 0 -142.5 -71t-53.5 -167q0 -95 54 -165.5t145 -70.5q69 0 110.5 35t47.5 96h-160v154h389q-2 -140 -31.5 -214t-80.5 -126t-120.5 -78.5t-155.5 -26.5q-178 0 -290 110t-112 287q0 120 51 212.5t145 143t213 50.5
q116 0 203.5 -52.5t136.5 -158.5zM348 995q5 -32 27.5 -49.5t54.5 -17.5q33 0 55.5 17.5t27.5 49.5h111q-5 -79 -57 -124t-137 -45t-137 44.5t-57 124.5h112z" />
    <glyph glyph-name="gbreve" unicode="&#x11f;" horiz-adv-x="677" 
d="M441 459v54h182v-468q0 -300 -296 -300q-113 0 -199 55.5t-94 139.5h204q7 -23 31 -36.5t56 -13.5q58 0 87 33t29 113v24q-35 -35 -73.5 -52t-89.5 -17q-110 0 -181.5 74t-71.5 187q0 118 75.5 198t187.5 80q100 0 151 -71h2zM447 260q0 51 -33 83.5t-85 32.5
q-51 0 -83.5 -32.5t-32.5 -83.5q0 -52 33 -83.5t84 -31.5t84 31.5t33 83.5zM255 784q5 -32 27.5 -49.5t54.5 -17.5q33 0 55.5 17.5t27.5 49.5h111q-5 -78 -56.5 -123.5t-137.5 -45.5t-137.5 45t-56.5 124h112z" />
    <glyph glyph-name="Gdotaccent" unicode="&#x120;" horiz-adv-x="842" 
d="M775 568l-186 -78q-22 57 -64.5 88.5t-98.5 31.5q-89 0 -142.5 -71t-53.5 -167q0 -95 54 -165.5t145 -70.5q69 0 110.5 35t47.5 96h-160v154h389q-2 -140 -31.5 -214t-80.5 -126t-120.5 -78.5t-155.5 -26.5q-178 0 -290 110t-112 287q0 120 51 212.5t145 143t213 50.5
q116 0 203.5 -52.5t136.5 -158.5zM429 815q-42 0 -70.5 28t-28.5 70t28.5 70t70.5 28t70 -29t28 -69q0 -42 -28 -70t-70 -28z" />
    <glyph glyph-name="gdotaccent" unicode="&#x121;" horiz-adv-x="677" 
d="M441 459v54h182v-468q0 -300 -296 -300q-113 0 -199 55.5t-94 139.5h204q7 -23 31 -36.5t56 -13.5q58 0 87 33t29 113v24q-35 -35 -73.5 -52t-89.5 -17q-110 0 -181.5 74t-71.5 187q0 118 75.5 198t187.5 80q100 0 151 -71h2zM447 260q0 51 -33 83.5t-85 32.5
q-51 0 -83.5 -32.5t-32.5 -83.5q0 -52 33 -83.5t84 -31.5t84 31.5t33 83.5zM339 604q-42 0 -70.5 28t-28.5 70q0 41 29 69.5t70 28.5t69.5 -28.5t28.5 -69.5q0 -42 -28 -70t-70 -28z" />
    <glyph glyph-name="Gcommaaccent" unicode="&#x122;" horiz-adv-x="842" 
d="M775 568l-186 -78q-22 57 -64.5 88.5t-98.5 31.5q-89 0 -142.5 -71t-53.5 -167q0 -95 54 -165.5t145 -70.5q69 0 110.5 35t47.5 96h-160v154h389q-2 -140 -31.5 -214t-80.5 -126t-120.5 -78.5t-155.5 -26.5q-178 0 -290 110t-112 287q0 120 51 212.5t145 143t213 50.5
q116 0 203.5 -52.5t136.5 -158.5zM499 -40v-103q0 -63 -48 -103t-129 -48v74q42 5 60.5 20t18.5 45h-55v115h153z" />
    <glyph glyph-name="gcommaaccent" unicode="&#x123;" horiz-adv-x="677" 
d="M441 459v54h182v-468q0 -300 -296 -300q-113 0 -199 55.5t-94 139.5h204q7 -23 31 -36.5t56 -13.5q58 0 87 33t29 113v24q-35 -35 -73.5 -52t-89.5 -17q-110 0 -181.5 74t-71.5 187q0 118 75.5 198t187.5 80q100 0 151 -71h2zM447 260q0 51 -33 83.5t-85 32.5
q-51 0 -83.5 -32.5t-32.5 -83.5q0 -52 33 -83.5t84 -31.5t84 31.5t33 83.5zM419 815q-79 -10 -79 -75h55v-125h-153v114q0 62 49.5 107.5t127.5 52.5v-74z" />
    <glyph glyph-name="Hcircumflex" unicode="&#x124;" horiz-adv-x="803" 
d="M260 754v-291h283v291h196v-754h-196v309h-283v-309h-196v754h196zM404 1040l221 -164l-77 -84l-144 111l-144 -111l-74 84z" />
    <glyph glyph-name="hcircumflex" unicode="&#x125;" horiz-adv-x="661" 
d="M243 735v-287h2q32 42 71 62t93 20q94 0 143.5 -57t49.5 -156v-317h-182v268q0 63 -20 90t-62 27q-48 0 -71.5 -33.5t-23.5 -84.5v-267h-182v735h182zM206 1051l221 -164l-77 -84l-144 111l-144 -111l-74 84z" />
    <glyph glyph-name="Hbar" unicode="&#x126;" horiz-adv-x="803" 
d="M260 754v-118h283v118h196v-754h-196v309h-283v-309h-196v754h196zM543 463v90h-283v-90h283z" />
    <glyph glyph-name="hbar" unicode="&#x127;" horiz-adv-x="661" 
d="M242 830v-126h169v-83h-169v-173h2q32 42 71 62t93 20q91 0 142 -56.5t51 -155.5v-318h-182v268q0 63 -20.5 90t-61.5 27q-45 0 -70 -31.5t-25 -86.5v-267h-182v621h-46v83h46v126h182z" />
    <glyph glyph-name="Itilde" unicode="&#x128;" horiz-adv-x="324" 
d="M260 754v-754h-196v754h196zM364 985q-7 -73 -42.5 -115.5t-87.5 -42.5q-27 0 -77 18.5t-75 18.5q-22 0 -29 -23l-5 -14h-82l-1 12q0 63 33.5 103.5t78.5 40.5q27 0 85 -17t77 -17q15 0 23.5 7.5t16.5 28.5h85z" />
    <glyph glyph-name="itilde" unicode="&#x129;" horiz-adv-x="302" 
d="M242 513v-513h-182v513h182zM354 774q-7 -73 -42.5 -115.5t-87.5 -42.5q-27 0 -77 18.5t-75 18.5q-22 0 -29 -23l-5 -14h-82l-1 12q0 63 33.5 103.5t78.5 40.5q25 0 85 -17t77 -17q15 0 23.5 7.5t16.5 28.5h85z" />
    <glyph glyph-name="Imacron" unicode="&#x12a;" horiz-adv-x="324" 
d="M260 754v-754h-196v754h196zM389 963v-107h-452v107h452z" />
    <glyph glyph-name="imacron" unicode="&#x12b;" horiz-adv-x="302" 
d="M318 752v-107h-331v107h331zM242 513v-513h-182v513h182z" />
    <glyph glyph-name="Iogonek" unicode="&#x12e;" horiz-adv-x="324" 
d="M260 754v-754h-80q-27 -16 -43.5 -36.5t-16.5 -40.5q0 -45 46 -45q26 0 54 19l-22 -91q-34 -19 -80 -19q-44 0 -70.5 23t-26.5 63q0 36 21 69.5t63 57.5h-41v754h196z" />
    <glyph glyph-name="iogonek" unicode="&#x12f;" horiz-adv-x="302" 
d="M225 710q0 -42 -30.5 -72t-71.5 -30q-42 0 -72 30.5t-30 71.5q0 44 30.5 73t71.5 29q42 0 72 -29.5t30 -72.5zM214 513v-513h-22q-60 -38 -60 -77q0 -45 46 -45q25 0 54 19l-22 -92q-32 -19 -80 -19q-45 0 -71 23.5t-26 62.5q0 78 84 128h-85v513h182z" />
    <glyph glyph-name="Idotaccent" unicode="&#x130;" horiz-adv-x="324" 
d="M260 754v-754h-196v754h196zM165 815q-42 0 -70.5 28t-28.5 70t28.5 70t70.5 28t70 -29t28 -69q0 -42 -28 -70t-70 -28z" />
    <glyph glyph-name="dotlessi" unicode="&#x131;" horiz-adv-x="302" 
d="M242 513v-513h-182v513h182z" />
    <glyph glyph-name="Jcircumflex" unicode="&#x134;" horiz-adv-x="489" 
d="M429 754v-514q0 -121 -66.5 -190.5t-182.5 -69.5q-123 0 -195 111l113 119q47 -64 78 -64q32 0 44 25.5t12 78.5v504h197zM332 1040l221 -164l-77 -84l-144 111l-144 -111l-74 84z" />
    <glyph glyph-name="jcircumflex" unicode="&#x135;" horiz-adv-x="302" 
d="M242 513v-768h-182v768h182zM155 834l221 -164l-77 -84l-144 111l-144 -111l-74 84z" />
    <glyph glyph-name="Kcommaaccent" unicode="&#x136;" horiz-adv-x="758" 
d="M260 754v-311l239 311h243l-300 -357l327 -397h-254l-255 327v-327h-196v754h196zM441 -40v-103q0 -63 -48 -103t-129 -48v74q42 5 60.5 20t18.5 45h-55v115h153z" />
    <glyph glyph-name="kcommaaccent" unicode="&#x137;" horiz-adv-x="688" 
d="M242 830v-502l189 185h249l-257 -237l273 -276h-255l-199 209v-209h-182v830h182zM414 -40v-103q0 -63 -48 -103t-129 -48v74q42 5 60.5 20t18.5 45h-55v115h153z" />
    <glyph glyph-name="Lacute" unicode="&#x139;" horiz-adv-x="495" 
d="M260 754v-588h235v-166h-431v754h196zM372 951l-171 -151l-81 59l141 172z" />
    <glyph glyph-name="lacute" unicode="&#x13a;" horiz-adv-x="302" 
d="M242 795v-795h-182v795h182zM313 971l-171 -151l-81 59l141 172z" />
    <glyph glyph-name="Lcommaaccent" unicode="&#x13b;" horiz-adv-x="495" 
d="M260 754v-588h235v-166h-431v754h196zM341 -40v-103q0 -63 -48 -103t-129 -48v74q42 5 60.5 20t18.5 45h-55v115h153z" />
    <glyph glyph-name="lcommaaccent" unicode="&#x13c;" horiz-adv-x="302" 
d="M242 830v-830h-182v830h182zM233 -40v-103q0 -63 -48 -103t-129 -48v74q42 5 60.5 20t18.5 45h-55v115h153z" />
    <glyph glyph-name="Lcaron" unicode="&#x13d;" horiz-adv-x="495" 
d="M260 754v-588h235v-166h-431v754h196zM507 719l-96 -195l-86 22l64 208z" />
    <glyph glyph-name="lcaron" unicode="&#x13e;" horiz-adv-x="302" 
d="M242 830v-830h-182v830h182zM450 719l-96 -195l-86 22l64 208z" />
    <glyph glyph-name="Ldot" unicode="&#x13f;" horiz-adv-x="495" 
d="M260 754v-588h235v-166h-431v754h196zM413 371q-42 0 -70.5 28t-28.5 70q0 41 29 69.5t70 28.5t69.5 -28.5t28.5 -69.5q0 -42 -28 -70t-70 -28z" />
    <glyph glyph-name="ldot" unicode="&#x140;" horiz-adv-x="460" 
d="M242 830v-830h-182v830h182zM385 391q-42 0 -70.5 28t-28.5 70q0 41 29 69.5t70 28.5t69.5 -28.5t28.5 -69.5q0 -42 -28 -70t-70 -28z" />
    <glyph glyph-name="Lslash" unicode="&#x141;" horiz-adv-x="533" 
d="M298 754v-200l113 72v-146l-113 -71v-243h235v-166h-431v285l-83 -52v142l83 53v326h196z" />
    <glyph glyph-name="lslash" unicode="&#x142;" horiz-adv-x="366" 
d="M274 830v-266l84 51v-125l-84 -51v-439h-182v331l-84 -51v124l84 52v374h182z" />
    <glyph glyph-name="Nacute" unicode="&#x143;" horiz-adv-x="881" 
d="M260 754l361 -461v461h196v-754h-196l-361 462v-462h-196v754h196zM655 951l-171 -151l-81 59l141 172z" />
    <glyph glyph-name="nacute" unicode="&#x144;" horiz-adv-x="661" 
d="M601 0h-182v282q0 49 -18.5 76t-63.5 27q-46 0 -70.5 -30t-24.5 -86v-269h-182v513h182v-66h2q31 45 70.5 64t93.5 19q94 0 143.5 -54.5t49.5 -154.5v-321zM532 740l-171 -151l-81 59l141 172z" />
    <glyph glyph-name="Ncommaaccent" unicode="&#x145;" horiz-adv-x="881" 
d="M260 754l361 -461v461h196v-754h-196l-361 462v-462h-196v754h196zM517 -40v-103q0 -63 -48 -103t-129 -48v74q42 5 60.5 20t18.5 45h-55v115h153z" />
    <glyph glyph-name="ncommaaccent" unicode="&#x146;" horiz-adv-x="661" 
d="M601 0h-182v282q0 49 -18.5 76t-63.5 27q-46 0 -70.5 -30t-24.5 -86v-269h-182v513h182v-66h2q31 45 70.5 64t93.5 19q94 0 143.5 -54.5t49.5 -154.5v-321zM399 -40v-103q0 -63 -48 -103t-129 -48v74q42 5 60.5 20t18.5 45h-55v115h153z" />
    <glyph glyph-name="Ncaron" unicode="&#x147;" horiz-adv-x="881" 
d="M260 754l361 -461v461h196v-754h-196l-361 462v-462h-196v754h196zM442 928l144 112l77 -85l-221 -163l-218 163l74 85z" />
    <glyph glyph-name="ncaron" unicode="&#x148;" horiz-adv-x="661" 
d="M601 0h-182v282q0 49 -18.5 76t-63.5 27q-46 0 -70.5 -30t-24.5 -86v-269h-182v513h182v-66h2q31 45 70.5 64t93.5 19q94 0 143.5 -54.5t49.5 -154.5v-321zM335 717l144 112l77 -85l-221 -163l-218 163l74 85z" />
    <glyph glyph-name="Omacron" unicode="&#x14c;" horiz-adv-x="887" 
d="M449 -24q-122 0 -218 51.5t-150.5 146.5t-54.5 206q0 112 53 202t153 143.5t211 53.5q110 0 208 -52.5t153.5 -140.5t55.5 -195q0 -120 -53 -214t-148.5 -147.5t-209.5 -53.5zM656 390q0 79 -64.5 139t-149.5 60q-83 0 -147.5 -59.5t-64.5 -139.5q0 -96 62.5 -160.5
t150.5 -64.5q90 0 151.5 66t61.5 159zM670 963v-107h-452v107h452z" />
    <glyph glyph-name="omacron" unicode="&#x14d;" horiz-adv-x="662" 
d="M331 -17q-134 0 -221.5 76.5t-87.5 196.5t87 197t222 77t222 -76.5t87 -197.5q0 -120 -87 -196.5t-222 -76.5zM448 256q0 51 -33 83.5t-85 32.5q-51 0 -83.5 -32.5t-32.5 -83.5q0 -52 33 -83.5t84 -31.5q53 0 85 31.5t32 83.5zM559 752v-107h-452v107h452z" />
    <glyph glyph-name="Obreve" unicode="&#x14e;" horiz-adv-x="887" 
d="M449 -24q-122 0 -218 51.5t-150.5 146.5t-54.5 206q0 112 53 202t153 143.5t211 53.5q110 0 208 -52.5t153.5 -140.5t55.5 -195q0 -120 -53 -214t-148.5 -147.5t-209.5 -53.5zM656 390q0 79 -64.5 139t-149.5 60q-83 0 -147.5 -59.5t-64.5 -139.5q0 -96 62.5 -160.5
t150.5 -64.5q90 0 151.5 66t61.5 159zM360 995q5 -32 27.5 -49.5t54.5 -17.5q33 0 55.5 17.5t27.5 49.5h111q-5 -79 -57 -124t-137 -45t-137 44.5t-57 124.5h112z" />
    <glyph glyph-name="obreve" unicode="&#x14f;" horiz-adv-x="662" 
d="M331 -17q-134 0 -221.5 76.5t-87.5 196.5t87 197t222 77t222 -76.5t87 -197.5q0 -120 -87 -196.5t-222 -76.5zM448 256q0 51 -33 83.5t-85 32.5q-51 0 -83.5 -32.5t-32.5 -83.5q0 -52 33 -83.5t84 -31.5q53 0 85 31.5t32 83.5zM251 784q5 -32 27.5 -49.5t54.5 -17.5
q33 0 55.5 17.5t27.5 49.5h111q-5 -78 -56.5 -123.5t-137.5 -45.5t-137.5 45t-56.5 124h112z" />
    <glyph glyph-name="Ohungarumlaut" unicode="&#x150;" horiz-adv-x="887" 
d="M449 -24q-122 0 -218 51.5t-150.5 146.5t-54.5 206q0 112 53 202t153 143.5t211 53.5q110 0 208 -52.5t153.5 -140.5t55.5 -195q0 -120 -53 -214t-148.5 -147.5t-209.5 -53.5zM656 390q0 79 -64.5 139t-149.5 60q-83 0 -147.5 -59.5t-64.5 -139.5q0 -96 62.5 -160.5
t150.5 -64.5q90 0 151.5 66t61.5 159zM452 1025l-50 -214h-93l14 214h129zM626 1025l-50 -214h-93l14 214h129z" />
    <glyph glyph-name="ohungarumlaut" unicode="&#x151;" horiz-adv-x="662" 
d="M331 -17q-134 0 -221.5 76.5t-87.5 196.5t87 197t222 77t222 -76.5t87 -197.5q0 -120 -87 -196.5t-222 -76.5zM448 256q0 51 -33 83.5t-85 32.5q-51 0 -83.5 -32.5t-32.5 -83.5q0 -52 33 -83.5t84 -31.5q53 0 85 31.5t32 83.5zM348 814l-50 -214h-93l14 214h129zM522 814
l-50 -214h-93l14 214h129z" />
    <glyph glyph-name="OE" unicode="&#x152;" horiz-adv-x="1140" 
d="M660 754h424v-166h-229v-126h213v-166h-213v-130h229v-166h-424v83q-51 -56 -109 -81.5t-131 -25.5q-105 0 -195.5 54t-144.5 147.5t-54 199.5q0 105 52.5 197t144.5 148.5t188 56.5q77 0 138 -22t111 -72v69zM651 377q0 88 -61.5 150t-149.5 62q-86 0 -148 -63t-62 -149
q0 -88 63 -150t148 -62t147.5 62.5t62.5 149.5z" />
    <glyph glyph-name="oe" unicode="&#x153;" horiz-adv-x="1022" 
d="M525 453q28 37 78 57t117 20q132 0 206.5 -76.5t74.5 -212.5v-15h-383q0 -114 114 -114q29 0 50.5 10.5t36.5 36.5h175q-17 -79 -89 -127.5t-173 -48.5q-76 0 -125.5 21.5t-81.5 67.5q-42 -48 -91.5 -68.5t-116.5 -20.5q-133 0 -214.5 74t-81.5 199q0 122 82 198t212 76
q67 0 115.5 -16.5t94.5 -60.5zM829 331q-7 37 -36.5 59t-67.5 22q-39 0 -69 -21.5t-38 -59.5h211zM447 256q0 47 -35 81.5t-82 34.5q-48 0 -82.5 -35t-34.5 -81q0 -48 34.5 -81.5t82.5 -33.5q49 0 83 33.5t34 81.5z" />
    <glyph glyph-name="Racute" unicode="&#x154;" horiz-adv-x="680" 
d="M362 754q120 0 188.5 -62.5t68.5 -169.5q0 -83 -44.5 -141t-120.5 -72l237 -309h-244l-185 290h-2v-290h-196v754h298zM260 416h17q72 0 105 23t33 71t-32.5 71t-105.5 23h-17v-188zM483 951l-171 -151l-81 59l141 172z" />
    <glyph glyph-name="racute" unicode="&#x155;" horiz-adv-x="453" 
d="M445 345q-17 9 -33.5 13t-43.5 4q-66 0 -96 -37.5t-30 -113.5v-211h-182v513h182v-84h2q49 91 167 91h34v-175zM375 740l-171 -151l-81 59l141 172z" />
    <glyph glyph-name="Rcommaaccent" unicode="&#x156;" horiz-adv-x="680" 
d="M362 754q120 0 188.5 -62.5t68.5 -169.5q0 -83 -44.5 -141t-120.5 -72l237 -309h-244l-185 290h-2v-290h-196v754h298zM260 416h17q72 0 105 23t33 71t-32.5 71t-105.5 23h-17v-188zM402 -40v-103q0 -63 -48 -103t-129 -48v74q42 5 60.5 20t18.5 45h-55v115h153z" />
    <glyph glyph-name="rcommaaccent" unicode="&#x157;" horiz-adv-x="453" 
d="M445 345q-17 9 -33.5 13t-43.5 4q-66 0 -96 -37.5t-30 -113.5v-211h-182v513h182v-84h2q49 91 167 91h34v-175zM244 -40v-103q0 -63 -48 -103t-129 -48v74q42 5 60.5 20t18.5 45h-55v115h153z" />
    <glyph glyph-name="Rcaron" unicode="&#x158;" horiz-adv-x="680" 
d="M362 754q120 0 188.5 -62.5t68.5 -169.5q0 -83 -44.5 -141t-120.5 -72l237 -309h-244l-185 290h-2v-290h-196v754h298zM260 416h17q72 0 105 23t33 71t-32.5 71t-105.5 23h-17v-188zM311 928l144 112l77 -85l-221 -163l-218 163l74 85z" />
    <glyph glyph-name="rcaron" unicode="&#x159;" horiz-adv-x="453" 
d="M445 345q-17 9 -33.5 13t-43.5 4q-66 0 -96 -37.5t-30 -113.5v-211h-182v513h182v-84h2q49 91 167 91h34v-175zM206 717l144 112l77 -85l-221 -163l-218 163l74 85z" />
    <glyph glyph-name="Sacute" unicode="&#x15a;" horiz-adv-x="616" 
d="M556 712l-78 -152q-59 50 -130 50q-33 0 -58.5 -18t-25.5 -45q0 -51 107.5 -78t161.5 -78t54 -137q0 -144 -85.5 -209t-207.5 -65q-70 0 -138 22.5t-126 63.5l84 158q89 -78 173 -78q44 0 70 21t26 55q0 26 -24 46.5t-104 42.5t-119 46.5t-57.5 64.5t-18.5 99
q0 113 72.5 183t186.5 70q59 0 122.5 -17t114.5 -45zM502 951l-171 -151l-81 59l141 172z" />
    <glyph glyph-name="sacute" unicode="&#x15b;" horiz-adv-x="513" 
d="M292 530q96 0 168 -33l-61 -116q-21 11 -48 18t-50 7q-26 0 -41.5 -10.5t-15.5 -24.5q0 -13 8.5 -20.5t22.5 -12.5t51 -12q149 -27 149 -152q0 -56 -28.5 -99t-86.5 -67.5t-127 -24.5q-111 0 -207 59l66 127q34 -23 74 -37.5t69 -14.5q24 0 41 10.5t17 28.5t-18.5 29.5
t-55.5 18.5q-86 15 -120 49.5t-34 94.5q0 83 63 132.5t164 49.5zM447 740l-171 -151l-81 59l141 172z" />
    <glyph glyph-name="Scircumflex" unicode="&#x15c;" horiz-adv-x="616" 
d="M556 712l-78 -152q-59 50 -130 50q-33 0 -58.5 -18t-25.5 -45q0 -51 107.5 -78t161.5 -78t54 -137q0 -144 -85.5 -209t-207.5 -65q-70 0 -138 22.5t-126 63.5l84 158q89 -78 173 -78q44 0 70 21t26 55q0 26 -24 46.5t-104 42.5t-119 46.5t-57.5 64.5t-18.5 99
q0 113 72.5 183t186.5 70q59 0 122.5 -17t114.5 -45zM337 1040l221 -164l-77 -84l-144 111l-144 -111l-74 84z" />
    <glyph glyph-name="scircumflex" unicode="&#x15d;" horiz-adv-x="513" 
d="M292 530q96 0 168 -33l-61 -116q-21 11 -48 18t-50 7q-26 0 -41.5 -10.5t-15.5 -24.5q0 -13 8.5 -20.5t22.5 -12.5t51 -12q149 -27 149 -152q0 -56 -28.5 -99t-86.5 -67.5t-127 -24.5q-111 0 -207 59l66 127q34 -23 74 -37.5t69 -14.5q24 0 41 10.5t17 28.5t-18.5 29.5
t-55.5 18.5q-86 15 -120 49.5t-34 94.5q0 83 63 132.5t164 49.5zM275 829l221 -164l-77 -84l-144 111l-144 -111l-74 84z" />
    <glyph glyph-name="Scedilla" unicode="&#x15e;" horiz-adv-x="616" 
d="M556 712l-78 -152q-59 50 -130 50q-33 0 -58.5 -18t-25.5 -45q0 -51 107.5 -78t161.5 -78t54 -137q0 -144 -85.5 -209t-207.5 -65q-70 0 -138 22.5t-126 63.5l84 158q89 -78 173 -78q44 0 70 21t26 55q0 26 -24 46.5t-104 42.5t-119 46.5t-57.5 64.5t-18.5 99
q0 113 72.5 183t186.5 70q59 0 122.5 -17t114.5 -45zM420 -94l-151 -142l-78 48l130 159z" />
    <glyph glyph-name="scedilla" unicode="&#x15f;" horiz-adv-x="513" 
d="M292 530q96 0 168 -33l-61 -116q-21 11 -48 18t-50 7q-26 0 -41.5 -10.5t-15.5 -24.5q0 -13 8.5 -20.5t22.5 -12.5t51 -12q149 -27 149 -152q0 -56 -28.5 -99t-86.5 -67.5t-127 -24.5q-111 0 -207 59l66 127q34 -23 74 -37.5t69 -14.5q24 0 41 10.5t17 28.5t-18.5 29.5
t-55.5 18.5q-86 15 -120 49.5t-34 94.5q0 83 63 132.5t164 49.5zM366 -94l-151 -142l-78 48l130 159z" />
    <glyph glyph-name="Scaron" unicode="&#x160;" horiz-adv-x="616" 
d="M556 712l-78 -152q-59 50 -130 50q-33 0 -58.5 -18t-25.5 -45q0 -51 107.5 -78t161.5 -78t54 -137q0 -144 -85.5 -209t-207.5 -65q-70 0 -138 22.5t-126 63.5l84 158q89 -78 173 -78q44 0 70 21t26 55q0 26 -24 46.5t-104 42.5t-119 46.5t-57.5 64.5t-18.5 99
q0 113 72.5 183t186.5 70q59 0 122.5 -17t114.5 -45zM306 928l144 112l77 -85l-221 -163l-218 163l74 85z" />
    <glyph glyph-name="scaron" unicode="&#x161;" horiz-adv-x="513" 
d="M292 530q96 0 168 -33l-61 -116q-21 11 -48 18t-50 7q-26 0 -41.5 -10.5t-15.5 -24.5q0 -13 8.5 -20.5t22.5 -12.5t51 -12q149 -27 149 -152q0 -56 -28.5 -99t-86.5 -67.5t-127 -24.5q-111 0 -207 59l66 127q34 -23 74 -37.5t69 -14.5q24 0 41 10.5t17 28.5t-18.5 29.5
t-55.5 18.5q-86 15 -120 49.5t-34 94.5q0 83 63 132.5t164 49.5zM257 717l144 112l77 -85l-221 -163l-218 163l74 85z" />
    <glyph glyph-name="Tcommaaccent" unicode="&#x162;" horiz-adv-x="533" 
d="M526 754v-166h-162v-588h-196v588h-162v166h520zM353 -40v-103q0 -63 -48 -103t-129 -48v74q42 5 60.5 20t18.5 45h-55v115h153z" />
    <glyph glyph-name="tcommaaccent" unicode="&#x163;" horiz-adv-x="360" 
d="M259 667v-154h103v-150h-103v-363h-182v363h-59v150h59v154h182zM255 -40v-103q0 -63 -48 -103t-129 -48v74q42 5 60.5 20t18.5 45h-55v115h153z" />
    <glyph glyph-name="Tcaron" unicode="&#x164;" horiz-adv-x="533" 
d="M526 754v-166h-162v-588h-196v588h-162v166h520zM268 928l144 112l77 -85l-221 -163l-218 163l74 85z" />
    <glyph glyph-name="tcaron" unicode="&#x165;" horiz-adv-x="360" 
d="M259 667v-154h103v-150h-103v-363h-182v363h-59v150h59v154h182zM476 763l-96 -195l-86 22l64 208z" />
    <glyph glyph-name="Tbar" unicode="&#x166;" horiz-adv-x="533" 
d="M526 754v-166h-162v-126h97v-83h-97v-379h-196v379h-104v83h104v126h-162v166h520z" />
    <glyph glyph-name="tbar" unicode="&#x167;" horiz-adv-x="360" 
d="M259 667v-154h103v-150h-103v-83h83v-83h-83v-197h-182v197h-49v83h49v83h-59v150h59v154h182z" />
    <glyph glyph-name="Utilde" unicode="&#x168;" horiz-adv-x="778" 
d="M256 754v-404q0 -115 33 -156.5t100 -41.5q66 0 99.5 42t33.5 155v405h196v-433q0 -129 -32 -194.5t-109 -106t-188 -40.5t-187.5 40t-109 106.5t-32.5 194.5v433h196zM596 985q-7 -73 -42.5 -115.5t-87.5 -42.5q-27 0 -77 18.5t-75 18.5q-22 0 -29 -23l-5 -14h-82l-1 12
q0 63 33.5 103.5t78.5 40.5q27 0 85 -17t77 -17q15 0 23.5 7.5t16.5 28.5h85z" />
    <glyph glyph-name="utilde" unicode="&#x169;" horiz-adv-x="659" 
d="M239 513v-278q0 -57 22 -82t69 -25t69 26t22 81v278h182v-313q0 -105 -67 -161t-206 -56q-273 0 -273 219v311h182zM548 774q-7 -73 -42.5 -115.5t-87.5 -42.5q-27 0 -77 18.5t-75 18.5q-22 0 -29 -23l-5 -14h-82l-1 12q0 63 33.5 103.5t78.5 40.5q25 0 85 -17t77 -17
q15 0 23.5 7.5t16.5 28.5h85z" />
    <glyph glyph-name="Umacron" unicode="&#x16a;" horiz-adv-x="778" 
d="M256 754v-404q0 -115 33 -156.5t100 -41.5q66 0 99.5 42t33.5 155v405h196v-433q0 -129 -32 -194.5t-109 -106t-188 -40.5t-187.5 40t-109 106.5t-32.5 194.5v433h196zM617 963v-107h-452v107h452z" />
    <glyph glyph-name="umacron" unicode="&#x16b;" horiz-adv-x="659" 
d="M239 513v-278q0 -57 22 -82t69 -25t69 26t22 81v278h182v-313q0 -105 -67 -161t-206 -56q-273 0 -273 219v311h182zM555 752v-107h-452v107h452z" />
    <glyph glyph-name="Ubreve" unicode="&#x16c;" horiz-adv-x="778" 
d="M256 754v-404q0 -115 33 -156.5t100 -41.5q66 0 99.5 42t33.5 155v405h196v-433q0 -129 -32 -194.5t-109 -106t-188 -40.5t-187.5 40t-109 106.5t-32.5 194.5v433h196zM317 995q5 -32 27.5 -49.5t54.5 -17.5q33 0 55.5 17.5t27.5 49.5h111q-5 -79 -57 -124t-137 -45
t-137 44.5t-57 124.5h112z" />
    <glyph glyph-name="ubreve" unicode="&#x16d;" horiz-adv-x="659" 
d="M239 513v-278q0 -57 22 -82t69 -25t69 26t22 81v278h182v-313q0 -105 -67 -161t-206 -56q-273 0 -273 219v311h182zM250 784q5 -32 27.5 -49.5t54.5 -17.5q33 0 55.5 17.5t27.5 49.5h111q-5 -78 -56.5 -123.5t-137.5 -45.5t-137.5 45t-56.5 124h112z" />
    <glyph glyph-name="Uring" unicode="&#x16e;" horiz-adv-x="778" 
d="M256 754v-404q0 -115 33 -156.5t100 -41.5q66 0 99.5 42t33.5 155v405h196v-433q0 -129 -32 -194.5t-109 -106t-188 -40.5t-187.5 40t-109 106.5t-32.5 194.5v433h196zM397 796q-73 0 -114 30t-41 84q0 55 40.5 85.5t111.5 30.5q74 0 114.5 -30t40.5 -85
q0 -54 -40.5 -84.5t-111.5 -30.5zM454 911q0 21 -16 32t-42 11q-27 0 -43 -11.5t-16 -31.5t16 -31.5t43 -11.5q26 0 42 11.5t16 31.5z" />
    <glyph glyph-name="uring" unicode="&#x16f;" horiz-adv-x="659" 
d="M239 513v-278q0 -57 22 -82t69 -25t69 26t22 81v278h182v-313q0 -105 -67 -161t-206 -56q-273 0 -273 219v311h182zM328 585q-74 0 -114.5 30.5t-40.5 83.5q0 55 40.5 85.5t111.5 30.5q73 0 114 -30.5t41 -84.5t-41 -84.5t-111 -30.5zM385 700q0 21 -16 32t-42 11
t-42.5 -11t-16.5 -32q0 -20 16 -31.5t43 -11.5q26 0 42 11.5t16 31.5z" />
    <glyph glyph-name="Uhungarumlaut" unicode="&#x170;" horiz-adv-x="778" 
d="M256 754v-404q0 -115 33 -156.5t100 -41.5q66 0 99.5 42t33.5 155v405h196v-433q0 -129 -32 -194.5t-109 -106t-188 -40.5t-187.5 40t-109 106.5t-32.5 194.5v433h196zM391 1025l-50 -214h-93l14 214h129zM565 1025l-50 -214h-93l14 214h129z" />
    <glyph glyph-name="uhungarumlaut" unicode="&#x171;" horiz-adv-x="659" 
d="M239 513v-278q0 -57 22 -82t69 -25t69 26t22 81v278h182v-313q0 -105 -67 -161t-206 -56q-273 0 -273 219v311h182zM349 814l-50 -214h-93l14 214h129zM523 814l-50 -214h-93l14 214h129z" />
    <glyph glyph-name="Uogonek" unicode="&#x172;" horiz-adv-x="778" 
d="M256 754v-404q0 -113 32.5 -155.5t100.5 -42.5q72 0 102.5 45.5t30.5 151.5v405h196v-433q0 -125 -28.5 -186t-90 -102t-161.5 -51h-1q-35 -27 -35 -59q0 -45 46 -45q28 0 54 19l-22 -91q-15 -10 -39 -14.5t-41 -4.5q-45 0 -71 23.5t-26 62.5q0 61 57 108
q-109 6 -174.5 46t-95.5 103.5t-30 190.5v433h196z" />
    <glyph glyph-name="uogonek" unicode="&#x173;" horiz-adv-x="659" 
d="M239 513v-278q0 -57 21 -82t70 -25t70 26t21 81v278h182v-313q0 -155 -153 -200q-86 -28 -86 -77q0 -45 46 -45q23 0 54 19l-22 -92q-32 -19 -80 -19q-43 0 -70 23t-27 63q0 63 60 111q-268 2 -268 218v312h182z" />
    <glyph glyph-name="Wcircumflex" unicode="&#x174;" horiz-adv-x="1117" 
d="M188 754l131 -487h2l158 487h157l148 -487h2l142 487h203l-240 -754h-201l-131 437h-2l-148 -437h-200l-224 754h203zM561 1040l221 -164l-77 -84l-144 111l-144 -111l-74 84z" />
    <glyph glyph-name="wcircumflex" unicode="&#x175;" horiz-adv-x="996" 
d="M187 513l127 -278l129 278h108l130 -278l129 278h201l-268 -513h-118l-127 281l-127 -281h-119l-267 513h202zM502 829l221 -164l-77 -84l-144 111l-144 -111l-74 84z" />
    <glyph glyph-name="Ycircumflex" unicode="&#x176;" horiz-adv-x="714" 
d="M215 754l141 -205l142 205h234l-277 -392v-362h-197v362l-277 392h234zM362 1040l221 -164l-77 -84l-144 111l-144 -111l-74 84z" />
    <glyph glyph-name="ycircumflex" unicode="&#x177;" horiz-adv-x="654" 
d="M194 513l138 -263l133 263h207l-410 -768h-204l174 325l-247 443h209zM352 829l221 -164l-77 -84l-144 111l-144 -111l-74 84z" />
    <glyph glyph-name="Ydieresis" unicode="&#x178;" horiz-adv-x="714" 
d="M215 754l141 -205l142 205h234l-277 -392v-362h-197v362l-277 392h234zM239 815q-43 0 -71 28t-28 70q0 41 28.5 69.5t70.5 28.5t70 -28.5t28 -69.5t-28.5 -69.5t-69.5 -28.5zM495 815q-42 0 -70.5 28t-28.5 70t28.5 70t70.5 28t70 -29t28 -69q0 -42 -28 -70t-70 -28z
" />
    <glyph glyph-name="Zacute" unicode="&#x179;" horiz-adv-x="707" 
d="M696 754l-355 -588h316v-166h-646l357 588h-296v166h624zM549 951l-171 -151l-81 59l141 172z" />
    <glyph glyph-name="zacute" unicode="&#x17a;" horiz-adv-x="559" 
d="M552 513l-240 -362h216v-151h-520l241 362h-209v151h512zM479 740l-171 -151l-81 59l141 172z" />
    <glyph glyph-name="Zdotaccent" unicode="&#x17b;" horiz-adv-x="707" 
d="M696 754l-355 -588h316v-166h-646l357 588h-296v166h624zM391 815q-42 0 -70.5 28t-28.5 70t28.5 70t70.5 28t70 -29t28 -69q0 -42 -28 -70t-70 -28z" />
    <glyph glyph-name="zdotaccent" unicode="&#x17c;" horiz-adv-x="559" 
d="M552 513l-240 -362h216v-151h-520l241 362h-209v151h512zM303 604q-42 0 -70.5 28t-28.5 70q0 41 29 69.5t70 28.5t69.5 -28.5t28.5 -69.5q0 -42 -28 -70t-70 -28z" />
    <glyph glyph-name="Zcaron" unicode="&#x17d;" horiz-adv-x="707" 
d="M696 754l-355 -588h316v-166h-646l357 588h-296v166h624zM362 928l144 112l77 -85l-221 -163l-218 163l74 85z" />
    <glyph glyph-name="zcaron" unicode="&#x17e;" horiz-adv-x="559" 
d="M552 513l-240 -362h216v-151h-520l241 362h-209v151h512zM280 717l144 112l77 -85l-221 -163l-218 163l74 85z" />
    <glyph glyph-name="florin" unicode="&#x192;" 
d="M632 639q-43 30 -77 30q-55 0 -70 -81l-14 -83h110l-14 -76h-109l-53 -284q-8 -43 -15 -73t-13 -48q-28 -93 -95.5 -150t-154.5 -57q-31 0 -65.5 4.5t-67.5 7.5l29 165q56 -10 72 -10q55 0 82.5 33t44.5 125l51 287h-86l13 76h88l25 136q18 88 75.5 138.5t143.5 50.5
q75 0 130 -34z" />
    <glyph glyph-name="Scommaaccent" unicode="&#x218;" horiz-adv-x="616" 
d="M556 712l-78 -152q-59 50 -130 50q-33 0 -58.5 -18t-25.5 -45q0 -51 107.5 -78t161.5 -78t54 -137q0 -144 -85.5 -209t-207.5 -65q-70 0 -138 22.5t-126 63.5l84 158q89 -78 173 -78q44 0 70 21t26 55q0 26 -24 46.5t-104 42.5t-119 46.5t-57.5 64.5t-18.5 99
q0 113 72.5 183t186.5 70q59 0 122.5 -17t114.5 -45zM397 -40v-103q0 -63 -48 -103t-129 -48v74q42 5 60.5 20t18.5 45h-55v115h153z" />
    <glyph glyph-name="scommaaccent" unicode="&#x219;" horiz-adv-x="513" 
d="M292 530q96 0 168 -33l-61 -116q-21 11 -48 18t-50 7q-26 0 -41.5 -10.5t-15.5 -24.5q0 -13 8.5 -20.5t22.5 -12.5t51 -12q149 -27 149 -152q0 -56 -28.5 -99t-86.5 -67.5t-127 -24.5q-111 0 -207 59l66 127q34 -23 74 -37.5t69 -14.5q24 0 41 10.5t17 28.5t-18.5 29.5
t-55.5 18.5q-86 15 -120 49.5t-34 94.5q0 83 63 132.5t164 49.5zM346 -40v-103q0 -63 -48 -103t-129 -48v74q42 5 60.5 20t18.5 45h-55v115h153z" />
    <glyph glyph-name="uni021A" unicode="&#x21a;" horiz-adv-x="533" 
d="M526 754v-166h-162v-588h-196v588h-162v166h520zM353 -40v-103q0 -63 -48 -103t-129 -48v74q42 5 60.5 20t18.5 45h-55v115h153z" />
    <glyph glyph-name="uni021B" unicode="&#x21b;" horiz-adv-x="360" 
d="M259 667v-154h103v-150h-103v-363h-182v363h-59v150h59v154h182zM255 -40v-103q0 -63 -48 -103t-129 -48v74q42 5 60.5 20t18.5 45h-55v115h153z" />
    <glyph glyph-name="dotlessj" unicode="&#x237;" horiz-adv-x="302" 
d="M242 513v-768h-182v768h182z" />
    <glyph glyph-name="circumflex" unicode="&#x2c6;" horiz-adv-x="590" 
d="M293 829l221 -164l-77 -84l-144 111l-144 -111l-74 84z" />
    <glyph glyph-name="caron" unicode="&#x2c7;" horiz-adv-x="590" 
d="M293 717l144 112l77 -85l-221 -163l-218 163l74 85z" />
    <glyph glyph-name="uni02C9" unicode="&#x2c9;" horiz-adv-x="603" 
d="M527 752v-107h-452v107h452z" />
    <glyph glyph-name="breve" unicode="&#x2d8;" horiz-adv-x="539" 
d="M187 784q5 -32 27.5 -49.5t54.5 -17.5q33 0 55.5 17.5t27.5 49.5h111q-5 -78 -56.5 -123.5t-137.5 -45.5t-137.5 45t-56.5 124h112z" />
    <glyph glyph-name="dotaccent" unicode="&#x2d9;" horiz-adv-x="402" 
d="M202 604q-42 0 -70.5 28t-28.5 70q0 41 29 69.5t70 28.5t69.5 -28.5t28.5 -69.5q0 -42 -28 -70t-70 -28z" />
    <glyph glyph-name="ring" unicode="&#x2da;" horiz-adv-x="457" 
d="M230 585q-74 0 -114.5 30.5t-40.5 83.5q0 55 40.5 85.5t111.5 30.5q73 0 114 -30.5t41 -84.5t-41 -84.5t-111 -30.5zM287 700q0 21 -16 32t-42 11t-42.5 -11t-16.5 -32q0 -20 16 -31.5t43 -11.5q26 0 42 11.5t16 31.5z" />
    <glyph glyph-name="ogonek" unicode="&#x2db;" horiz-adv-x="350" 
d="M234 0q-60 -40 -60 -77q0 -45 46 -45q25 0 54 19l-22 -91q-15 -10 -39 -14.5t-41 -4.5q-45 0 -71 23t-26 63q0 36 21.5 69.5t62.5 57.5h75z" />
    <glyph glyph-name="tilde" unicode="&#x2dc;" horiz-adv-x="549" 
d="M474 774q-7 -73 -42.5 -115.5t-87.5 -42.5q-27 0 -77 18.5t-75 18.5q-22 0 -29 -23l-5 -14h-82l-1 12q0 63 33.5 103.5t78.5 40.5q25 0 85 -17t77 -17q15 0 23.5 7.5t16.5 28.5h85z" />
    <glyph glyph-name="hungarumlaut" unicode="&#x2dd;" horiz-adv-x="539" 
d="M254 814l-50 -214h-93l14 214h129zM428 814l-50 -214h-93l14 214h129z" />
    <glyph glyph-name="uni0394" unicode="&#x394;" horiz-adv-x="773" 
d="M459 758l304 -758h-753l285 758h164zM265 179h224l-116 314z" />
    <glyph glyph-name="uni03A9" unicode="&#x3a9;" horiz-adv-x="831" 
d="M454 0v266q62 15 91 63t29 109q0 35 -12.5 64t-34 49.5t-50.5 32t-61 11.5t-61 -11.5t-50.5 -32t-34.5 -49.5t-13 -65q0 -64 30.5 -109.5t89.5 -61.5v-266h-323v173h165v12q-38 12 -68.5 36.5t-52 58t-33 75.5t-11.5 89q0 76 28.5 137t78 103t115 64.5t139.5 22.5
t140 -22t115.5 -63.5t78 -102t28.5 -137.5q0 -48 -11.5 -90t-32.5 -76t-51.5 -58.5t-69.5 -36.5v-12h165v-173h-323z" />
    <glyph glyph-name="uni03BC" unicode="&#x3bc;" horiz-adv-x="659" 
d="M239 513v-274q0 -24 3.5 -44.5t13.5 -35.5t28 -23t46 -8t46 8t28 23t13.5 35.5t3.5 44.5v274h182v-309q0 -65 -23 -108t-58 -68t-76 -35t-76 -10q-48 0 -81 16t-50 33v-288h-182v769h182z" />
    <glyph glyph-name="pi" unicode="&#x3c0;" horiz-adv-x="702" 
d="M627 18q-27 -14 -56 -19.5t-63 -5.5q-37 0 -61 10.5t-38 29.5t-19.5 44t-5.5 54v245h-115v-376h-166v376h-69v137h591v-137h-78v-216q0 -16 7 -29.5t28 -13.5q18 0 45 12v-111z" />
    <glyph glyph-name="uni0400" unicode="&#x400;" horiz-adv-x="556" 
d="M499 754v-166h-233v-126h221v-166h-221v-130h233v-166h-429v754h429zM263 1075l141 -172l-81 -59l-171 151z" />
    <glyph glyph-name="afii10023" unicode="&#x401;" horiz-adv-x="556" 
d="M499 754v-166h-233v-126h221v-166h-221v-130h233v-166h-429v754h429zM155 815q-43 0 -71 28t-28 70q0 41 28.5 69.5t70.5 28.5t70 -28.5t28 -69.5t-28.5 -69.5t-69.5 -28.5zM411 815q-42 0 -70.5 28t-28.5 70t28.5 70t70.5 28t70 -29t28 -69q0 -42 -28 -70t-70 -28z" />
    <glyph glyph-name="afii10051" unicode="&#x402;" horiz-adv-x="838" 
d="M620 754v-166h-242v-140q16 5 36.5 9t42.5 6.5t44.5 4t43.5 1.5q58 0 107.5 -13t85.5 -41t56.5 -73t20.5 -108q0 -48 -10 -92.5t-34 -78t-64 -53.5t-101 -20q-15 0 -28 1t-25 2t-24 3t-25 4v152q11 -3 22 -4t24 -1q28 0 46.5 17.5t18.5 54.5q0 23 -9 39t-24.5 27
t-35.5 16t-43 5q-12 0 -27 -0.5t-31 -2.5t-33 -5t-34 -9v-289h-196v588h-162v166h600z" />
    <glyph glyph-name="afii10052" unicode="&#x403;" horiz-adv-x="534" 
d="M514 754v-166h-248v-588h-196v754h444zM463 959l-171 -151l-81 59l141 172z" />
    <glyph glyph-name="afii10053" unicode="&#x404;" horiz-adv-x="653" 
d="M603 501q-15 20 -34 35.5t-41 26t-46.5 16t-50.5 5.5q-34 0 -63.5 -9.5t-53.5 -26.5t-42.5 -41t-28.5 -54h279v-151h-281q10 -31 28.5 -55.5t43 -41.5t55.5 -26t66 -9q24 0 47 5.5t45 16t41.5 25t35.5 33.5v-235q-38 -12 -63 -19t-44 -10.5t-34 -4.5t-32 -1
q-157 0 -281 109q-62 55 -92.5 126t-30.5 161q0 57 14.5 108.5t41 96t63.5 80t81.5 61t94.5 39t103 13.5q47 0 91 -10t88 -28v-235z" />
    <glyph glyph-name="afii10054" unicode="&#x405;" horiz-adv-x="616" 
d="M556 712l-78 -152q-59 50 -130 50q-33 0 -58.5 -18t-25.5 -45q0 -51 107.5 -78t161.5 -78t54 -137q0 -144 -85.5 -209t-207.5 -65q-70 0 -138 22.5t-126 63.5l84 158q89 -78 173 -78q44 0 70 21t26 55q0 26 -24 46.5t-104 42.5t-119 46.5t-57.5 64.5t-18.5 99
q0 113 72.5 183t186.5 70q59 0 122.5 -17t114.5 -45z" />
    <glyph glyph-name="afii10055" unicode="&#x406;" horiz-adv-x="376" 
d="M286 754v-754h-196v754h196z" />
    <glyph glyph-name="afii10056" unicode="&#x407;" horiz-adv-x="376" 
d="M286 754v-754h-196v754h196zM62 815q-43 0 -71 28t-28 70q0 41 28.5 69.5t70.5 28.5t70 -28.5t28 -69.5t-28.5 -69.5t-69.5 -28.5zM318 815q-42 0 -70.5 28t-28.5 70t28.5 70t70.5 28t70 -29t28 -69q0 -42 -28 -70t-70 -28z" />
    <glyph glyph-name="afii10057" unicode="&#x408;" horiz-adv-x="519" 
d="M429 754v-514q0 -121 -66.5 -190.5t-182.5 -69.5q-123 0 -195 111l113 119q47 -64 78 -64q32 0 44 25.5t12 78.5v504h197z" />
    <glyph glyph-name="afii10058" unicode="&#x409;" horiz-adv-x="1087" 
d="M503 0v588h-148v-284q0 -37 -5 -75.5t-16.5 -73t-30.5 -65t-47 -52.5t-67 -35t-89 -13q-30 0 -54.5 3.5t-35.5 6.5v175q11 -3 22 -5.5t24 -2.5q29 0 49 9t32 29t17 52.5t5 80.5v416h540v-294h80q69 0 122 -14.5t89 -43t55 -71.5t19 -100q0 -46 -11 -81t-31.5 -61t-48 -43
t-60.5 -27t-70 -14.5t-76 -4.5h-264zM699 309v-158h60q20 0 39 3t34 11.5t24 24t9 41.5q0 24 -9 39.5t-24.5 24t-34.5 11.5t-38 3h-60z" />
    <glyph glyph-name="afii10059" unicode="&#x40a;" horiz-adv-x="1093" 
d="M509 0v309h-243v-309h-196v754h196v-294h243v294h196v-294h80q69 0 121.5 -14.5t89 -43t55.5 -71.5t19 -100q0 -69 -24.5 -114t-65.5 -70.5t-94.5 -36t-112.5 -10.5h-264zM705 309v-158h65q20 0 39 3t34 11.5t24 24t9 41.5q0 24 -9.5 39.5t-24.5 24t-33.5 11.5t-38.5 3
h-65z" />
    <glyph glyph-name="afii10060" unicode="&#x40b;" horiz-adv-x="850" 
d="M620 754v-166h-242v-140q32 10 74 15.5t83 5.5q58 0 106.5 -10t83.5 -36.5t55 -72t20 -116.5v-234h-196v195q0 32 -8 53.5t-22.5 34t-36.5 18t-49 5.5q-21 0 -49 -3t-61 -14v-289h-196v588h-162v166h600z" />
    <glyph glyph-name="afii10061" unicode="&#x40c;" horiz-adv-x="764" 
d="M266 754v-311l239 311h243l-300 -357l327 -397h-254l-255 327v-327h-196v754h196zM547 951l-171 -151l-81 59l141 172z" />
    <glyph glyph-name="uni040D" unicode="&#x40d;" horiz-adv-x="864" 
d="M794 754v-754h-196v462h-2l-330 -462h-196v754h196v-461h2l330 461h196zM417 1061l141 -172l-81 -59l-171 151z" />
    <glyph glyph-name="afii10062" unicode="&#x40e;" 
d="M151 0l98 214l-249 540h213l134 -315l126 315h213l-342 -754h-193zM347 815q-33 0 -66 8.5t-61.5 26t-50.5 45.5t-33 68l100 41q10 -20 23.5 -33t28.5 -21t30 -11.5t29 -3.5t29 3.5t30 11.5t28.5 21t23.5 33l100 -41q-11 -40 -33 -68t-50.5 -45.5t-61.5 -26t-66 -8.5z
" />
    <glyph glyph-name="afii10145" unicode="&#x40f;" horiz-adv-x="800" 
d="M70 0v754h196v-588h268v588h196v-754h-242v-170h-176v170h-242z" />
    <glyph glyph-name="afii10017" unicode="&#x410;" horiz-adv-x="781" 
d="M500 754l284 -754h-209l-50 131h-270l-51 -131h-208l290 754h214zM310 281h163l-82 240z" />
    <glyph glyph-name="afii10018" unicode="&#x411;" horiz-adv-x="681" 
d="M70 0v754h497v-166h-301v-128h100q69 0 122 -14.5t89 -43t55 -71.5t19 -100q0 -46 -11.5 -81t-31.5 -61t-47.5 -43t-60.5 -27t-70 -14.5t-76 -4.5h-284zM266 309v-158h75q20 0 39 3t34 11.5t24 24t9 41.5q0 24 -9.5 39.5t-24.5 24t-34 11.5t-38 3h-75z" />
    <glyph glyph-name="afii10019" unicode="&#x412;" horiz-adv-x="683" 
d="M355 754q219 0 219 -196q0 -111 -83 -154v-2q77 -10 115.5 -59.5t38.5 -132.5q0 -99 -71.5 -154.5t-198.5 -55.5h-305v754h285zM266 458h21q58 0 82.5 18t24.5 55q0 38 -24.5 55.5t-84.5 17.5h-19v-146zM266 150h25q68 0 96 8t44 25t16 47q0 41 -27.5 61.5t-96.5 20.5
h-57v-162z" />
    <glyph glyph-name="afii10020" unicode="&#x413;" horiz-adv-x="534" 
d="M514 754v-166h-248v-588h-196v754h444z" />
    <glyph glyph-name="afii10021" unicode="&#x414;" horiz-adv-x="826" 
d="M726 754v-588h95v-336h-176v170h-464v-170h-176v336q47 17 75.5 47.5t44.5 70t21.5 85t5.5 90.5v295h574zM530 588h-182v-157q0 -48 -4.5 -85t-15.5 -68.5t-30 -58.5t-48 -53h280v422z" />
    <glyph glyph-name="afii10022" unicode="&#x415;" horiz-adv-x="556" 
d="M499 754v-166h-233v-126h221v-166h-221v-130h233v-166h-429v754h429z" />
    <glyph glyph-name="afii10024" unicode="&#x416;" horiz-adv-x="1092" 
d="M644 754v-315h2l197 315h233l-250 -367l272 -387h-249l-203 320h-2v-320h-196v320h-2l-203 -320h-249l272 387l-250 367h233l197 -315h2v315h196z" />
    <glyph glyph-name="afii10025" unicode="&#x417;" horiz-adv-x="663" 
d="M59 687q60 42 127 64.5t145 22.5q62 0 112 -13.5t84.5 -40.5t53 -66.5t18.5 -92.5q0 -26 -9 -51.5t-24.5 -47.5t-35 -39t-41.5 -27v-3q30 -12 54.5 -28t42.5 -37.5t27.5 -49.5t9.5 -65q0 -44 -11.5 -78t-32.5 -60t-49.5 -44t-62 -29.5t-71.5 -16.5t-77 -5
q-43 0 -85.5 6.5t-82.5 20.5t-76 35t-65 51l112 131q17 -16 36 -30.5t40.5 -24.5t45.5 -16t49 -6q20 0 41 4t38.5 13.5t28 25.5t10.5 39t-9.5 38t-27 23t-40.5 11t-50 3h-64v153h39q20 0 44 3t45 11.5t35 24.5t14 41q0 20 -10 33.5t-24.5 22.5t-33 13t-35.5 4
q-21 0 -40.5 -5t-38 -13.5t-36.5 -19.5t-36 -25z" />
    <glyph glyph-name="afii10026" unicode="&#x418;" horiz-adv-x="864" 
d="M794 754v-754h-196v462h-2l-330 -462h-196v754h196v-461h2l330 461h196z" />
    <glyph glyph-name="afii10027" unicode="&#x419;" horiz-adv-x="864" 
d="M794 754v-754h-196v462h-2l-330 -462h-196v754h196v-461h2l330 461h196zM456 815q-33 0 -66 8.5t-61.5 26t-50.5 45.5t-33 68l100 41q10 -20 23.5 -33t28.5 -21t30 -11.5t29 -3.5t29 3.5t30 11.5t28.5 21t23.5 33l100 -41q-11 -40 -33 -68t-50.5 -45.5t-61.5 -26
t-66 -8.5z" />
    <glyph glyph-name="afii10028" unicode="&#x41a;" horiz-adv-x="764" 
d="M266 754v-311l239 311h243l-300 -357l327 -397h-254l-255 327v-327h-196v754h196z" />
    <glyph glyph-name="afii10029" unicode="&#x41b;" horiz-adv-x="809" 
d="M739 754v-754h-196v588h-188v-284q0 -37 -5 -75.5t-16.5 -73t-30.5 -65t-47 -52.5t-67 -35t-89 -13q-30 0 -54.5 3.5t-35.5 6.5v175q11 -3 22 -5.5t24 -2.5q29 0 49 9t32 29t17 52.5t5 80.5v416h580z" />
    <glyph glyph-name="afii10030" unicode="&#x41c;" horiz-adv-x="1025" 
d="M361 754l153 -403l162 403h195l114 -754h-196l-57 434l-181 -434h-78l-175 434l-63 -434h-195l128 754h193z" />
    <glyph glyph-name="afii10031" unicode="&#x41d;" horiz-adv-x="815" 
d="M266 754v-291h283v291h196v-754h-196v309h-283v-309h-196v754h196z" />
    <glyph glyph-name="afii10032" unicode="&#x41e;" horiz-adv-x="886" 
d="M449 -24q-122 0 -218 51.5t-150.5 146.5t-54.5 206q0 112 53 202t153 143.5t211 53.5q110 0 208 -52.5t153.5 -140.5t55.5 -195q0 -120 -53 -214t-148.5 -147.5t-209.5 -53.5zM656 390q0 79 -64.5 139t-149.5 60q-83 0 -147.5 -59.5t-64.5 -139.5q0 -96 62.5 -160.5
t150.5 -64.5q90 0 151.5 66t61.5 159z" />
    <glyph glyph-name="afii10033" unicode="&#x41f;" horiz-adv-x="800" 
d="M730 754v-754h-196v588h-268v-588h-196v754h660z" />
    <glyph glyph-name="afii10034" unicode="&#x420;" horiz-adv-x="667" 
d="M374 754q130 0 200 -65t70 -183q0 -129 -67 -192.5t-195 -63.5h-116v-250h-196v754h304zM266 408h17l57 1q44 0 72 20.5t28 70.5q0 38 -13 58.5t-38.5 29t-95.5 8.5h-27v-188z" />
    <glyph glyph-name="afii10035" unicode="&#x421;" horiz-adv-x="653" 
d="M603 501q-28 38 -73 60.5t-99 22.5q-86 0 -143.5 -59.5t-57.5 -149.5t56.5 -147.5t147.5 -57.5q47 0 92.5 22t76.5 58v-235q-75 -22 -105 -28.5t-68 -6.5q-159 0 -281.5 109.5t-122.5 286.5q0 109 54 201t146 144.5t198 52.5q85 0 179 -38v-235z" />
    <glyph glyph-name="afii10036" unicode="&#x422;" horiz-adv-x="550" 
d="M535 754v-166h-162v-588h-196v588h-162v166h520z" />
    <glyph glyph-name="afii10037" unicode="&#x423;" 
d="M151 0l98 214l-249 540h213l134 -315l126 315h213l-342 -754h-193z" />
    <glyph glyph-name="afii10038" unicode="&#x424;" horiz-adv-x="948" 
d="M570 784v-84h17q82 0 144.5 -22t105 -62.5t64 -97t21.5 -124.5q0 -67 -21.5 -122t-64 -94t-105 -60.5t-144.5 -21.5h-17v-96h-192v96h-17q-82 0 -144.5 21.5t-105 60.5t-64 94t-21.5 122q0 68 21.5 124.5t64 97t105 62.5t144.5 22h17v84h192zM380 548q-31 0 -59.5 -7
t-50.5 -24t-35 -45.5t-13 -71.5q0 -39 12 -67.5t33 -47t49.5 -28t61.5 -9.5h5v300h-3zM565 548v-300h5q34 0 62.5 9.5t49 28t32.5 47t12 67.5q0 43 -13 71.5t-35 45.5t-50.5 24t-59.5 7h-3z" />
    <glyph glyph-name="afii10039" unicode="&#x425;" horiz-adv-x="789" 
d="M287 754l114 -195l116 195h240l-240 -351l278 -403h-235l-159 246l-172 -246h-237l295 403l-242 351h242z" />
    <glyph glyph-name="afii10040" unicode="&#x426;" horiz-adv-x="830" 
d="M70 0v754h196v-588h268v588h196v-588h95v-336h-176v170h-579z" />
    <glyph glyph-name="afii10041" unicode="&#x427;" horiz-adv-x="739" 
d="M472 306q-32 -10 -74 -15.5t-83 -5.5q-58 0 -106.5 10t-84 36t-55 72t-19.5 117v234h196v-195q0 -32 8 -53.5t23 -34.5t36 -18t49 -5q20 0 48.5 3t61.5 14v289h197v-754h-197v306z" />
    <glyph glyph-name="afii10042" unicode="&#x428;" horiz-adv-x="1110" 
d="M70 0v754h196v-588h191v588h196v-588h191v588h196v-754h-970z" />
    <glyph glyph-name="afii10043" unicode="&#x429;" horiz-adv-x="1140" 
d="M70 0v754h196v-588h191v588h196v-588h191v588h196v-588h95v-336h-176v170h-889z" />
    <glyph glyph-name="afii10044" unicode="&#x42a;" horiz-adv-x="779" 
d="M175 0v588h-155v166h351v-294h100q69 0 122 -14.5t89 -43t55 -71.5t19 -100q0 -69 -24.5 -114t-65.5 -70.5t-94.5 -36t-112.5 -10.5h-284zM371 309v-158h75q20 0 39 3t34 11.5t24 24t9 41.5q0 24 -9.5 39.5t-24.5 24t-34 11.5t-38 3h-75z" />
    <glyph glyph-name="afii10045" unicode="&#x42b;" horiz-adv-x="975" 
d="M266 754v-294h100q69 0 122 -14.5t89 -43t55 -71.5t19 -100q0 -46 -11.5 -81t-31.5 -61t-47.5 -43t-60.5 -27t-70 -14.5t-76 -4.5h-284v754h196zM905 754v-754h-196v754h196zM266 309v-158h75q20 0 39 3t34 11.5t24 24t9 41.5q0 24 -9.5 39.5t-24.5 24t-34 11.5t-38 3
h-75z" />
    <glyph glyph-name="afii10046" unicode="&#x42c;" horiz-adv-x="674" 
d="M266 754v-294h100q69 0 122 -14.5t89 -43t55 -71.5t19 -100q0 -46 -11.5 -81t-31.5 -61t-47.5 -43t-60.5 -27t-70 -14.5t-76 -4.5h-284v754h196zM266 309v-158h75q20 0 39 3t34 11.5t24 24t9 41.5q0 24 -9.5 39.5t-24.5 24t-34 11.5t-38 3h-75z" />
    <glyph glyph-name="afii10047" unicode="&#x42d;" horiz-adv-x="653" 
d="M50 736q44 18 88 28t91 10q53 0 103 -13.5t94.5 -39t81 -61t63.5 -80t41.5 -96t14.5 -108.5q0 -90 -30.5 -161t-92.5 -126q-124 -109 -281 -109q-17 0 -32 1t-34 4.5t-44 10.5t-63 19v235q16 -19 35.5 -33.5t41 -25t45 -16t47.5 -5.5q34 0 64.5 9t55.5 26t43.5 41.5
t28.5 55.5h-280v151h279q-11 30 -29 54t-42.5 41t-54 26.5t-62.5 9.5q-26 0 -50.5 -5.5t-46.5 -16t-41.5 -26t-33.5 -35.5v235z" />
    <glyph glyph-name="afii10048" unicode="&#x42e;" horiz-adv-x="1198" 
d="M266 754v-294h98q14 68 51 126.5t90 101t119 67t140 24.5q56 0 108 -14.5t97.5 -40.5t82.5 -62.5t64 -81.5t41.5 -96t14.5 -107t-14.5 -107t-41.5 -95.5t-64 -81t-82.5 -63t-97.5 -40.5t-108 -14q-50 0 -96 11t-87.5 31.5t-77.5 49.5t-64 65t-47.5 77.5t-28.5 88.5h-97
v-299h-196v754h196zM560 377q0 -43 16 -80.5t43 -65.5t64.5 -44t79.5 -16q43 0 80 16t64.5 44t43.5 65.5t16 80.5t-16 80.5t-43.5 65.5t-64.5 44.5t-80 16.5q-42 0 -79.5 -16.5t-64.5 -44.5t-43 -65.5t-16 -80.5z" />
    <glyph glyph-name="afii10049" unicode="&#x42f;" horiz-adv-x="703" 
d="M274 0h-244l208 289q-39 7 -69.5 27t-51.5 50t-32 68t-11 80q0 59 19 104t53 75t81.5 45.5t105.5 15.5h300v-754h-196v275h-2zM437 599h-17q-74 0 -107.5 -24t-33.5 -73t33.5 -73t107.5 -24h17v194z" />
    <glyph glyph-name="afii10065" unicode="&#x430;" horiz-adv-x="680" 
d="M439 513h182v-513h-182v57h-2q-23 -36 -63.5 -55t-91.5 -19q-107 0 -183 78.5t-76 195.5q0 115 74.5 194t182.5 79q46 0 88 -17t71 -50v50zM445 256q0 51 -33 83.5t-85 32.5q-51 0 -83.5 -32.5t-32.5 -83.5q0 -52 32.5 -83.5t84.5 -31.5t84.5 31.5t32.5 83.5z" />
    <glyph glyph-name="afii10066" unicode="&#x431;" horiz-adv-x="649" 
d="M573 651l-179 -21q-55 -6 -94 -22t-64.5 -39t-38.5 -53t-17 -65l2 -1q20 19 42.5 32.5t45 22t45 12t43.5 3.5q63 0 113 -17.5t84.5 -51t53 -83t18.5 -112.5t-22.5 -113.5t-62.5 -86t-94.5 -54.5t-119.5 -19q-81 0 -139 24t-95 69.5t-54.5 109.5t-17.5 143q0 46 5.5 94.5
t18 94t33.5 86.5t51 73q19 19 42 36t55 32t76 27.5t105 23.5l165 29v-174zM328 141q27 0 48.5 8.5t37 23.5t23.5 36.5t8 46.5q0 24 -8.5 45.5t-24 37t-37 24.5t-48.5 9q-26 0 -47 -8.5t-36.5 -24t-24 -37t-8.5 -46.5q0 -26 8.5 -47.5t24 -36t37 -23t47.5 -8.5z" />
    <glyph glyph-name="afii10067" unicode="&#x432;" horiz-adv-x="600" 
d="M371 513q29 0 59 -6t54 -20.5t39 -39t15 -61.5q0 -42 -19.5 -72.5t-58.5 -46.5v-2q26 -4 46.5 -15.5t34.5 -28.5t21.5 -37.5t7.5 -42.5q0 -36 -12 -62.5t-33.5 -44t-51 -26t-64.5 -8.5h-349v513h311zM320 111q18 0 30.5 3.5t19.5 10t10.5 16.5t3.5 23q0 25 -17 37t-49 12
h-76v-102h78zM310 308q34 0 46 12t12 36q0 23 -15 33.5t-44 10.5h-67v-92h68z" />
    <glyph glyph-name="afii10068" unicode="&#x433;" horiz-adv-x="425" 
d="M415 513v-150h-173v-363h-182v513h355z" />
    <glyph glyph-name="afii10069" unicode="&#x434;" horiz-adv-x="688" 
d="M603 513v-373h75v-284h-161v144h-334v-144h-161v284q30 7 51.5 28.5t35 50t19.5 59t6 55.5v180h469zM298 320q0 -28 -6 -55t-16 -50.5t-23.5 -42.5t-28.5 -32h207v233h-133v-53z" />
    <glyph glyph-name="afii10070" unicode="&#x435;" horiz-adv-x="610" 
d="M204 226q0 -114 114 -114q29 0 50.5 10.5t36.5 36.5h175q-18 -79 -88.5 -127.5t-173.5 -48.5q-135 0 -215.5 74.5t-80.5 198.5q0 123 77.5 198.5t206.5 75.5q133 0 207 -76t74 -213v-15h-383zM418 331q-7 37 -36.5 59t-67.5 22q-40 0 -69.5 -21.5t-37.5 -59.5h211z" />
    <glyph glyph-name="afii10072" unicode="&#x436;" horiz-adv-x="932" 
d="M547 513v-208h2l132 208h216l-181 -240l206 -273h-220l-153 224h-2v-224h-172v224h-2l-153 -224h-220l206 273l-181 240h216l132 -208h2v208h172z" />
    <glyph glyph-name="afii10073" unicode="&#x437;" horiz-adv-x="535" 
d="M44 463q25 13 51 24t53 18.5t55.5 12t59.5 4.5q40 0 78.5 -7.5t69.5 -25t50.5 -45.5t19.5 -70q0 -17 -5.5 -34t-16 -32.5t-25 -26.5t-32.5 -18v-2q22 -6 40.5 -15.5t32.5 -23.5t22 -32.5t8 -41.5q0 -45 -18.5 -76.5t-51.5 -51.5t-77 -28.5t-94 -8.5q-66 0 -127.5 19
t-111.5 51l81 116q30 -25 62.5 -37t73.5 -12q11 0 25 1.5t26 6t20 13t8 22.5q0 13 -7.5 21t-18.5 12t-24.5 5t-25.5 1h-63v111h52q15 0 29 1.5t24.5 6.5t17 12.5t6.5 20.5q0 12 -6 19.5t-16 11.5t-24 5.5t-29 1.5q-33 0 -61.5 -10t-57.5 -29z" />
    <glyph glyph-name="afii10074" unicode="&#x438;" horiz-adv-x="658" 
d="M60 0v513h173v-261h1l202 261h162v-513h-182v261h-1l-202 -261h-153z" />
    <glyph glyph-name="afii10075" unicode="&#x439;" horiz-adv-x="658" 
d="M60 0v513h173v-261h1l202 261h162v-513h-182v261h-1l-202 -261h-153zM329 585q-33 0 -66 8.5t-61.5 26t-50.5 45.5t-33 68l100 41q10 -20 23.5 -33t28.5 -21t30 -11.5t29 -3.5t29 3.5t30 11.5t28.5 21t23.5 33l100 -41q-11 -40 -33 -68t-50.5 -45.5t-61.5 -26t-66 -8.5z
" />
    <glyph glyph-name="afii10076" unicode="&#x43a;" horiz-adv-x="650" 
d="M242 513v-208l164 208h230l-221 -240l235 -273h-234l-174 224v-224h-182v513h182z" />
    <glyph glyph-name="afii10077" unicode="&#x43b;" horiz-adv-x="658" 
d="M19 132q5 -2 11 -3t13 -1q19 0 32 8t21 22t11 34.5t3 46.5v274h488v-513h-182v363h-124v-124q0 -31 -4 -61.5t-13.5 -58t-25 -51.5t-38.5 -41t-54.5 -27t-73.5 -10q-21 0 -37 3t-27 7v132z" />
    <glyph glyph-name="afii10078" unicode="&#x43c;" horiz-adv-x="806" 
d="M119 513h159l125 -268l125 268h159l84 -513h-173l-39 262h-2l-121 -262h-66l-120 262h-2l-40 -262h-173z" />
    <glyph glyph-name="afii10079" unicode="&#x43d;" horiz-adv-x="658" 
d="M242 513v-175h174v175h182v-513h-182v188h-174v-188h-182v513h182z" />
    <glyph glyph-name="afii10080" unicode="&#x43e;" horiz-adv-x="662" 
d="M331 -17q-134 0 -221.5 76.5t-87.5 196.5t87 197t222 77t222 -76.5t87 -197.5q0 -120 -87 -196.5t-222 -76.5zM448 256q0 51 -33 83.5t-85 32.5q-51 0 -83.5 -32.5t-32.5 -83.5q0 -52 33 -83.5t84 -31.5q53 0 85 31.5t32 83.5z" />
    <glyph glyph-name="afii10081" unicode="&#x43f;" horiz-adv-x="658" 
d="M598 513v-513h-182v363h-174v-363h-182v513h538z" />
    <glyph glyph-name="afii10082" unicode="&#x440;" horiz-adv-x="680" 
d="M401 -17q-49 0 -91 18t-68 48v-304h-182v768h182v-58h2q22 35 63.5 55t92.5 20q107 0 182.5 -80t75.5 -195q0 -114 -74 -193t-183 -79zM470 256q0 51 -33 83.5t-85 32.5q-51 0 -83.5 -32.5t-32.5 -83.5q0 -52 32.5 -83.5t84.5 -31.5q53 0 85 31.5t32 83.5z" />
    <glyph glyph-name="afii10083" unicode="&#x441;" horiz-adv-x="485" 
d="M437 346q-51 36 -94 36q-52 0 -88.5 -36.5t-36.5 -88.5q0 -55 35.5 -90.5t92.5 -35.5q25 0 49.5 9.5t41.5 25.5v-154q-59 -29 -128 -29q-75 0 -140 35.5t-102 97.5t-37 135q0 122 82 200.5t205 78.5q30 0 58.5 -6.5t61.5 -23.5v-154z" />
    <glyph glyph-name="afii10084" unicode="&#x442;" horiz-adv-x="490" 
d="M470 513v-150h-134v-363h-182v363h-134v150h450z" />
    <glyph glyph-name="afii10085" unicode="&#x443;" horiz-adv-x="654" 
d="M195 513l137 -263l134 263h207l-411 -769h-204l175 326l-248 443h210z" />
    <glyph glyph-name="afii10086" unicode="&#x444;" horiz-adv-x="812" 
d="M497 754v-241h8q68 0 121 -19.5t89.5 -55t55.5 -83t19 -103.5q0 -59 -19.5 -107t-56.5 -82t-90 -52.5t-119 -18.5h-8v-248h-182v248h-8q-66 0 -119 18.5t-90 52.5t-56.5 82t-19.5 107q0 56 19 103.5t55.5 83t89.5 55t121 19.5h8v241h182zM488 383v-261h2q31 0 54 10.5
t39 28.5t24 42t8 50q0 25 -8 48.5t-23.5 41.5t-38.5 29t-53 11h-4zM320 383q-30 0 -53 -11t-38.5 -29t-23.5 -41.5t-8 -48.5q0 -26 8 -50t24 -42t39 -28.5t54 -10.5h2v261h-4z" />
    <glyph glyph-name="afii10087" unicode="&#x445;" horiz-adv-x="712" 
d="M264 513l91 -106l93 106h235l-212 -235l256 -278h-240l-132 152l-131 -152h-239l256 278l-208 235h231z" />
    <glyph glyph-name="afii10088" unicode="&#x446;" horiz-adv-x="693" 
d="M60 0v513h182v-363h174v363h182v-363h85v-294h-161v144h-462z" />
    <glyph glyph-name="afii10089" unicode="&#x447;" horiz-adv-x="611" 
d="M551 513v-513h-182v170q-12 -4 -27 -7t-32 -5t-34 -3t-32 -1q-43 0 -80 7.5t-63 27t-41 54t-15 88.5v182h174v-159q0 -21 5 -34t14.5 -21t23 -11.5t30.5 -3.5q14 0 35 2t42 9v218h182z" />
    <glyph glyph-name="afii10090" unicode="&#x448;" horiz-adv-x="954" 
d="M60 0v513h182v-363h144v363h182v-363h144v363h182v-513h-834z" />
    <glyph glyph-name="afii10091" unicode="&#x449;" horiz-adv-x="989" 
d="M60 0v513h182v-363h144v363h182v-363h144v363h182v-363h85v-294h-161v144h-758z" />
    <glyph glyph-name="afii10092" unicode="&#x44a;" horiz-adv-x="679" 
d="M469 343q93 0 139 -45t46 -125q0 -41 -14 -73t-38.5 -54.5t-58.5 -34t-74 -11.5h-314v363h-135v150h317v-170h132zM337 119h71q12 0 22.5 3t19 9t13 16t4.5 25t-4.5 25t-13.5 16.5t-20 9t-24 2.5h-68v-106z" />
    <glyph glyph-name="afii10093" unicode="&#x44b;" horiz-adv-x="843" 
d="M364 343q46 0 80.5 -11.5t58 -33.5t35 -53.5t11.5 -71.5q0 -41 -14 -73t-38.5 -54.5t-58.5 -34t-74 -11.5h-304v513h182v-170h122zM783 513v-513h-182v513h182zM242 119h61q12 0 22.5 3t19 9t13 16t4.5 25t-4.5 25t-13.5 16.5t-20 9t-24 2.5h-58v-106z" />
    <glyph glyph-name="afii10094" unicode="&#x44c;" horiz-adv-x="584" 
d="M374 343q46 0 81 -11.5t58 -33.5t34.5 -53.5t11.5 -71.5q0 -41 -14 -73t-39 -54.5t-58.5 -34t-73.5 -11.5h-314v513h182v-170h132zM242 119h71q12 0 23 3t19 9t12.5 16t4.5 25t-4.5 25t-13 16.5t-20 9t-24.5 2.5h-68v-106z" />
    <glyph glyph-name="afii10095" unicode="&#x44d;" horiz-adv-x="530" 
d="M48 500q7 3 21 8t34 10t43 8.5t47 3.5q63 0 119 -20t98 -56.5t66 -88t24 -114.5q0 -58 -24 -107t-64.5 -85t-95 -56t-115.5 -20q-16 0 -36.5 1.5t-41 5.5t-40.5 9.5t-35 12.5v144q9 -6 20.5 -11.5t26 -11t32 -9t37.5 -3.5q52 0 86.5 22t49.5 57h-181v113h180
q-8 17 -20.5 31.5t-29 25t-37.5 16.5t-45 6q-21 0 -38 -3t-31.5 -8.5t-26.5 -11.5t-23 -13v144z" />
    <glyph glyph-name="afii10096" unicode="&#x44e;" horiz-adv-x="915" 
d="M242 513v-187h65q11 47 37 84.5t63.5 64t85 41t101.5 14.5q64 0 119 -19t95 -54.5t62.5 -86.5t22.5 -114t-22.5 -113.5t-62 -86t-94.5 -54.5t-120 -19q-54 0 -102 14.5t-85.5 41.5t-63.5 65.5t-37 86.5h-64v-191h-182v513h182zM594 141q27 0 49 8.5t37 23.5t23 36.5
t8 46.5q0 24 -8.5 45.5t-23.5 37t-37 24.5t-49 9q-26 0 -47 -8.5t-36.5 -24t-24 -37t-8.5 -46.5q0 -26 8.5 -47.5t24 -36t37 -23t47.5 -8.5z" />
    <glyph glyph-name="afii10097" unicode="&#x44f;" horiz-adv-x="607" 
d="M547 513v-513h-182v164h-9l-117 -164h-214l153 182q-27 8 -49 20t-38 30t-25 43t-9 60q0 51 17 85.5t46.5 55t70 29t87.5 8.5h269zM365 395h-57q-14 0 -27 -2.5t-22.5 -9.5t-15.5 -18.5t-6 -29.5t5 -29.5t14.5 -18t22 -9t27.5 -2.5h59v119z" />
    <glyph glyph-name="uni0450" unicode="&#x450;" horiz-adv-x="610" 
d="M204 226q0 -114 114 -114q29 0 50.5 10.5t36.5 36.5h175q-18 -79 -88.5 -127.5t-173.5 -48.5q-135 0 -215.5 74.5t-80.5 198.5q0 123 77.5 198.5t206.5 75.5q133 0 207 -76t74 -213v-15h-383zM418 331q-7 37 -36.5 59t-67.5 22q-40 0 -69.5 -21.5t-37.5 -59.5h211z
M290 820l141 -172l-81 -59l-171 151z" />
    <glyph glyph-name="afii10071" unicode="&#x451;" horiz-adv-x="610" 
d="M204 226q0 -114 114 -114q29 0 50.5 10.5t36.5 36.5h175q-18 -79 -88.5 -127.5t-173.5 -48.5q-135 0 -215.5 74.5t-80.5 198.5q0 123 77.5 198.5t206.5 75.5q133 0 207 -76t74 -213v-15h-383zM418 331q-7 37 -36.5 59t-67.5 22q-40 0 -69.5 -21.5t-37.5 -59.5h211z
M177 604q-41 0 -70 28.5t-29 69.5q0 40 28.5 69t70.5 29q41 0 69.5 -29t28.5 -69q0 -41 -28.5 -69.5t-69.5 -28.5zM433 604q-41 0 -70 28.5t-29 69.5q0 40 28.5 69t70.5 29q40 0 69 -28.5t29 -69.5t-29 -69.5t-69 -28.5z" />
    <glyph glyph-name="afii10099" unicode="&#x452;" horiz-adv-x="661" 
d="M242 830v-125h178v-117h-178v-140h2q32 42 71 62t93 20q47 0 83 -15t60.5 -42.5t37 -67t12.5 -88.5v-317q0 -31 -4 -61.5t-13.5 -58t-25 -51.5t-38.5 -41t-54.5 -27t-73.5 -10q-20 0 -36.5 3t-27.5 7v118q5 -2 10.5 -3t13.5 -1q19 0 32 8t20.5 22t11 34.5t3.5 46.5v282
q0 63 -20.5 90t-61.5 27q-24 0 -41.5 -9t-29.5 -25t-18 -37.5t-6 -46.5v-267h-182v588h-92v117h92v125h182z" />
    <glyph glyph-name="afii10100" unicode="&#x453;" horiz-adv-x="425" 
d="M415 513v-150h-173v-363h-182v513h355zM405 740l-171 -151l-81 59l141 172z" />
    <glyph glyph-name="afii10101" unicode="&#x454;" horiz-adv-x="530" 
d="M482 356q-10 7 -22.5 13t-27 11.5t-32 8.5t-37.5 3q-25 0 -45.5 -6t-37.5 -16.5t-29.5 -25t-20.5 -31.5h181v-113h-182q16 -35 50 -57t87 -22q20 0 37 3.5t32 9t26.5 11t20.5 11.5v-144q-16 -7 -35.5 -12.5t-40 -9.5t-40.5 -5.5t-37 -1.5q-61 0 -115.5 20t-95 56
t-64.5 85t-24 107q0 63 24 114.5t66 88t97.5 56.5t119.5 20q24 0 47 -3.5t42.5 -8.5t34 -10t21.5 -8v-144z" />
    <glyph glyph-name="afii10102" unicode="&#x455;" horiz-adv-x="513" 
d="M292 530q96 0 168 -33l-61 -116q-21 11 -48 18t-50 7q-26 0 -41.5 -10.5t-15.5 -24.5q0 -13 8.5 -20.5t22.5 -12.5t51 -12q149 -27 149 -152q0 -56 -28.5 -99t-86.5 -67.5t-127 -24.5q-111 0 -207 59l66 127q34 -23 74 -37.5t69 -14.5q24 0 41 10.5t17 28.5t-18.5 29.5
t-55.5 18.5q-86 15 -120 49.5t-34 94.5q0 83 63 132.5t164 49.5z" />
    <glyph glyph-name="afii10103" unicode="&#x456;" horiz-adv-x="322" 
d="M161 608q-42 0 -72 29.5t-30 72.5q0 41 29.5 71.5t72.5 30.5q42 0 72 -30t30 -72q0 -43 -30.5 -72.5t-71.5 -29.5zM252 513v-513h-182v513h182z" />
    <glyph glyph-name="afii10104" unicode="&#x457;" horiz-adv-x="322" 
d="M252 513v-513h-182v513h182zM38 604q-41 0 -70 28.5t-29 69.5q0 40 28.5 69t70.5 29q41 0 69.5 -29t28.5 -69q0 -41 -28.5 -69.5t-69.5 -28.5zM294 604q-41 0 -70 28.5t-29 69.5q0 40 28.5 69t70.5 29q40 0 69 -28.5t29 -69.5t-29 -69.5t-69 -28.5z" />
    <glyph glyph-name="afii10105" unicode="&#x458;" horiz-adv-x="322" 
d="M161 608q-42 0 -72 29.5t-30 72.5q0 41 29.5 71.5t72.5 30.5q42 0 72 -30t30 -72q0 -43 -30.5 -72.5t-71.5 -29.5zM252 513v-768h-182v768h182z" />
    <glyph glyph-name="afii10106" unicode="&#x459;" horiz-adv-x="910" 
d="M19 132q5 -2 11 -3t13 -1q19 0 32 8t21 22t11 34.5t3 46.5v274h468v-170h122q47 0 81.5 -11.5t57.5 -33.5t34.5 -53.5t11.5 -71.5q0 -41 -14 -73t-38.5 -54.5t-58.5 -34t-74 -11.5h-304v363h-104v-124q0 -31 -4 -61.5t-13.5 -58t-25 -51.5t-38.5 -41t-54.5 -27t-73.5 -10
q-21 0 -37 3t-27 7v132zM578 119h66q12 0 22.5 3t18.5 9t13 16t5 25t-5 25t-13 16.5t-19.5 9t-24.5 2.5h-63v-106z" />
    <glyph glyph-name="afii10107" unicode="&#x45a;" horiz-adv-x="910" 
d="M700 343q47 0 81.5 -11.5t57.5 -33.5t34.5 -53.5t11.5 -71.5q0 -41 -14 -73t-38.5 -54.5t-58.5 -34t-74 -11.5h-304v220h-154v-220h-182v513h182v-170h154v170h182v-170h122zM578 119h66q12 0 22.5 3t18.5 9t13 16t5 25t-5 25t-13 16.5t-19.5 9t-24.5 2.5h-63v-106z" />
    <glyph glyph-name="afii10108" unicode="&#x45b;" horiz-adv-x="661" 
d="M60 705v125h182v-125h178v-117h-178v-140h2q32 42 71 62t93 20q47 0 83 -15t60.5 -42.5t37 -67t12.5 -88.5v-317h-182v268q0 63 -20.5 90t-61.5 27q-24 0 -41.5 -9t-29.5 -25t-18 -37.5t-6 -46.5v-267h-182v588h-92v117h92z" />
    <glyph glyph-name="afii10109" unicode="&#x45c;" horiz-adv-x="650" 
d="M242 513v-208l164 208h230l-221 -240l235 -273h-234l-174 224v-224h-182v513h182zM494 740l-171 -151l-81 59l141 172z" />
    <glyph glyph-name="uni045D" unicode="&#x45d;" horiz-adv-x="658" 
d="M60 0v513h173v-261h1l202 261h162v-513h-182v261h-1l-202 -261h-153zM314 820l141 -172l-81 -59l-171 151z" />
    <glyph glyph-name="afii10110" unicode="&#x45e;" horiz-adv-x="654" 
d="M194 513l138 -263l133 263h207l-410 -768h-204l174 325l-247 443h209zM332 585q-33 0 -66 8.5t-61.5 26t-50.5 45.5t-33 68l100 41q10 -20 23.5 -33t28.5 -21t30 -11.5t29 -3.5t29 3.5t30 11.5t28.5 21t23.5 33l100 -41q-11 -40 -33 -68t-50.5 -45.5t-61.5 -26t-66 -8.5z
" />
    <glyph glyph-name="afii10193" unicode="&#x45f;" horiz-adv-x="658" 
d="M60 0v513h182v-363h174v363h182v-513h-188v-144h-161v144h-189z" />
    <glyph glyph-name="afii10148" unicode="&#x474;" horiz-adv-x="761" 
d="M198 754l181 -458l183 458h213l-321 -754h-153l-316 754h213z" />
    <glyph glyph-name="afii10196" unicode="&#x475;" horiz-adv-x="623" 
d="M188 513l124 -263l122 263h204l-268 -513h-117l-268 513h203z" />
    <glyph glyph-name="afii10050" unicode="&#x490;" horiz-adv-x="564" 
d="M544 909v-321h-278v-588h-196v754h283v155h191z" />
    <glyph glyph-name="afii10098" unicode="&#x491;" horiz-adv-x="465" 
d="M455 663v-300h-213v-363h-182v513h233v150h162z" />
    <glyph glyph-name="endash" unicode="&#x2013;" horiz-adv-x="500" 
d="M500 396v-150h-500v150h500z" />
    <glyph glyph-name="emdash" unicode="&#x2014;" horiz-adv-x="1000" 
d="M870 396v-150h-740v150h740z" />
    <glyph glyph-name="quoteleft" unicode="&#x2018;" horiz-adv-x="372" 
d="M319 754l-130 -331h-170l184 331h116z" />
    <glyph glyph-name="quoteright" unicode="&#x2019;" horiz-adv-x="372" 
d="M353 754l-184 -331h-116l130 331h170z" />
    <glyph glyph-name="quotesinglbase" unicode="&#x201a;" horiz-adv-x="338" 
d="M319 191l-184 -331h-116l130 331h170z" />
    <glyph glyph-name="quotedblleft" unicode="&#x201c;" horiz-adv-x="628" 
d="M319 754l-130 -331h-170l184 331h116zM575 754l-130 -331h-170l184 331h116z" />
    <glyph glyph-name="quotedblright" unicode="&#x201d;" horiz-adv-x="628" 
d="M353 754l-184 -331h-116l130 331h170zM609 754l-184 -331h-116l130 331h170z" />
    <glyph glyph-name="quotedblbase" unicode="&#x201e;" horiz-adv-x="594" 
d="M319 191l-184 -331h-116l130 331h170zM575 191l-184 -331h-116l130 331h170z" />
    <glyph glyph-name="dagger" unicode="&#x2020;" 
d="M426 754v-205h177v-144h-177v-585h-166v585h-176v144h176v205h166z" />
    <glyph glyph-name="daggerdbl" unicode="&#x2021;" 
d="M427 754v-185h176v-144h-176v-142h176v-144h-176v-318h-166v318h-177v144h177v142h-177v144h177v185h166z" />
    <glyph glyph-name="bullet" unicode="&#x2022;" 
d="M344 189q-78 0 -133.5 54.5t-55.5 133.5q0 80 55.5 134.5t133.5 54.5q79 0 133.5 -55.5t54.5 -133.5t-54.5 -133t-133.5 -55z" />
    <glyph glyph-name="ellipsis" unicode="&#x2026;" horiz-adv-x="1000" 
d="M167 -20q-48 0 -82.5 35t-34.5 82q0 49 34.5 83t82.5 34t82.5 -34.5t34.5 -82.5t-34.5 -82.5t-82.5 -34.5zM500 -20q-48 0 -82.5 34.5t-34.5 82.5q0 49 34 83t83 34q48 0 82.5 -34t34.5 -83t-34.5 -83t-82.5 -34zM833 -20q-48 0 -82.5 35t-34.5 82q0 49 34 83t83 34
q48 0 82.5 -34t34.5 -83t-34.5 -83t-82.5 -34z" />
    <glyph glyph-name="perthousand" unicode="&#x2030;" horiz-adv-x="1460" 
d="M225 395q-93 0 -149.5 50.5t-56.5 135.5q0 82 57 132.5t149 50.5q91 0 148.5 -49.5t57.5 -133.5q0 -85 -56.5 -135.5t-149.5 -50.5zM755 754l-438 -754h-98l438 754h98zM310 579q0 35 -25 60t-60 25t-60 -25t-25 -60q0 -36 25 -60t60 -24t60 25t25 59zM750 -9
q-95 0 -150.5 50t-55.5 135q0 84 57.5 133.5t148.5 49.5t148.5 -50t57.5 -133q0 -85 -56.5 -135t-149.5 -50zM1235 -9q-93 0 -149.5 50t-56.5 135q0 82 57.5 132.5t148.5 50.5q92 0 149 -50.5t57 -132.5q0 -85 -56.5 -135t-149.5 -50zM835 174q0 36 -25 60.5t-60 24.5
t-60 -25t-25 -60q0 -36 25 -60t60 -24t60 25t25 59zM1320 174q0 35 -24.5 60t-61.5 25q-35 0 -59.5 -25t-24.5 -60q0 -36 25 -60t60 -24t60 24t25 60z" />
    <glyph glyph-name="guilsinglleft" unicode="&#x2039;" horiz-adv-x="354" 
d="M298 497l-126 -177l129 -174l-103 -72l-172 246l172 246z" />
    <glyph glyph-name="guilsinglright" unicode="&#x203a;" horiz-adv-x="354" 
d="M156 566l172 -246l-172 -246l-103 72l129 174l-126 177z" />
    <glyph glyph-name="fraction" unicode="&#x2044;" horiz-adv-x="194" 
d="M365 754l-438 -754h-98l438 754h98z" />
    <glyph glyph-name="Euro" unicode="&#x20ac;" 
d="M598 586q-41 21 -111 21q-63 0 -114.5 -33t-65.5 -88h269l-25 -79h-253l-1 -13v-18l1 -28h238l-26 -77h-202q18 -58 61.5 -90t104.5 -32q74 0 129 31l34 -156q-71 -38 -181 -38q-130 0 -223.5 78t-115.5 207h-99l26 77h63l-1 12v17q0 21 2 30h-85l27 79h60
q26 125 129.5 203t246.5 78q47 0 93.5 -7.5t78.5 -20.5z" />
    <glyph glyph-name="afii61289" unicode="&#x2113;" horiz-adv-x="545" 
d="M290 287v-112q0 -30 16 -48.5t46 -18.5q38 0 96 40h2l57 -87q-48 -39 -95 -57.5t-102 -18.5q-85 0 -137 45t-52 128v19l-59 -49h-2l-59 91l119 94v257q0 90 59.5 153t149.5 63q79 0 127 -46.5t48 -122.5q0 -82 -51.5 -161t-162.5 -169zM290 428q76 80 76 178q0 31 -11 50
t-27 19t-27 -20.5t-11 -51.5v-175z" />
    <glyph glyph-name="afii61352" unicode="&#x2116;" horiz-adv-x="1325" 
d="M260 754l309 -461h2v461h196v-754h-196l-309 462h-2v-462h-196v754h196zM1262 150v-150h-406v150h406zM1275 409q0 -46 -16 -82t-44.5 -61.5t-68.5 -39t-87 -13.5q-49 0 -88.5 14t-68 39.5t-44 61.5t-15.5 81q0 44 16 79.5t45 61t68.5 39t86.5 13.5t87 -13.5t68.5 -39
t44.5 -61t16 -79.5zM1059 323q17 0 32 6.5t27 17.5t19 26.5t7 33.5t-7 33.5t-18.5 27t-27 18t-32.5 6.5t-32.5 -6.5t-27 -18.5t-18.5 -27.5t-7 -32.5q0 -18 7 -33.5t18.5 -26.5t27 -17.5t32.5 -6.5z" />
    <glyph glyph-name="trademark" unicode="&#x2122;" horiz-adv-x="940" 
d="M384 754v-78h-123v-326h-97v326h-123v78h343zM575 754l91 -239l91 239h142v-404h-88v326h-2l-117 -326h-52l-117 326h-2v-326h-88v404h142z" />
    <glyph glyph-name="Omega" unicode="&#x2126;" horiz-adv-x="831" 
d="M454 0v266q62 15 91 63t29 109q0 35 -12.5 64t-34 49.5t-50.5 32t-61 11.5t-61 -11.5t-50.5 -32t-34.5 -49.5t-13 -65q0 -64 30.5 -109.5t89.5 -61.5v-266h-323v173h165v12q-38 12 -68.5 36.5t-52 58t-33 75.5t-11.5 89q0 76 28.5 137t78 103t115 64.5t139.5 22.5
t140 -22t115.5 -63.5t78 -102t28.5 -137.5q0 -48 -11.5 -90t-32.5 -76t-51.5 -58.5t-69.5 -36.5v-12h165v-173h-323z" />
    <glyph glyph-name="estimated" unicode="&#x212e;" horiz-adv-x="600" 
d="M157 259v-181q59 -59 145 -59q62 0 108 28t85 92l35 -21q-47 -74 -99 -104.5t-129 -30.5q-114 0 -186 78.5t-72 197.5t72.5 197.5t185.5 78.5t185.5 -75.5t73.5 -200.5h-404zM157 295h291v145q-63 60 -148 60q-83 0 -143 -60v-145z" />
    <glyph glyph-name="partialdiff" unicode="&#x2202;" horiz-adv-x="721" 
d="M344 -13q-114 0 -187.5 68t-73.5 177q0 103 68 167.5t182 64.5q57 0 103 -23q-3 55 -33.5 85.5t-82.5 30.5q-82 0 -146 -64l-86 133q103 95 240 95q141 0 219.5 -97t78.5 -266q0 -179 -73 -275t-209 -96zM438 292v6q-35 26 -81 26q-38 0 -60.5 -23.5t-22.5 -66.5
q0 -39 20.5 -64.5t53.5 -25.5q46 0 68 38.5t22 109.5z" />
    <glyph glyph-name="Delta" unicode="&#x2206;" horiz-adv-x="773" 
d="M459 758l304 -758h-753l285 758h164zM265 179h224l-116 314z" />
    <glyph glyph-name="product" unicode="&#x220f;" horiz-adv-x="759" 
d="M703 786v-999h-171v851h-305v-851h-169v999h645z" />
    <glyph glyph-name="summation" unicode="&#x2211;" horiz-adv-x="675" 
d="M642 786v-148h-392l247 -345l-263 -358h420v-148h-628v122l287 383l-275 372v122h604z" />
    <glyph glyph-name="minus" unicode="&#x2212;" 
d="M599 332v-150h-512v150h512z" />
    <glyph glyph-name="uni2215" unicode="&#x2215;" horiz-adv-x="194" 
d="M365 754l-438 -754h-98l438 754h98z" />
    <glyph glyph-name="uni2219" unicode="&#x2219;" horiz-adv-x="343" 
d="M172 139q-49 0 -83 34t-34 83q0 48 34 82.5t83 34.5t83 -33.5t34 -83.5q0 -48 -34.5 -82.5t-82.5 -34.5z" />
    <glyph glyph-name="radical" unicode="&#x221a;" horiz-adv-x="585" 
d="M594 786l-217 -999h-135l-141 290l-52 -23l-59 126l188 84l102 -223l154 745h160z" />
    <glyph glyph-name="infinity" unicode="&#x221e;" horiz-adv-x="848" 
d="M613 72q-51 0 -97.5 24.5t-91.5 74.5q-45 -51 -89.5 -74.5t-96.5 -23.5q-85 0 -139 54.5t-54 138.5q0 85 52 138t137 53q54 0 99 -25t91 -79q46 55 91 80t99 25q83 0 136 -52.5t53 -138.5t-53 -140.5t-137 -54.5zM507 263q55 -61 106 -61q27 0 42.5 18t15.5 44
q0 29 -16 46.5t-46 17.5q-22 0 -45.5 -15t-56.5 -50zM341 263q-64 64 -108 64q-24 0 -40 -18t-16 -45q0 -28 16 -44.5t44 -16.5q48 0 104 60z" />
    <glyph glyph-name="integral" unicode="&#x222b;" horiz-adv-x="644" 
d="M472 615q-17 0 -31 8.5t-25 26.5t-17 18q-7 0 -12 -11.5t-5 -32.5l1 -58v-461q0 -161 -45.5 -239t-144.5 -78q-57 0 -93.5 27.5t-36.5 72.5q0 28 22.5 48.5t51.5 20.5q34 0 53 -25l9 -13q9 -13 15 -13t9 6.5t3 26.5l-3 96v484q0 130 48.5 197.5t144.5 67.5q50 0 89.5 -25
t39.5 -70q0 -30 -20.5 -52t-52.5 -22z" />
    <glyph glyph-name="approxequal" unicode="&#x2248;" 
d="M455 418q21 0 30.5 15t13.5 43h110q-9 -96 -52.5 -148.5t-114.5 -52.5q-46 0 -126.5 30.5t-114.5 30.5t-46 -48h-108q9 93 53 140.5t117 47.5q44 0 120 -29t118 -29zM455 205q19 0 28.5 12t15.5 32h110q-12 -94 -54 -142t-111 -48q-50 0 -130 31.5t-114 31.5
q-20 0 -31 -15t-16 -44h-108q9 93 52 146.5t112 53.5q47 0 124 -29t122 -29z" />
    <glyph glyph-name="notequal" unicode="&#x2260;" 
d="M424 596l128 -60l-45 -86h86v-139h-158l-46 -87h204v-140h-278l-74 -147l-128 63l46 84h-89v140h160l46 87h-206v139h278z" />
    <glyph glyph-name="lessequal" unicode="&#x2264;" 
d="M597 545l-290 -121l290 -115v-151l-509 209v118l509 209v-149zM597 143v-131h-509v131h509z" />
    <glyph glyph-name="greaterequal" unicode="&#x2265;" 
d="M597 485v-118l-509 -209v151l290 115l-290 121v149zM597 143v-131h-509v131h509z" />
    <glyph glyph-name="lozenge" unicode="&#x25ca;" horiz-adv-x="612" 
d="M370 747l187 -391l-187 -391h-130l-183 391l184 391h129zM305 137l95 219l-95 219l-93 -219z" />
    <glyph glyph-name="uniF8FF" unicode="&#xf8ff;" horiz-adv-x="512" 
d="M512 718v-718h-512v718h512zM462 50v617h-412v-617h412zM383 478q0 -36 -14.5 -62t-50.5 -58t-41.5 -49.5t-5.5 -74.5h-46l-2 19q0 64 18.5 91.5t54.5 60t36 69.5q0 35 -22.5 60t-53.5 25q-69 0 -82 -95l-50 8q6 67 41 102t94 35q55 0 89.5 -36.5t34.5 -94.5zM222 184h56
v-67h-56v67z" />
    <glyph glyph-name="commaaccent" horiz-adv-x="330" 
d="M246 -40v-103q0 -63 -48 -103t-129 -48v74q42 5 60.5 20t18.5 45h-55v115h153z" />
    <glyph glyph-name="grave.cap" horiz-adv-x="402" 
d="M186 1031l141 -172l-81 -59l-171 151z" />
    <glyph glyph-name="acute.cap" horiz-adv-x="402" 
d="M327 951l-171 -151l-81 59l141 172z" />
    <glyph glyph-name="circumflex.cap" horiz-adv-x="590" 
d="M293 1040l221 -164l-77 -84l-144 111l-144 -111l-74 84z" />
    <glyph glyph-name="caron.cap" horiz-adv-x="590" 
d="M293 928l144 112l77 -85l-221 -163l-218 163l74 85z" />
    <glyph glyph-name="caron.alt" horiz-adv-x="402" 
d="M278 719l-96 -195l-86 22l64 208z" />
    <glyph glyph-name="tilde.cap" horiz-adv-x="549" 
d="M474 985q-7 -73 -42.5 -115.5t-87.5 -42.5q-27 0 -77 18.5t-75 18.5q-22 0 -29 -23l-5 -14h-82l-1 12q0 63 33.5 103.5t78.5 40.5q27 0 85 -17t77 -17q15 0 23.5 7.5t16.5 28.5h85z" />
    <glyph glyph-name="dieresis.cap" horiz-adv-x="604" 
d="M174 815q-43 0 -71 28t-28 70q0 41 28.5 69.5t70.5 28.5t70 -28.5t28 -69.5t-28.5 -69.5t-69.5 -28.5zM430 815q-42 0 -70.5 28t-28.5 70t28.5 70t70.5 28t70 -29t28 -69q0 -42 -28 -70t-70 -28z" />
    <glyph glyph-name="macron.cap" horiz-adv-x="603" 
d="M527 963v-107h-452v107h452z" />
    <glyph glyph-name="breve.cap" horiz-adv-x="539" 
d="M187 995q5 -32 27.5 -49.5t54.5 -17.5q33 0 55.5 17.5t27.5 49.5h111q-5 -79 -57 -124t-137 -45t-137 44.5t-57 124.5h112z" />
    <glyph glyph-name="ring.cap" horiz-adv-x="457" 
d="M230 796q-73 0 -114 30t-41 84q0 55 40.5 85.5t111.5 30.5q74 0 114.5 -30t40.5 -85q0 -54 -40.5 -84.5t-111.5 -30.5zM287 911q0 21 -16 32t-42 11q-27 0 -43 -11.5t-16 -31.5t16 -31.5t43 -11.5q26 0 42 11.5t16 31.5z" />
    <glyph glyph-name="hungarumlaut.cap" horiz-adv-x="539" 
d="M254 1025l-50 -214h-93l14 214h129zM428 1025l-50 -214h-93l14 214h129z" />
    <glyph glyph-name="dotaccent.cap" horiz-adv-x="402" 
d="M202 815q-42 0 -70.5 28t-28.5 70t28.5 70t70.5 28t70 -29t28 -69q0 -42 -28 -70t-70 -28z" />
    <glyph glyph-name="commaaccent.alt" horiz-adv-x="330" 
d="M265 815q-79 -10 -79 -75h55v-125h-153v114q0 62 49.5 107.5t127.5 52.5v-74z" />
    <glyph glyph-name="cyrbreve" horiz-adv-x="539" 
d="M269 585q-33 0 -66 8.5t-61.5 26t-50.5 45.5t-33 68l100 41q10 -20 23.5 -33t28.5 -21t30 -11.5t29 -3.5t29 3.5t30 11.5t28.5 21t23.5 33l100 -41q-11 -40 -33 -68t-50.5 -45.5t-61.5 -26t-66 -8.5z" />
    <glyph glyph-name="cyrbreve.cap" horiz-adv-x="539" 
d="M269 815q-33 0 -66 8.5t-61.5 26t-50.5 45.5t-33 68l100 41q10 -20 23.5 -33t28.5 -21t30 -11.5t29 -3.5t29 3.5t30 11.5t28.5 21t23.5 33l100 -41q-11 -40 -33 -68t-50.5 -45.5t-61.5 -26t-66 -8.5z" />
    </font>
</defs>
</svg>
